G04 #@! TF.GenerationSoftware,KiCad,Pcbnew,8.0.4*
G04 #@! TF.CreationDate,2024-09-27T10:27:01+02:00*
G04 #@! TF.ProjectId,WritingRobotV2,57726974-696e-4675-926f-626f7456322e,rev?*
G04 #@! TF.SameCoordinates,Original*
G04 #@! TF.FileFunction,Legend,Top*
G04 #@! TF.FilePolarity,Positive*
%FSLAX46Y46*%
G04 Gerber Fmt 4.6, Leading zero omitted, Abs format (unit mm)*
G04 Created by KiCad (PCBNEW 8.0.4) date 2024-09-27 10:27:01*
%MOMM*%
%LPD*%
G01*
G04 APERTURE LIST*
%ADD10C,0.100000*%
%ADD11C,0.125000*%
%ADD12C,0.150000*%
%ADD13C,0.120000*%
%ADD14C,1.400000*%
%ADD15O,1.400000X1.400000*%
%ADD16C,4.300000*%
%ADD17R,1.700000X1.700000*%
%ADD18O,1.700000X1.700000*%
%ADD19C,1.700000*%
%ADD20R,1.600000X1.600000*%
%ADD21O,1.600000X1.600000*%
%ADD22C,1.600000*%
%ADD23R,2.000000X1.905000*%
%ADD24O,2.000000X1.905000*%
%ADD25C,0.600000*%
G04 APERTURE END LIST*
D10*
X92000000Y-110500000D02*
X104500000Y-110500000D01*
X104500000Y-131000000D01*
X92000000Y-131000000D01*
X92000000Y-110500000D01*
D11*
X103371119Y-157179668D02*
X102371119Y-157179668D01*
X102371119Y-157179668D02*
X102371119Y-156941573D01*
X102371119Y-156941573D02*
X102418738Y-156798716D01*
X102418738Y-156798716D02*
X102513976Y-156703478D01*
X102513976Y-156703478D02*
X102609214Y-156655859D01*
X102609214Y-156655859D02*
X102799690Y-156608240D01*
X102799690Y-156608240D02*
X102942547Y-156608240D01*
X102942547Y-156608240D02*
X103133023Y-156655859D01*
X103133023Y-156655859D02*
X103228261Y-156703478D01*
X103228261Y-156703478D02*
X103323500Y-156798716D01*
X103323500Y-156798716D02*
X103371119Y-156941573D01*
X103371119Y-156941573D02*
X103371119Y-157179668D01*
X102847309Y-155846335D02*
X102894928Y-155703478D01*
X102894928Y-155703478D02*
X102942547Y-155655859D01*
X102942547Y-155655859D02*
X103037785Y-155608240D01*
X103037785Y-155608240D02*
X103180642Y-155608240D01*
X103180642Y-155608240D02*
X103275880Y-155655859D01*
X103275880Y-155655859D02*
X103323500Y-155703478D01*
X103323500Y-155703478D02*
X103371119Y-155798716D01*
X103371119Y-155798716D02*
X103371119Y-156179668D01*
X103371119Y-156179668D02*
X102371119Y-156179668D01*
X102371119Y-156179668D02*
X102371119Y-155846335D01*
X102371119Y-155846335D02*
X102418738Y-155751097D01*
X102418738Y-155751097D02*
X102466357Y-155703478D01*
X102466357Y-155703478D02*
X102561595Y-155655859D01*
X102561595Y-155655859D02*
X102656833Y-155655859D01*
X102656833Y-155655859D02*
X102752071Y-155703478D01*
X102752071Y-155703478D02*
X102799690Y-155751097D01*
X102799690Y-155751097D02*
X102847309Y-155846335D01*
X102847309Y-155846335D02*
X102847309Y-156179668D01*
X102418738Y-154655859D02*
X102371119Y-154751097D01*
X102371119Y-154751097D02*
X102371119Y-154893954D01*
X102371119Y-154893954D02*
X102418738Y-155036811D01*
X102418738Y-155036811D02*
X102513976Y-155132049D01*
X102513976Y-155132049D02*
X102609214Y-155179668D01*
X102609214Y-155179668D02*
X102799690Y-155227287D01*
X102799690Y-155227287D02*
X102942547Y-155227287D01*
X102942547Y-155227287D02*
X103133023Y-155179668D01*
X103133023Y-155179668D02*
X103228261Y-155132049D01*
X103228261Y-155132049D02*
X103323500Y-155036811D01*
X103323500Y-155036811D02*
X103371119Y-154893954D01*
X103371119Y-154893954D02*
X103371119Y-154798716D01*
X103371119Y-154798716D02*
X103323500Y-154655859D01*
X103323500Y-154655859D02*
X103275880Y-154608240D01*
X103275880Y-154608240D02*
X102942547Y-154608240D01*
X102942547Y-154608240D02*
X102942547Y-154798716D01*
X102371119Y-153560620D02*
X103371119Y-153227287D01*
X103371119Y-153227287D02*
X102371119Y-152893954D01*
X102371119Y-152084430D02*
X102371119Y-152560620D01*
X102371119Y-152560620D02*
X102847309Y-152608239D01*
X102847309Y-152608239D02*
X102799690Y-152560620D01*
X102799690Y-152560620D02*
X102752071Y-152465382D01*
X102752071Y-152465382D02*
X102752071Y-152227287D01*
X102752071Y-152227287D02*
X102799690Y-152132049D01*
X102799690Y-152132049D02*
X102847309Y-152084430D01*
X102847309Y-152084430D02*
X102942547Y-152036811D01*
X102942547Y-152036811D02*
X103180642Y-152036811D01*
X103180642Y-152036811D02*
X103275880Y-152084430D01*
X103275880Y-152084430D02*
X103323500Y-152132049D01*
X103323500Y-152132049D02*
X103371119Y-152227287D01*
X103371119Y-152227287D02*
X103371119Y-152465382D01*
X103371119Y-152465382D02*
X103323500Y-152560620D01*
X103323500Y-152560620D02*
X103275880Y-152608239D01*
X60820331Y-116371119D02*
X60820331Y-115371119D01*
X60820331Y-115371119D02*
X61058426Y-115371119D01*
X61058426Y-115371119D02*
X61201283Y-115418738D01*
X61201283Y-115418738D02*
X61296521Y-115513976D01*
X61296521Y-115513976D02*
X61344140Y-115609214D01*
X61344140Y-115609214D02*
X61391759Y-115799690D01*
X61391759Y-115799690D02*
X61391759Y-115942547D01*
X61391759Y-115942547D02*
X61344140Y-116133023D01*
X61344140Y-116133023D02*
X61296521Y-116228261D01*
X61296521Y-116228261D02*
X61201283Y-116323500D01*
X61201283Y-116323500D02*
X61058426Y-116371119D01*
X61058426Y-116371119D02*
X60820331Y-116371119D01*
X62153664Y-115847309D02*
X62296521Y-115894928D01*
X62296521Y-115894928D02*
X62344140Y-115942547D01*
X62344140Y-115942547D02*
X62391759Y-116037785D01*
X62391759Y-116037785D02*
X62391759Y-116180642D01*
X62391759Y-116180642D02*
X62344140Y-116275880D01*
X62344140Y-116275880D02*
X62296521Y-116323500D01*
X62296521Y-116323500D02*
X62201283Y-116371119D01*
X62201283Y-116371119D02*
X61820331Y-116371119D01*
X61820331Y-116371119D02*
X61820331Y-115371119D01*
X61820331Y-115371119D02*
X62153664Y-115371119D01*
X62153664Y-115371119D02*
X62248902Y-115418738D01*
X62248902Y-115418738D02*
X62296521Y-115466357D01*
X62296521Y-115466357D02*
X62344140Y-115561595D01*
X62344140Y-115561595D02*
X62344140Y-115656833D01*
X62344140Y-115656833D02*
X62296521Y-115752071D01*
X62296521Y-115752071D02*
X62248902Y-115799690D01*
X62248902Y-115799690D02*
X62153664Y-115847309D01*
X62153664Y-115847309D02*
X61820331Y-115847309D01*
X63344140Y-115418738D02*
X63248902Y-115371119D01*
X63248902Y-115371119D02*
X63106045Y-115371119D01*
X63106045Y-115371119D02*
X62963188Y-115418738D01*
X62963188Y-115418738D02*
X62867950Y-115513976D01*
X62867950Y-115513976D02*
X62820331Y-115609214D01*
X62820331Y-115609214D02*
X62772712Y-115799690D01*
X62772712Y-115799690D02*
X62772712Y-115942547D01*
X62772712Y-115942547D02*
X62820331Y-116133023D01*
X62820331Y-116133023D02*
X62867950Y-116228261D01*
X62867950Y-116228261D02*
X62963188Y-116323500D01*
X62963188Y-116323500D02*
X63106045Y-116371119D01*
X63106045Y-116371119D02*
X63201283Y-116371119D01*
X63201283Y-116371119D02*
X63344140Y-116323500D01*
X63344140Y-116323500D02*
X63391759Y-116275880D01*
X63391759Y-116275880D02*
X63391759Y-115942547D01*
X63391759Y-115942547D02*
X63201283Y-115942547D01*
X65106045Y-115418738D02*
X65010807Y-115371119D01*
X65010807Y-115371119D02*
X64867950Y-115371119D01*
X64867950Y-115371119D02*
X64725093Y-115418738D01*
X64725093Y-115418738D02*
X64629855Y-115513976D01*
X64629855Y-115513976D02*
X64582236Y-115609214D01*
X64582236Y-115609214D02*
X64534617Y-115799690D01*
X64534617Y-115799690D02*
X64534617Y-115942547D01*
X64534617Y-115942547D02*
X64582236Y-116133023D01*
X64582236Y-116133023D02*
X64629855Y-116228261D01*
X64629855Y-116228261D02*
X64725093Y-116323500D01*
X64725093Y-116323500D02*
X64867950Y-116371119D01*
X64867950Y-116371119D02*
X64963188Y-116371119D01*
X64963188Y-116371119D02*
X65106045Y-116323500D01*
X65106045Y-116323500D02*
X65153664Y-116275880D01*
X65153664Y-116275880D02*
X65153664Y-115942547D01*
X65153664Y-115942547D02*
X64963188Y-115942547D01*
X65582236Y-116371119D02*
X65582236Y-115371119D01*
X65582236Y-115371119D02*
X66153664Y-116371119D01*
X66153664Y-116371119D02*
X66153664Y-115371119D01*
X66629855Y-116371119D02*
X66629855Y-115371119D01*
X66629855Y-115371119D02*
X66867950Y-115371119D01*
X66867950Y-115371119D02*
X67010807Y-115418738D01*
X67010807Y-115418738D02*
X67106045Y-115513976D01*
X67106045Y-115513976D02*
X67153664Y-115609214D01*
X67153664Y-115609214D02*
X67201283Y-115799690D01*
X67201283Y-115799690D02*
X67201283Y-115942547D01*
X67201283Y-115942547D02*
X67153664Y-116133023D01*
X67153664Y-116133023D02*
X67106045Y-116228261D01*
X67106045Y-116228261D02*
X67010807Y-116323500D01*
X67010807Y-116323500D02*
X66867950Y-116371119D01*
X66867950Y-116371119D02*
X66629855Y-116371119D01*
D10*
X71303884Y-113372419D02*
X71303884Y-112372419D01*
X71303884Y-112372419D02*
X71684836Y-112372419D01*
X71684836Y-112372419D02*
X71780074Y-112420038D01*
X71780074Y-112420038D02*
X71827693Y-112467657D01*
X71827693Y-112467657D02*
X71875312Y-112562895D01*
X71875312Y-112562895D02*
X71875312Y-112705752D01*
X71875312Y-112705752D02*
X71827693Y-112800990D01*
X71827693Y-112800990D02*
X71780074Y-112848609D01*
X71780074Y-112848609D02*
X71684836Y-112896228D01*
X71684836Y-112896228D02*
X71303884Y-112896228D01*
X72494360Y-112372419D02*
X72684836Y-112372419D01*
X72684836Y-112372419D02*
X72780074Y-112420038D01*
X72780074Y-112420038D02*
X72875312Y-112515276D01*
X72875312Y-112515276D02*
X72922931Y-112705752D01*
X72922931Y-112705752D02*
X72922931Y-113039085D01*
X72922931Y-113039085D02*
X72875312Y-113229561D01*
X72875312Y-113229561D02*
X72780074Y-113324800D01*
X72780074Y-113324800D02*
X72684836Y-113372419D01*
X72684836Y-113372419D02*
X72494360Y-113372419D01*
X72494360Y-113372419D02*
X72399122Y-113324800D01*
X72399122Y-113324800D02*
X72303884Y-113229561D01*
X72303884Y-113229561D02*
X72256265Y-113039085D01*
X72256265Y-113039085D02*
X72256265Y-112705752D01*
X72256265Y-112705752D02*
X72303884Y-112515276D01*
X72303884Y-112515276D02*
X72399122Y-112420038D01*
X72399122Y-112420038D02*
X72494360Y-112372419D01*
X73256265Y-112372419D02*
X73494360Y-113372419D01*
X73494360Y-113372419D02*
X73684836Y-112658133D01*
X73684836Y-112658133D02*
X73875312Y-113372419D01*
X73875312Y-113372419D02*
X74113408Y-112372419D01*
X74494360Y-112848609D02*
X74827693Y-112848609D01*
X74970550Y-113372419D02*
X74494360Y-113372419D01*
X74494360Y-113372419D02*
X74494360Y-112372419D01*
X74494360Y-112372419D02*
X74970550Y-112372419D01*
X75970550Y-113372419D02*
X75637217Y-112896228D01*
X75399122Y-113372419D02*
X75399122Y-112372419D01*
X75399122Y-112372419D02*
X75780074Y-112372419D01*
X75780074Y-112372419D02*
X75875312Y-112420038D01*
X75875312Y-112420038D02*
X75922931Y-112467657D01*
X75922931Y-112467657D02*
X75970550Y-112562895D01*
X75970550Y-112562895D02*
X75970550Y-112705752D01*
X75970550Y-112705752D02*
X75922931Y-112800990D01*
X75922931Y-112800990D02*
X75875312Y-112848609D01*
X75875312Y-112848609D02*
X75780074Y-112896228D01*
X75780074Y-112896228D02*
X75399122Y-112896228D01*
X77113408Y-113324800D02*
X77256265Y-113372419D01*
X77256265Y-113372419D02*
X77494360Y-113372419D01*
X77494360Y-113372419D02*
X77589598Y-113324800D01*
X77589598Y-113324800D02*
X77637217Y-113277180D01*
X77637217Y-113277180D02*
X77684836Y-113181942D01*
X77684836Y-113181942D02*
X77684836Y-113086704D01*
X77684836Y-113086704D02*
X77637217Y-112991466D01*
X77637217Y-112991466D02*
X77589598Y-112943847D01*
X77589598Y-112943847D02*
X77494360Y-112896228D01*
X77494360Y-112896228D02*
X77303884Y-112848609D01*
X77303884Y-112848609D02*
X77208646Y-112800990D01*
X77208646Y-112800990D02*
X77161027Y-112753371D01*
X77161027Y-112753371D02*
X77113408Y-112658133D01*
X77113408Y-112658133D02*
X77113408Y-112562895D01*
X77113408Y-112562895D02*
X77161027Y-112467657D01*
X77161027Y-112467657D02*
X77208646Y-112420038D01*
X77208646Y-112420038D02*
X77303884Y-112372419D01*
X77303884Y-112372419D02*
X77541979Y-112372419D01*
X77541979Y-112372419D02*
X77684836Y-112420038D01*
X78018170Y-112372419D02*
X78256265Y-113372419D01*
X78256265Y-113372419D02*
X78446741Y-112658133D01*
X78446741Y-112658133D02*
X78637217Y-113372419D01*
X78637217Y-113372419D02*
X78875313Y-112372419D01*
X79256265Y-113372419D02*
X79256265Y-112372419D01*
X79589598Y-112372419D02*
X80161026Y-112372419D01*
X79875312Y-113372419D02*
X79875312Y-112372419D01*
X81065788Y-113277180D02*
X81018169Y-113324800D01*
X81018169Y-113324800D02*
X80875312Y-113372419D01*
X80875312Y-113372419D02*
X80780074Y-113372419D01*
X80780074Y-113372419D02*
X80637217Y-113324800D01*
X80637217Y-113324800D02*
X80541979Y-113229561D01*
X80541979Y-113229561D02*
X80494360Y-113134323D01*
X80494360Y-113134323D02*
X80446741Y-112943847D01*
X80446741Y-112943847D02*
X80446741Y-112800990D01*
X80446741Y-112800990D02*
X80494360Y-112610514D01*
X80494360Y-112610514D02*
X80541979Y-112515276D01*
X80541979Y-112515276D02*
X80637217Y-112420038D01*
X80637217Y-112420038D02*
X80780074Y-112372419D01*
X80780074Y-112372419D02*
X80875312Y-112372419D01*
X80875312Y-112372419D02*
X81018169Y-112420038D01*
X81018169Y-112420038D02*
X81065788Y-112467657D01*
X81494360Y-113372419D02*
X81494360Y-112372419D01*
X81494360Y-112848609D02*
X82065788Y-112848609D01*
X82065788Y-113372419D02*
X82065788Y-112372419D01*
X102780074Y-139872419D02*
X102303884Y-139872419D01*
X102303884Y-139872419D02*
X102256265Y-140348609D01*
X102256265Y-140348609D02*
X102303884Y-140300990D01*
X102303884Y-140300990D02*
X102399122Y-140253371D01*
X102399122Y-140253371D02*
X102637217Y-140253371D01*
X102637217Y-140253371D02*
X102732455Y-140300990D01*
X102732455Y-140300990D02*
X102780074Y-140348609D01*
X102780074Y-140348609D02*
X102827693Y-140443847D01*
X102827693Y-140443847D02*
X102827693Y-140681942D01*
X102827693Y-140681942D02*
X102780074Y-140777180D01*
X102780074Y-140777180D02*
X102732455Y-140824800D01*
X102732455Y-140824800D02*
X102637217Y-140872419D01*
X102637217Y-140872419D02*
X102399122Y-140872419D01*
X102399122Y-140872419D02*
X102303884Y-140824800D01*
X102303884Y-140824800D02*
X102256265Y-140777180D01*
X103113408Y-139872419D02*
X103446741Y-140872419D01*
X103446741Y-140872419D02*
X103780074Y-139872419D01*
X36994360Y-158872419D02*
X37184836Y-158872419D01*
X37184836Y-158872419D02*
X37280074Y-158920038D01*
X37280074Y-158920038D02*
X37375312Y-159015276D01*
X37375312Y-159015276D02*
X37422931Y-159205752D01*
X37422931Y-159205752D02*
X37422931Y-159539085D01*
X37422931Y-159539085D02*
X37375312Y-159729561D01*
X37375312Y-159729561D02*
X37280074Y-159824800D01*
X37280074Y-159824800D02*
X37184836Y-159872419D01*
X37184836Y-159872419D02*
X36994360Y-159872419D01*
X36994360Y-159872419D02*
X36899122Y-159824800D01*
X36899122Y-159824800D02*
X36803884Y-159729561D01*
X36803884Y-159729561D02*
X36756265Y-159539085D01*
X36756265Y-159539085D02*
X36756265Y-159205752D01*
X36756265Y-159205752D02*
X36803884Y-159015276D01*
X36803884Y-159015276D02*
X36899122Y-158920038D01*
X36899122Y-158920038D02*
X36994360Y-158872419D01*
X37851503Y-158872419D02*
X37851503Y-159681942D01*
X37851503Y-159681942D02*
X37899122Y-159777180D01*
X37899122Y-159777180D02*
X37946741Y-159824800D01*
X37946741Y-159824800D02*
X38041979Y-159872419D01*
X38041979Y-159872419D02*
X38232455Y-159872419D01*
X38232455Y-159872419D02*
X38327693Y-159824800D01*
X38327693Y-159824800D02*
X38375312Y-159777180D01*
X38375312Y-159777180D02*
X38422931Y-159681942D01*
X38422931Y-159681942D02*
X38422931Y-158872419D01*
X38756265Y-158872419D02*
X39327693Y-158872419D01*
X39041979Y-159872419D02*
X39041979Y-158872419D01*
X40946741Y-159872419D02*
X40375313Y-159872419D01*
X40661027Y-159872419D02*
X40661027Y-158872419D01*
X40661027Y-158872419D02*
X40565789Y-159015276D01*
X40565789Y-159015276D02*
X40470551Y-159110514D01*
X40470551Y-159110514D02*
X40375313Y-159158133D01*
X93827693Y-136420038D02*
X93732455Y-136372419D01*
X93732455Y-136372419D02*
X93589598Y-136372419D01*
X93589598Y-136372419D02*
X93446741Y-136420038D01*
X93446741Y-136420038D02*
X93351503Y-136515276D01*
X93351503Y-136515276D02*
X93303884Y-136610514D01*
X93303884Y-136610514D02*
X93256265Y-136800990D01*
X93256265Y-136800990D02*
X93256265Y-136943847D01*
X93256265Y-136943847D02*
X93303884Y-137134323D01*
X93303884Y-137134323D02*
X93351503Y-137229561D01*
X93351503Y-137229561D02*
X93446741Y-137324800D01*
X93446741Y-137324800D02*
X93589598Y-137372419D01*
X93589598Y-137372419D02*
X93684836Y-137372419D01*
X93684836Y-137372419D02*
X93827693Y-137324800D01*
X93827693Y-137324800D02*
X93875312Y-137277180D01*
X93875312Y-137277180D02*
X93875312Y-136943847D01*
X93875312Y-136943847D02*
X93684836Y-136943847D01*
X94303884Y-137372419D02*
X94303884Y-136372419D01*
X94303884Y-136372419D02*
X94875312Y-137372419D01*
X94875312Y-137372419D02*
X94875312Y-136372419D01*
X95351503Y-137372419D02*
X95351503Y-136372419D01*
X95351503Y-136372419D02*
X95589598Y-136372419D01*
X95589598Y-136372419D02*
X95732455Y-136420038D01*
X95732455Y-136420038D02*
X95827693Y-136515276D01*
X95827693Y-136515276D02*
X95875312Y-136610514D01*
X95875312Y-136610514D02*
X95922931Y-136800990D01*
X95922931Y-136800990D02*
X95922931Y-136943847D01*
X95922931Y-136943847D02*
X95875312Y-137134323D01*
X95875312Y-137134323D02*
X95827693Y-137229561D01*
X95827693Y-137229561D02*
X95732455Y-137324800D01*
X95732455Y-137324800D02*
X95589598Y-137372419D01*
X95589598Y-137372419D02*
X95351503Y-137372419D01*
X50756265Y-178324800D02*
X50899122Y-178372419D01*
X50899122Y-178372419D02*
X51137217Y-178372419D01*
X51137217Y-178372419D02*
X51232455Y-178324800D01*
X51232455Y-178324800D02*
X51280074Y-178277180D01*
X51280074Y-178277180D02*
X51327693Y-178181942D01*
X51327693Y-178181942D02*
X51327693Y-178086704D01*
X51327693Y-178086704D02*
X51280074Y-177991466D01*
X51280074Y-177991466D02*
X51232455Y-177943847D01*
X51232455Y-177943847D02*
X51137217Y-177896228D01*
X51137217Y-177896228D02*
X50946741Y-177848609D01*
X50946741Y-177848609D02*
X50851503Y-177800990D01*
X50851503Y-177800990D02*
X50803884Y-177753371D01*
X50803884Y-177753371D02*
X50756265Y-177658133D01*
X50756265Y-177658133D02*
X50756265Y-177562895D01*
X50756265Y-177562895D02*
X50803884Y-177467657D01*
X50803884Y-177467657D02*
X50851503Y-177420038D01*
X50851503Y-177420038D02*
X50946741Y-177372419D01*
X50946741Y-177372419D02*
X51184836Y-177372419D01*
X51184836Y-177372419D02*
X51327693Y-177420038D01*
X51613408Y-177705752D02*
X51994360Y-177705752D01*
X51756265Y-177372419D02*
X51756265Y-178229561D01*
X51756265Y-178229561D02*
X51803884Y-178324800D01*
X51803884Y-178324800D02*
X51899122Y-178372419D01*
X51899122Y-178372419D02*
X51994360Y-178372419D01*
X52708646Y-178324800D02*
X52613408Y-178372419D01*
X52613408Y-178372419D02*
X52422932Y-178372419D01*
X52422932Y-178372419D02*
X52327694Y-178324800D01*
X52327694Y-178324800D02*
X52280075Y-178229561D01*
X52280075Y-178229561D02*
X52280075Y-177848609D01*
X52280075Y-177848609D02*
X52327694Y-177753371D01*
X52327694Y-177753371D02*
X52422932Y-177705752D01*
X52422932Y-177705752D02*
X52613408Y-177705752D01*
X52613408Y-177705752D02*
X52708646Y-177753371D01*
X52708646Y-177753371D02*
X52756265Y-177848609D01*
X52756265Y-177848609D02*
X52756265Y-177943847D01*
X52756265Y-177943847D02*
X52280075Y-178039085D01*
X53184837Y-177705752D02*
X53184837Y-178705752D01*
X53184837Y-177753371D02*
X53280075Y-177705752D01*
X53280075Y-177705752D02*
X53470551Y-177705752D01*
X53470551Y-177705752D02*
X53565789Y-177753371D01*
X53565789Y-177753371D02*
X53613408Y-177800990D01*
X53613408Y-177800990D02*
X53661027Y-177896228D01*
X53661027Y-177896228D02*
X53661027Y-178181942D01*
X53661027Y-178181942D02*
X53613408Y-178277180D01*
X53613408Y-178277180D02*
X53565789Y-178324800D01*
X53565789Y-178324800D02*
X53470551Y-178372419D01*
X53470551Y-178372419D02*
X53280075Y-178372419D01*
X53280075Y-178372419D02*
X53184837Y-178324800D01*
X54089599Y-177705752D02*
X54089599Y-178705752D01*
X54089599Y-177753371D02*
X54184837Y-177705752D01*
X54184837Y-177705752D02*
X54375313Y-177705752D01*
X54375313Y-177705752D02*
X54470551Y-177753371D01*
X54470551Y-177753371D02*
X54518170Y-177800990D01*
X54518170Y-177800990D02*
X54565789Y-177896228D01*
X54565789Y-177896228D02*
X54565789Y-178181942D01*
X54565789Y-178181942D02*
X54518170Y-178277180D01*
X54518170Y-178277180D02*
X54470551Y-178324800D01*
X54470551Y-178324800D02*
X54375313Y-178372419D01*
X54375313Y-178372419D02*
X54184837Y-178372419D01*
X54184837Y-178372419D02*
X54089599Y-178324800D01*
X55375313Y-178324800D02*
X55280075Y-178372419D01*
X55280075Y-178372419D02*
X55089599Y-178372419D01*
X55089599Y-178372419D02*
X54994361Y-178324800D01*
X54994361Y-178324800D02*
X54946742Y-178229561D01*
X54946742Y-178229561D02*
X54946742Y-177848609D01*
X54946742Y-177848609D02*
X54994361Y-177753371D01*
X54994361Y-177753371D02*
X55089599Y-177705752D01*
X55089599Y-177705752D02*
X55280075Y-177705752D01*
X55280075Y-177705752D02*
X55375313Y-177753371D01*
X55375313Y-177753371D02*
X55422932Y-177848609D01*
X55422932Y-177848609D02*
X55422932Y-177943847D01*
X55422932Y-177943847D02*
X54946742Y-178039085D01*
X55851504Y-178372419D02*
X55851504Y-177705752D01*
X55851504Y-177896228D02*
X55899123Y-177800990D01*
X55899123Y-177800990D02*
X55946742Y-177753371D01*
X55946742Y-177753371D02*
X56041980Y-177705752D01*
X56041980Y-177705752D02*
X56137218Y-177705752D01*
X57756266Y-178372419D02*
X57184838Y-178372419D01*
X57470552Y-178372419D02*
X57470552Y-177372419D01*
X57470552Y-177372419D02*
X57375314Y-177515276D01*
X57375314Y-177515276D02*
X57280076Y-177610514D01*
X57280076Y-177610514D02*
X57184838Y-177658133D01*
X96375312Y-178277180D02*
X96327693Y-178324800D01*
X96327693Y-178324800D02*
X96184836Y-178372419D01*
X96184836Y-178372419D02*
X96089598Y-178372419D01*
X96089598Y-178372419D02*
X95946741Y-178324800D01*
X95946741Y-178324800D02*
X95851503Y-178229561D01*
X95851503Y-178229561D02*
X95803884Y-178134323D01*
X95803884Y-178134323D02*
X95756265Y-177943847D01*
X95756265Y-177943847D02*
X95756265Y-177800990D01*
X95756265Y-177800990D02*
X95803884Y-177610514D01*
X95803884Y-177610514D02*
X95851503Y-177515276D01*
X95851503Y-177515276D02*
X95946741Y-177420038D01*
X95946741Y-177420038D02*
X96089598Y-177372419D01*
X96089598Y-177372419D02*
X96184836Y-177372419D01*
X96184836Y-177372419D02*
X96327693Y-177420038D01*
X96327693Y-177420038D02*
X96375312Y-177467657D01*
X96756265Y-178086704D02*
X97232455Y-178086704D01*
X96661027Y-178372419D02*
X96994360Y-177372419D01*
X96994360Y-177372419D02*
X97327693Y-178372419D01*
X97661027Y-178372419D02*
X97661027Y-177372419D01*
X97661027Y-177372419D02*
X98232455Y-178372419D01*
X98232455Y-178372419D02*
X98232455Y-177372419D01*
X98708646Y-177991466D02*
X99470551Y-177991466D01*
X100422931Y-178372419D02*
X99946741Y-178372419D01*
X99946741Y-178372419D02*
X99946741Y-177372419D01*
X102827693Y-134872419D02*
X102256265Y-134872419D01*
X102541979Y-134872419D02*
X102541979Y-133872419D01*
X102541979Y-133872419D02*
X102446741Y-134015276D01*
X102446741Y-134015276D02*
X102351503Y-134110514D01*
X102351503Y-134110514D02*
X102256265Y-134158133D01*
X103208646Y-133967657D02*
X103256265Y-133920038D01*
X103256265Y-133920038D02*
X103351503Y-133872419D01*
X103351503Y-133872419D02*
X103589598Y-133872419D01*
X103589598Y-133872419D02*
X103684836Y-133920038D01*
X103684836Y-133920038D02*
X103732455Y-133967657D01*
X103732455Y-133967657D02*
X103780074Y-134062895D01*
X103780074Y-134062895D02*
X103780074Y-134158133D01*
X103780074Y-134158133D02*
X103732455Y-134300990D01*
X103732455Y-134300990D02*
X103161027Y-134872419D01*
X103161027Y-134872419D02*
X103780074Y-134872419D01*
X104065789Y-133872419D02*
X104399122Y-134872419D01*
X104399122Y-134872419D02*
X104732455Y-133872419D01*
X96375312Y-174777180D02*
X96327693Y-174824800D01*
X96327693Y-174824800D02*
X96184836Y-174872419D01*
X96184836Y-174872419D02*
X96089598Y-174872419D01*
X96089598Y-174872419D02*
X95946741Y-174824800D01*
X95946741Y-174824800D02*
X95851503Y-174729561D01*
X95851503Y-174729561D02*
X95803884Y-174634323D01*
X95803884Y-174634323D02*
X95756265Y-174443847D01*
X95756265Y-174443847D02*
X95756265Y-174300990D01*
X95756265Y-174300990D02*
X95803884Y-174110514D01*
X95803884Y-174110514D02*
X95851503Y-174015276D01*
X95851503Y-174015276D02*
X95946741Y-173920038D01*
X95946741Y-173920038D02*
X96089598Y-173872419D01*
X96089598Y-173872419D02*
X96184836Y-173872419D01*
X96184836Y-173872419D02*
X96327693Y-173920038D01*
X96327693Y-173920038D02*
X96375312Y-173967657D01*
X96756265Y-174586704D02*
X97232455Y-174586704D01*
X96661027Y-174872419D02*
X96994360Y-173872419D01*
X96994360Y-173872419D02*
X97327693Y-174872419D01*
X97661027Y-174872419D02*
X97661027Y-173872419D01*
X97661027Y-173872419D02*
X98232455Y-174872419D01*
X98232455Y-174872419D02*
X98232455Y-173872419D01*
X98708646Y-174491466D02*
X99470551Y-174491466D01*
X99946741Y-174872419D02*
X99946741Y-173872419D01*
X99946741Y-174348609D02*
X100518169Y-174348609D01*
X100518169Y-174872419D02*
X100518169Y-173872419D01*
X35994360Y-134372419D02*
X36184836Y-134372419D01*
X36184836Y-134372419D02*
X36280074Y-134420038D01*
X36280074Y-134420038D02*
X36375312Y-134515276D01*
X36375312Y-134515276D02*
X36422931Y-134705752D01*
X36422931Y-134705752D02*
X36422931Y-135039085D01*
X36422931Y-135039085D02*
X36375312Y-135229561D01*
X36375312Y-135229561D02*
X36280074Y-135324800D01*
X36280074Y-135324800D02*
X36184836Y-135372419D01*
X36184836Y-135372419D02*
X35994360Y-135372419D01*
X35994360Y-135372419D02*
X35899122Y-135324800D01*
X35899122Y-135324800D02*
X35803884Y-135229561D01*
X35803884Y-135229561D02*
X35756265Y-135039085D01*
X35756265Y-135039085D02*
X35756265Y-134705752D01*
X35756265Y-134705752D02*
X35803884Y-134515276D01*
X35803884Y-134515276D02*
X35899122Y-134420038D01*
X35899122Y-134420038D02*
X35994360Y-134372419D01*
X36851503Y-134372419D02*
X36851503Y-135181942D01*
X36851503Y-135181942D02*
X36899122Y-135277180D01*
X36899122Y-135277180D02*
X36946741Y-135324800D01*
X36946741Y-135324800D02*
X37041979Y-135372419D01*
X37041979Y-135372419D02*
X37232455Y-135372419D01*
X37232455Y-135372419D02*
X37327693Y-135324800D01*
X37327693Y-135324800D02*
X37375312Y-135277180D01*
X37375312Y-135277180D02*
X37422931Y-135181942D01*
X37422931Y-135181942D02*
X37422931Y-134372419D01*
X37756265Y-134372419D02*
X38327693Y-134372419D01*
X38041979Y-135372419D02*
X38041979Y-134372419D01*
X39375313Y-134467657D02*
X39422932Y-134420038D01*
X39422932Y-134420038D02*
X39518170Y-134372419D01*
X39518170Y-134372419D02*
X39756265Y-134372419D01*
X39756265Y-134372419D02*
X39851503Y-134420038D01*
X39851503Y-134420038D02*
X39899122Y-134467657D01*
X39899122Y-134467657D02*
X39946741Y-134562895D01*
X39946741Y-134562895D02*
X39946741Y-134658133D01*
X39946741Y-134658133D02*
X39899122Y-134800990D01*
X39899122Y-134800990D02*
X39327694Y-135372419D01*
X39327694Y-135372419D02*
X39946741Y-135372419D01*
X51256265Y-130824800D02*
X51399122Y-130872419D01*
X51399122Y-130872419D02*
X51637217Y-130872419D01*
X51637217Y-130872419D02*
X51732455Y-130824800D01*
X51732455Y-130824800D02*
X51780074Y-130777180D01*
X51780074Y-130777180D02*
X51827693Y-130681942D01*
X51827693Y-130681942D02*
X51827693Y-130586704D01*
X51827693Y-130586704D02*
X51780074Y-130491466D01*
X51780074Y-130491466D02*
X51732455Y-130443847D01*
X51732455Y-130443847D02*
X51637217Y-130396228D01*
X51637217Y-130396228D02*
X51446741Y-130348609D01*
X51446741Y-130348609D02*
X51351503Y-130300990D01*
X51351503Y-130300990D02*
X51303884Y-130253371D01*
X51303884Y-130253371D02*
X51256265Y-130158133D01*
X51256265Y-130158133D02*
X51256265Y-130062895D01*
X51256265Y-130062895D02*
X51303884Y-129967657D01*
X51303884Y-129967657D02*
X51351503Y-129920038D01*
X51351503Y-129920038D02*
X51446741Y-129872419D01*
X51446741Y-129872419D02*
X51684836Y-129872419D01*
X51684836Y-129872419D02*
X51827693Y-129920038D01*
X52113408Y-130205752D02*
X52494360Y-130205752D01*
X52256265Y-129872419D02*
X52256265Y-130729561D01*
X52256265Y-130729561D02*
X52303884Y-130824800D01*
X52303884Y-130824800D02*
X52399122Y-130872419D01*
X52399122Y-130872419D02*
X52494360Y-130872419D01*
X53208646Y-130824800D02*
X53113408Y-130872419D01*
X53113408Y-130872419D02*
X52922932Y-130872419D01*
X52922932Y-130872419D02*
X52827694Y-130824800D01*
X52827694Y-130824800D02*
X52780075Y-130729561D01*
X52780075Y-130729561D02*
X52780075Y-130348609D01*
X52780075Y-130348609D02*
X52827694Y-130253371D01*
X52827694Y-130253371D02*
X52922932Y-130205752D01*
X52922932Y-130205752D02*
X53113408Y-130205752D01*
X53113408Y-130205752D02*
X53208646Y-130253371D01*
X53208646Y-130253371D02*
X53256265Y-130348609D01*
X53256265Y-130348609D02*
X53256265Y-130443847D01*
X53256265Y-130443847D02*
X52780075Y-130539085D01*
X53684837Y-130205752D02*
X53684837Y-131205752D01*
X53684837Y-130253371D02*
X53780075Y-130205752D01*
X53780075Y-130205752D02*
X53970551Y-130205752D01*
X53970551Y-130205752D02*
X54065789Y-130253371D01*
X54065789Y-130253371D02*
X54113408Y-130300990D01*
X54113408Y-130300990D02*
X54161027Y-130396228D01*
X54161027Y-130396228D02*
X54161027Y-130681942D01*
X54161027Y-130681942D02*
X54113408Y-130777180D01*
X54113408Y-130777180D02*
X54065789Y-130824800D01*
X54065789Y-130824800D02*
X53970551Y-130872419D01*
X53970551Y-130872419D02*
X53780075Y-130872419D01*
X53780075Y-130872419D02*
X53684837Y-130824800D01*
X54589599Y-130205752D02*
X54589599Y-131205752D01*
X54589599Y-130253371D02*
X54684837Y-130205752D01*
X54684837Y-130205752D02*
X54875313Y-130205752D01*
X54875313Y-130205752D02*
X54970551Y-130253371D01*
X54970551Y-130253371D02*
X55018170Y-130300990D01*
X55018170Y-130300990D02*
X55065789Y-130396228D01*
X55065789Y-130396228D02*
X55065789Y-130681942D01*
X55065789Y-130681942D02*
X55018170Y-130777180D01*
X55018170Y-130777180D02*
X54970551Y-130824800D01*
X54970551Y-130824800D02*
X54875313Y-130872419D01*
X54875313Y-130872419D02*
X54684837Y-130872419D01*
X54684837Y-130872419D02*
X54589599Y-130824800D01*
X55875313Y-130824800D02*
X55780075Y-130872419D01*
X55780075Y-130872419D02*
X55589599Y-130872419D01*
X55589599Y-130872419D02*
X55494361Y-130824800D01*
X55494361Y-130824800D02*
X55446742Y-130729561D01*
X55446742Y-130729561D02*
X55446742Y-130348609D01*
X55446742Y-130348609D02*
X55494361Y-130253371D01*
X55494361Y-130253371D02*
X55589599Y-130205752D01*
X55589599Y-130205752D02*
X55780075Y-130205752D01*
X55780075Y-130205752D02*
X55875313Y-130253371D01*
X55875313Y-130253371D02*
X55922932Y-130348609D01*
X55922932Y-130348609D02*
X55922932Y-130443847D01*
X55922932Y-130443847D02*
X55446742Y-130539085D01*
X56351504Y-130872419D02*
X56351504Y-130205752D01*
X56351504Y-130396228D02*
X56399123Y-130300990D01*
X56399123Y-130300990D02*
X56446742Y-130253371D01*
X56446742Y-130253371D02*
X56541980Y-130205752D01*
X56541980Y-130205752D02*
X56637218Y-130205752D01*
X57684838Y-129967657D02*
X57732457Y-129920038D01*
X57732457Y-129920038D02*
X57827695Y-129872419D01*
X57827695Y-129872419D02*
X58065790Y-129872419D01*
X58065790Y-129872419D02*
X58161028Y-129920038D01*
X58161028Y-129920038D02*
X58208647Y-129967657D01*
X58208647Y-129967657D02*
X58256266Y-130062895D01*
X58256266Y-130062895D02*
X58256266Y-130158133D01*
X58256266Y-130158133D02*
X58208647Y-130300990D01*
X58208647Y-130300990D02*
X57637219Y-130872419D01*
X57637219Y-130872419D02*
X58256266Y-130872419D01*
X90875312Y-143372419D02*
X90541979Y-142896228D01*
X90303884Y-143372419D02*
X90303884Y-142372419D01*
X90303884Y-142372419D02*
X90684836Y-142372419D01*
X90684836Y-142372419D02*
X90780074Y-142420038D01*
X90780074Y-142420038D02*
X90827693Y-142467657D01*
X90827693Y-142467657D02*
X90875312Y-142562895D01*
X90875312Y-142562895D02*
X90875312Y-142705752D01*
X90875312Y-142705752D02*
X90827693Y-142800990D01*
X90827693Y-142800990D02*
X90780074Y-142848609D01*
X90780074Y-142848609D02*
X90684836Y-142896228D01*
X90684836Y-142896228D02*
X90303884Y-142896228D01*
X91208646Y-142372419D02*
X91875312Y-143372419D01*
X91875312Y-142372419D02*
X91208646Y-143372419D01*
X92970550Y-142324800D02*
X92113408Y-143610514D01*
X93161027Y-142372419D02*
X93732455Y-142372419D01*
X93446741Y-143372419D02*
X93446741Y-142372419D01*
X93970551Y-142372419D02*
X94637217Y-143372419D01*
X94637217Y-142372419D02*
X93970551Y-143372419D01*
D11*
X47320331Y-116871119D02*
X47320331Y-115871119D01*
X47320331Y-115871119D02*
X47558426Y-115871119D01*
X47558426Y-115871119D02*
X47701283Y-115918738D01*
X47701283Y-115918738D02*
X47796521Y-116013976D01*
X47796521Y-116013976D02*
X47844140Y-116109214D01*
X47844140Y-116109214D02*
X47891759Y-116299690D01*
X47891759Y-116299690D02*
X47891759Y-116442547D01*
X47891759Y-116442547D02*
X47844140Y-116633023D01*
X47844140Y-116633023D02*
X47796521Y-116728261D01*
X47796521Y-116728261D02*
X47701283Y-116823500D01*
X47701283Y-116823500D02*
X47558426Y-116871119D01*
X47558426Y-116871119D02*
X47320331Y-116871119D01*
X48653664Y-116347309D02*
X48796521Y-116394928D01*
X48796521Y-116394928D02*
X48844140Y-116442547D01*
X48844140Y-116442547D02*
X48891759Y-116537785D01*
X48891759Y-116537785D02*
X48891759Y-116680642D01*
X48891759Y-116680642D02*
X48844140Y-116775880D01*
X48844140Y-116775880D02*
X48796521Y-116823500D01*
X48796521Y-116823500D02*
X48701283Y-116871119D01*
X48701283Y-116871119D02*
X48320331Y-116871119D01*
X48320331Y-116871119D02*
X48320331Y-115871119D01*
X48320331Y-115871119D02*
X48653664Y-115871119D01*
X48653664Y-115871119D02*
X48748902Y-115918738D01*
X48748902Y-115918738D02*
X48796521Y-115966357D01*
X48796521Y-115966357D02*
X48844140Y-116061595D01*
X48844140Y-116061595D02*
X48844140Y-116156833D01*
X48844140Y-116156833D02*
X48796521Y-116252071D01*
X48796521Y-116252071D02*
X48748902Y-116299690D01*
X48748902Y-116299690D02*
X48653664Y-116347309D01*
X48653664Y-116347309D02*
X48320331Y-116347309D01*
X49844140Y-115918738D02*
X49748902Y-115871119D01*
X49748902Y-115871119D02*
X49606045Y-115871119D01*
X49606045Y-115871119D02*
X49463188Y-115918738D01*
X49463188Y-115918738D02*
X49367950Y-116013976D01*
X49367950Y-116013976D02*
X49320331Y-116109214D01*
X49320331Y-116109214D02*
X49272712Y-116299690D01*
X49272712Y-116299690D02*
X49272712Y-116442547D01*
X49272712Y-116442547D02*
X49320331Y-116633023D01*
X49320331Y-116633023D02*
X49367950Y-116728261D01*
X49367950Y-116728261D02*
X49463188Y-116823500D01*
X49463188Y-116823500D02*
X49606045Y-116871119D01*
X49606045Y-116871119D02*
X49701283Y-116871119D01*
X49701283Y-116871119D02*
X49844140Y-116823500D01*
X49844140Y-116823500D02*
X49891759Y-116775880D01*
X49891759Y-116775880D02*
X49891759Y-116442547D01*
X49891759Y-116442547D02*
X49701283Y-116442547D01*
X51606045Y-116871119D02*
X51034617Y-116871119D01*
X51320331Y-116871119D02*
X51320331Y-115871119D01*
X51320331Y-115871119D02*
X51225093Y-116013976D01*
X51225093Y-116013976D02*
X51129855Y-116109214D01*
X51129855Y-116109214D02*
X51034617Y-116156833D01*
X51986998Y-115966357D02*
X52034617Y-115918738D01*
X52034617Y-115918738D02*
X52129855Y-115871119D01*
X52129855Y-115871119D02*
X52367950Y-115871119D01*
X52367950Y-115871119D02*
X52463188Y-115918738D01*
X52463188Y-115918738D02*
X52510807Y-115966357D01*
X52510807Y-115966357D02*
X52558426Y-116061595D01*
X52558426Y-116061595D02*
X52558426Y-116156833D01*
X52558426Y-116156833D02*
X52510807Y-116299690D01*
X52510807Y-116299690D02*
X51939379Y-116871119D01*
X51939379Y-116871119D02*
X52558426Y-116871119D01*
X52844141Y-115871119D02*
X53177474Y-116871119D01*
X53177474Y-116871119D02*
X53510807Y-115871119D01*
D12*
X93833333Y-166454819D02*
X93500000Y-165978628D01*
X93261905Y-166454819D02*
X93261905Y-165454819D01*
X93261905Y-165454819D02*
X93642857Y-165454819D01*
X93642857Y-165454819D02*
X93738095Y-165502438D01*
X93738095Y-165502438D02*
X93785714Y-165550057D01*
X93785714Y-165550057D02*
X93833333Y-165645295D01*
X93833333Y-165645295D02*
X93833333Y-165788152D01*
X93833333Y-165788152D02*
X93785714Y-165883390D01*
X93785714Y-165883390D02*
X93738095Y-165931009D01*
X93738095Y-165931009D02*
X93642857Y-165978628D01*
X93642857Y-165978628D02*
X93261905Y-165978628D01*
X94214286Y-165550057D02*
X94261905Y-165502438D01*
X94261905Y-165502438D02*
X94357143Y-165454819D01*
X94357143Y-165454819D02*
X94595238Y-165454819D01*
X94595238Y-165454819D02*
X94690476Y-165502438D01*
X94690476Y-165502438D02*
X94738095Y-165550057D01*
X94738095Y-165550057D02*
X94785714Y-165645295D01*
X94785714Y-165645295D02*
X94785714Y-165740533D01*
X94785714Y-165740533D02*
X94738095Y-165883390D01*
X94738095Y-165883390D02*
X94166667Y-166454819D01*
X94166667Y-166454819D02*
X94785714Y-166454819D01*
X35738095Y-111954819D02*
X35738095Y-110954819D01*
X35738095Y-111431009D02*
X36309523Y-111431009D01*
X36309523Y-111954819D02*
X36309523Y-110954819D01*
X37214285Y-111288152D02*
X37214285Y-111954819D01*
X36976190Y-110907200D02*
X36738095Y-111621485D01*
X36738095Y-111621485D02*
X37357142Y-111621485D01*
X47166666Y-112954819D02*
X47166666Y-113669104D01*
X47166666Y-113669104D02*
X47119047Y-113811961D01*
X47119047Y-113811961D02*
X47023809Y-113907200D01*
X47023809Y-113907200D02*
X46880952Y-113954819D01*
X46880952Y-113954819D02*
X46785714Y-113954819D01*
X47690476Y-113954819D02*
X47880952Y-113954819D01*
X47880952Y-113954819D02*
X47976190Y-113907200D01*
X47976190Y-113907200D02*
X48023809Y-113859580D01*
X48023809Y-113859580D02*
X48119047Y-113716723D01*
X48119047Y-113716723D02*
X48166666Y-113526247D01*
X48166666Y-113526247D02*
X48166666Y-113145295D01*
X48166666Y-113145295D02*
X48119047Y-113050057D01*
X48119047Y-113050057D02*
X48071428Y-113002438D01*
X48071428Y-113002438D02*
X47976190Y-112954819D01*
X47976190Y-112954819D02*
X47785714Y-112954819D01*
X47785714Y-112954819D02*
X47690476Y-113002438D01*
X47690476Y-113002438D02*
X47642857Y-113050057D01*
X47642857Y-113050057D02*
X47595238Y-113145295D01*
X47595238Y-113145295D02*
X47595238Y-113383390D01*
X47595238Y-113383390D02*
X47642857Y-113478628D01*
X47642857Y-113478628D02*
X47690476Y-113526247D01*
X47690476Y-113526247D02*
X47785714Y-113573866D01*
X47785714Y-113573866D02*
X47976190Y-113573866D01*
X47976190Y-113573866D02*
X48071428Y-113526247D01*
X48071428Y-113526247D02*
X48119047Y-113478628D01*
X48119047Y-113478628D02*
X48166666Y-113383390D01*
X90166666Y-146224819D02*
X90166666Y-146939104D01*
X90166666Y-146939104D02*
X90119047Y-147081961D01*
X90119047Y-147081961D02*
X90023809Y-147177200D01*
X90023809Y-147177200D02*
X89880952Y-147224819D01*
X89880952Y-147224819D02*
X89785714Y-147224819D01*
X91071428Y-146224819D02*
X90880952Y-146224819D01*
X90880952Y-146224819D02*
X90785714Y-146272438D01*
X90785714Y-146272438D02*
X90738095Y-146320057D01*
X90738095Y-146320057D02*
X90642857Y-146462914D01*
X90642857Y-146462914D02*
X90595238Y-146653390D01*
X90595238Y-146653390D02*
X90595238Y-147034342D01*
X90595238Y-147034342D02*
X90642857Y-147129580D01*
X90642857Y-147129580D02*
X90690476Y-147177200D01*
X90690476Y-147177200D02*
X90785714Y-147224819D01*
X90785714Y-147224819D02*
X90976190Y-147224819D01*
X90976190Y-147224819D02*
X91071428Y-147177200D01*
X91071428Y-147177200D02*
X91119047Y-147129580D01*
X91119047Y-147129580D02*
X91166666Y-147034342D01*
X91166666Y-147034342D02*
X91166666Y-146796247D01*
X91166666Y-146796247D02*
X91119047Y-146701009D01*
X91119047Y-146701009D02*
X91071428Y-146653390D01*
X91071428Y-146653390D02*
X90976190Y-146605771D01*
X90976190Y-146605771D02*
X90785714Y-146605771D01*
X90785714Y-146605771D02*
X90690476Y-146653390D01*
X90690476Y-146653390D02*
X90642857Y-146701009D01*
X90642857Y-146701009D02*
X90595238Y-146796247D01*
X102190476Y-146454819D02*
X102190476Y-147169104D01*
X102190476Y-147169104D02*
X102142857Y-147311961D01*
X102142857Y-147311961D02*
X102047619Y-147407200D01*
X102047619Y-147407200D02*
X101904762Y-147454819D01*
X101904762Y-147454819D02*
X101809524Y-147454819D01*
X103190476Y-147454819D02*
X102619048Y-147454819D01*
X102904762Y-147454819D02*
X102904762Y-146454819D01*
X102904762Y-146454819D02*
X102809524Y-146597676D01*
X102809524Y-146597676D02*
X102714286Y-146692914D01*
X102714286Y-146692914D02*
X102619048Y-146740533D01*
X103809524Y-146454819D02*
X103904762Y-146454819D01*
X103904762Y-146454819D02*
X104000000Y-146502438D01*
X104000000Y-146502438D02*
X104047619Y-146550057D01*
X104047619Y-146550057D02*
X104095238Y-146645295D01*
X104095238Y-146645295D02*
X104142857Y-146835771D01*
X104142857Y-146835771D02*
X104142857Y-147073866D01*
X104142857Y-147073866D02*
X104095238Y-147264342D01*
X104095238Y-147264342D02*
X104047619Y-147359580D01*
X104047619Y-147359580D02*
X104000000Y-147407200D01*
X104000000Y-147407200D02*
X103904762Y-147454819D01*
X103904762Y-147454819D02*
X103809524Y-147454819D01*
X103809524Y-147454819D02*
X103714286Y-147407200D01*
X103714286Y-147407200D02*
X103666667Y-147359580D01*
X103666667Y-147359580D02*
X103619048Y-147264342D01*
X103619048Y-147264342D02*
X103571429Y-147073866D01*
X103571429Y-147073866D02*
X103571429Y-146835771D01*
X103571429Y-146835771D02*
X103619048Y-146645295D01*
X103619048Y-146645295D02*
X103666667Y-146550057D01*
X103666667Y-146550057D02*
X103714286Y-146502438D01*
X103714286Y-146502438D02*
X103809524Y-146454819D01*
X40666666Y-140454819D02*
X40666666Y-141169104D01*
X40666666Y-141169104D02*
X40619047Y-141311961D01*
X40619047Y-141311961D02*
X40523809Y-141407200D01*
X40523809Y-141407200D02*
X40380952Y-141454819D01*
X40380952Y-141454819D02*
X40285714Y-141454819D01*
X41047619Y-140454819D02*
X41666666Y-140454819D01*
X41666666Y-140454819D02*
X41333333Y-140835771D01*
X41333333Y-140835771D02*
X41476190Y-140835771D01*
X41476190Y-140835771D02*
X41571428Y-140883390D01*
X41571428Y-140883390D02*
X41619047Y-140931009D01*
X41619047Y-140931009D02*
X41666666Y-141026247D01*
X41666666Y-141026247D02*
X41666666Y-141264342D01*
X41666666Y-141264342D02*
X41619047Y-141359580D01*
X41619047Y-141359580D02*
X41571428Y-141407200D01*
X41571428Y-141407200D02*
X41476190Y-141454819D01*
X41476190Y-141454819D02*
X41190476Y-141454819D01*
X41190476Y-141454819D02*
X41095238Y-141407200D01*
X41095238Y-141407200D02*
X41047619Y-141359580D01*
X43238095Y-183454819D02*
X43238095Y-182454819D01*
X43238095Y-182931009D02*
X43809523Y-182931009D01*
X43809523Y-183454819D02*
X43809523Y-182454819D01*
X44190476Y-182454819D02*
X44809523Y-182454819D01*
X44809523Y-182454819D02*
X44476190Y-182835771D01*
X44476190Y-182835771D02*
X44619047Y-182835771D01*
X44619047Y-182835771D02*
X44714285Y-182883390D01*
X44714285Y-182883390D02*
X44761904Y-182931009D01*
X44761904Y-182931009D02*
X44809523Y-183026247D01*
X44809523Y-183026247D02*
X44809523Y-183264342D01*
X44809523Y-183264342D02*
X44761904Y-183359580D01*
X44761904Y-183359580D02*
X44714285Y-183407200D01*
X44714285Y-183407200D02*
X44619047Y-183454819D01*
X44619047Y-183454819D02*
X44333333Y-183454819D01*
X44333333Y-183454819D02*
X44238095Y-183407200D01*
X44238095Y-183407200D02*
X44190476Y-183359580D01*
D10*
X72430475Y-146933609D02*
X72573332Y-146981228D01*
X72573332Y-146981228D02*
X72620951Y-147028847D01*
X72620951Y-147028847D02*
X72668570Y-147124085D01*
X72668570Y-147124085D02*
X72668570Y-147266942D01*
X72668570Y-147266942D02*
X72620951Y-147362180D01*
X72620951Y-147362180D02*
X72573332Y-147409800D01*
X72573332Y-147409800D02*
X72478094Y-147457419D01*
X72478094Y-147457419D02*
X72097142Y-147457419D01*
X72097142Y-147457419D02*
X72097142Y-146457419D01*
X72097142Y-146457419D02*
X72430475Y-146457419D01*
X72430475Y-146457419D02*
X72525713Y-146505038D01*
X72525713Y-146505038D02*
X72573332Y-146552657D01*
X72573332Y-146552657D02*
X72620951Y-146647895D01*
X72620951Y-146647895D02*
X72620951Y-146743133D01*
X72620951Y-146743133D02*
X72573332Y-146838371D01*
X72573332Y-146838371D02*
X72525713Y-146885990D01*
X72525713Y-146885990D02*
X72430475Y-146933609D01*
X72430475Y-146933609D02*
X72097142Y-146933609D01*
X73239999Y-147457419D02*
X73144761Y-147409800D01*
X73144761Y-147409800D02*
X73097142Y-147314561D01*
X73097142Y-147314561D02*
X73097142Y-146457419D01*
X74049523Y-146790752D02*
X74049523Y-147457419D01*
X73620952Y-146790752D02*
X73620952Y-147314561D01*
X73620952Y-147314561D02*
X73668571Y-147409800D01*
X73668571Y-147409800D02*
X73763809Y-147457419D01*
X73763809Y-147457419D02*
X73906666Y-147457419D01*
X73906666Y-147457419D02*
X74001904Y-147409800D01*
X74001904Y-147409800D02*
X74049523Y-147362180D01*
X74906666Y-147409800D02*
X74811428Y-147457419D01*
X74811428Y-147457419D02*
X74620952Y-147457419D01*
X74620952Y-147457419D02*
X74525714Y-147409800D01*
X74525714Y-147409800D02*
X74478095Y-147314561D01*
X74478095Y-147314561D02*
X74478095Y-146933609D01*
X74478095Y-146933609D02*
X74525714Y-146838371D01*
X74525714Y-146838371D02*
X74620952Y-146790752D01*
X74620952Y-146790752D02*
X74811428Y-146790752D01*
X74811428Y-146790752D02*
X74906666Y-146838371D01*
X74906666Y-146838371D02*
X74954285Y-146933609D01*
X74954285Y-146933609D02*
X74954285Y-147028847D01*
X74954285Y-147028847D02*
X74478095Y-147124085D01*
X75382857Y-147457419D02*
X75382857Y-146457419D01*
X75382857Y-146457419D02*
X75763809Y-146457419D01*
X75763809Y-146457419D02*
X75859047Y-146505038D01*
X75859047Y-146505038D02*
X75906666Y-146552657D01*
X75906666Y-146552657D02*
X75954285Y-146647895D01*
X75954285Y-146647895D02*
X75954285Y-146790752D01*
X75954285Y-146790752D02*
X75906666Y-146885990D01*
X75906666Y-146885990D02*
X75859047Y-146933609D01*
X75859047Y-146933609D02*
X75763809Y-146981228D01*
X75763809Y-146981228D02*
X75382857Y-146981228D01*
X76382857Y-147457419D02*
X76382857Y-146790752D01*
X76382857Y-146457419D02*
X76335238Y-146505038D01*
X76335238Y-146505038D02*
X76382857Y-146552657D01*
X76382857Y-146552657D02*
X76430476Y-146505038D01*
X76430476Y-146505038D02*
X76382857Y-146457419D01*
X76382857Y-146457419D02*
X76382857Y-146552657D01*
X77001904Y-147457419D02*
X76906666Y-147409800D01*
X76906666Y-147409800D02*
X76859047Y-147314561D01*
X76859047Y-147314561D02*
X76859047Y-146457419D01*
X77525714Y-147457419D02*
X77430476Y-147409800D01*
X77430476Y-147409800D02*
X77382857Y-147314561D01*
X77382857Y-147314561D02*
X77382857Y-146457419D01*
X78430476Y-147457419D02*
X77859048Y-147457419D01*
X78144762Y-147457419D02*
X78144762Y-146457419D01*
X78144762Y-146457419D02*
X78049524Y-146600276D01*
X78049524Y-146600276D02*
X77954286Y-146695514D01*
X77954286Y-146695514D02*
X77859048Y-146743133D01*
D12*
X53785714Y-168169104D02*
X54261904Y-168169104D01*
X53690476Y-168454819D02*
X54023809Y-167454819D01*
X54023809Y-167454819D02*
X54357142Y-168454819D01*
X54642857Y-167550057D02*
X54690476Y-167502438D01*
X54690476Y-167502438D02*
X54785714Y-167454819D01*
X54785714Y-167454819D02*
X55023809Y-167454819D01*
X55023809Y-167454819D02*
X55119047Y-167502438D01*
X55119047Y-167502438D02*
X55166666Y-167550057D01*
X55166666Y-167550057D02*
X55214285Y-167645295D01*
X55214285Y-167645295D02*
X55214285Y-167740533D01*
X55214285Y-167740533D02*
X55166666Y-167883390D01*
X55166666Y-167883390D02*
X54595238Y-168454819D01*
X54595238Y-168454819D02*
X55214285Y-168454819D01*
X60166666Y-112454819D02*
X60166666Y-113169104D01*
X60166666Y-113169104D02*
X60119047Y-113311961D01*
X60119047Y-113311961D02*
X60023809Y-113407200D01*
X60023809Y-113407200D02*
X59880952Y-113454819D01*
X59880952Y-113454819D02*
X59785714Y-113454819D01*
X60785714Y-112883390D02*
X60690476Y-112835771D01*
X60690476Y-112835771D02*
X60642857Y-112788152D01*
X60642857Y-112788152D02*
X60595238Y-112692914D01*
X60595238Y-112692914D02*
X60595238Y-112645295D01*
X60595238Y-112645295D02*
X60642857Y-112550057D01*
X60642857Y-112550057D02*
X60690476Y-112502438D01*
X60690476Y-112502438D02*
X60785714Y-112454819D01*
X60785714Y-112454819D02*
X60976190Y-112454819D01*
X60976190Y-112454819D02*
X61071428Y-112502438D01*
X61071428Y-112502438D02*
X61119047Y-112550057D01*
X61119047Y-112550057D02*
X61166666Y-112645295D01*
X61166666Y-112645295D02*
X61166666Y-112692914D01*
X61166666Y-112692914D02*
X61119047Y-112788152D01*
X61119047Y-112788152D02*
X61071428Y-112835771D01*
X61071428Y-112835771D02*
X60976190Y-112883390D01*
X60976190Y-112883390D02*
X60785714Y-112883390D01*
X60785714Y-112883390D02*
X60690476Y-112931009D01*
X60690476Y-112931009D02*
X60642857Y-112978628D01*
X60642857Y-112978628D02*
X60595238Y-113073866D01*
X60595238Y-113073866D02*
X60595238Y-113264342D01*
X60595238Y-113264342D02*
X60642857Y-113359580D01*
X60642857Y-113359580D02*
X60690476Y-113407200D01*
X60690476Y-113407200D02*
X60785714Y-113454819D01*
X60785714Y-113454819D02*
X60976190Y-113454819D01*
X60976190Y-113454819D02*
X61071428Y-113407200D01*
X61071428Y-113407200D02*
X61119047Y-113359580D01*
X61119047Y-113359580D02*
X61166666Y-113264342D01*
X61166666Y-113264342D02*
X61166666Y-113073866D01*
X61166666Y-113073866D02*
X61119047Y-112978628D01*
X61119047Y-112978628D02*
X61071428Y-112931009D01*
X61071428Y-112931009D02*
X60976190Y-112883390D01*
X95238095Y-184454819D02*
X95238095Y-183454819D01*
X95238095Y-183931009D02*
X95809523Y-183931009D01*
X95809523Y-184454819D02*
X95809523Y-183454819D01*
X96809523Y-184454819D02*
X96238095Y-184454819D01*
X96523809Y-184454819D02*
X96523809Y-183454819D01*
X96523809Y-183454819D02*
X96428571Y-183597676D01*
X96428571Y-183597676D02*
X96333333Y-183692914D01*
X96333333Y-183692914D02*
X96238095Y-183740533D01*
X86333333Y-120859580D02*
X86285714Y-120907200D01*
X86285714Y-120907200D02*
X86142857Y-120954819D01*
X86142857Y-120954819D02*
X86047619Y-120954819D01*
X86047619Y-120954819D02*
X85904762Y-120907200D01*
X85904762Y-120907200D02*
X85809524Y-120811961D01*
X85809524Y-120811961D02*
X85761905Y-120716723D01*
X85761905Y-120716723D02*
X85714286Y-120526247D01*
X85714286Y-120526247D02*
X85714286Y-120383390D01*
X85714286Y-120383390D02*
X85761905Y-120192914D01*
X85761905Y-120192914D02*
X85809524Y-120097676D01*
X85809524Y-120097676D02*
X85904762Y-120002438D01*
X85904762Y-120002438D02*
X86047619Y-119954819D01*
X86047619Y-119954819D02*
X86142857Y-119954819D01*
X86142857Y-119954819D02*
X86285714Y-120002438D01*
X86285714Y-120002438D02*
X86333333Y-120050057D01*
X87238095Y-119954819D02*
X86761905Y-119954819D01*
X86761905Y-119954819D02*
X86714286Y-120431009D01*
X86714286Y-120431009D02*
X86761905Y-120383390D01*
X86761905Y-120383390D02*
X86857143Y-120335771D01*
X86857143Y-120335771D02*
X87095238Y-120335771D01*
X87095238Y-120335771D02*
X87190476Y-120383390D01*
X87190476Y-120383390D02*
X87238095Y-120431009D01*
X87238095Y-120431009D02*
X87285714Y-120526247D01*
X87285714Y-120526247D02*
X87285714Y-120764342D01*
X87285714Y-120764342D02*
X87238095Y-120859580D01*
X87238095Y-120859580D02*
X87190476Y-120907200D01*
X87190476Y-120907200D02*
X87095238Y-120954819D01*
X87095238Y-120954819D02*
X86857143Y-120954819D01*
X86857143Y-120954819D02*
X86761905Y-120907200D01*
X86761905Y-120907200D02*
X86714286Y-120859580D01*
X93774740Y-146227341D02*
X93774740Y-146941626D01*
X93774740Y-146941626D02*
X93727121Y-147084483D01*
X93727121Y-147084483D02*
X93631883Y-147179722D01*
X93631883Y-147179722D02*
X93489026Y-147227341D01*
X93489026Y-147227341D02*
X93393788Y-147227341D01*
X94155693Y-146227341D02*
X94822359Y-146227341D01*
X94822359Y-146227341D02*
X94393788Y-147227341D01*
X53295714Y-143669104D02*
X53771904Y-143669104D01*
X53200476Y-143954819D02*
X53533809Y-142954819D01*
X53533809Y-142954819D02*
X53867142Y-143954819D01*
X54105238Y-142954819D02*
X54724285Y-142954819D01*
X54724285Y-142954819D02*
X54390952Y-143335771D01*
X54390952Y-143335771D02*
X54533809Y-143335771D01*
X54533809Y-143335771D02*
X54629047Y-143383390D01*
X54629047Y-143383390D02*
X54676666Y-143431009D01*
X54676666Y-143431009D02*
X54724285Y-143526247D01*
X54724285Y-143526247D02*
X54724285Y-143764342D01*
X54724285Y-143764342D02*
X54676666Y-143859580D01*
X54676666Y-143859580D02*
X54629047Y-143907200D01*
X54629047Y-143907200D02*
X54533809Y-143954819D01*
X54533809Y-143954819D02*
X54248095Y-143954819D01*
X54248095Y-143954819D02*
X54152857Y-143907200D01*
X54152857Y-143907200D02*
X54105238Y-143859580D01*
X41166666Y-165954819D02*
X41166666Y-166669104D01*
X41166666Y-166669104D02*
X41119047Y-166811961D01*
X41119047Y-166811961D02*
X41023809Y-166907200D01*
X41023809Y-166907200D02*
X40880952Y-166954819D01*
X40880952Y-166954819D02*
X40785714Y-166954819D01*
X41595238Y-166050057D02*
X41642857Y-166002438D01*
X41642857Y-166002438D02*
X41738095Y-165954819D01*
X41738095Y-165954819D02*
X41976190Y-165954819D01*
X41976190Y-165954819D02*
X42071428Y-166002438D01*
X42071428Y-166002438D02*
X42119047Y-166050057D01*
X42119047Y-166050057D02*
X42166666Y-166145295D01*
X42166666Y-166145295D02*
X42166666Y-166240533D01*
X42166666Y-166240533D02*
X42119047Y-166383390D01*
X42119047Y-166383390D02*
X41547619Y-166954819D01*
X41547619Y-166954819D02*
X42166666Y-166954819D01*
X102666666Y-171434819D02*
X102666666Y-172149104D01*
X102666666Y-172149104D02*
X102619047Y-172291961D01*
X102619047Y-172291961D02*
X102523809Y-172387200D01*
X102523809Y-172387200D02*
X102380952Y-172434819D01*
X102380952Y-172434819D02*
X102285714Y-172434819D01*
X103571428Y-171768152D02*
X103571428Y-172434819D01*
X103333333Y-171387200D02*
X103095238Y-172101485D01*
X103095238Y-172101485D02*
X103714285Y-172101485D01*
X97706666Y-126954819D02*
X97706666Y-127669104D01*
X97706666Y-127669104D02*
X97659047Y-127811961D01*
X97659047Y-127811961D02*
X97563809Y-127907200D01*
X97563809Y-127907200D02*
X97420952Y-127954819D01*
X97420952Y-127954819D02*
X97325714Y-127954819D01*
X98659047Y-126954819D02*
X98182857Y-126954819D01*
X98182857Y-126954819D02*
X98135238Y-127431009D01*
X98135238Y-127431009D02*
X98182857Y-127383390D01*
X98182857Y-127383390D02*
X98278095Y-127335771D01*
X98278095Y-127335771D02*
X98516190Y-127335771D01*
X98516190Y-127335771D02*
X98611428Y-127383390D01*
X98611428Y-127383390D02*
X98659047Y-127431009D01*
X98659047Y-127431009D02*
X98706666Y-127526247D01*
X98706666Y-127526247D02*
X98706666Y-127764342D01*
X98706666Y-127764342D02*
X98659047Y-127859580D01*
X98659047Y-127859580D02*
X98611428Y-127907200D01*
X98611428Y-127907200D02*
X98516190Y-127954819D01*
X98516190Y-127954819D02*
X98278095Y-127954819D01*
X98278095Y-127954819D02*
X98182857Y-127907200D01*
X98182857Y-127907200D02*
X98135238Y-127859580D01*
X93833333Y-163454819D02*
X93500000Y-162978628D01*
X93261905Y-163454819D02*
X93261905Y-162454819D01*
X93261905Y-162454819D02*
X93642857Y-162454819D01*
X93642857Y-162454819D02*
X93738095Y-162502438D01*
X93738095Y-162502438D02*
X93785714Y-162550057D01*
X93785714Y-162550057D02*
X93833333Y-162645295D01*
X93833333Y-162645295D02*
X93833333Y-162788152D01*
X93833333Y-162788152D02*
X93785714Y-162883390D01*
X93785714Y-162883390D02*
X93738095Y-162931009D01*
X93738095Y-162931009D02*
X93642857Y-162978628D01*
X93642857Y-162978628D02*
X93261905Y-162978628D01*
X94166667Y-162454819D02*
X94785714Y-162454819D01*
X94785714Y-162454819D02*
X94452381Y-162835771D01*
X94452381Y-162835771D02*
X94595238Y-162835771D01*
X94595238Y-162835771D02*
X94690476Y-162883390D01*
X94690476Y-162883390D02*
X94738095Y-162931009D01*
X94738095Y-162931009D02*
X94785714Y-163026247D01*
X94785714Y-163026247D02*
X94785714Y-163264342D01*
X94785714Y-163264342D02*
X94738095Y-163359580D01*
X94738095Y-163359580D02*
X94690476Y-163407200D01*
X94690476Y-163407200D02*
X94595238Y-163454819D01*
X94595238Y-163454819D02*
X94309524Y-163454819D01*
X94309524Y-163454819D02*
X94214286Y-163407200D01*
X94214286Y-163407200D02*
X94166667Y-163359580D01*
X57833333Y-120609580D02*
X57785714Y-120657200D01*
X57785714Y-120657200D02*
X57642857Y-120704819D01*
X57642857Y-120704819D02*
X57547619Y-120704819D01*
X57547619Y-120704819D02*
X57404762Y-120657200D01*
X57404762Y-120657200D02*
X57309524Y-120561961D01*
X57309524Y-120561961D02*
X57261905Y-120466723D01*
X57261905Y-120466723D02*
X57214286Y-120276247D01*
X57214286Y-120276247D02*
X57214286Y-120133390D01*
X57214286Y-120133390D02*
X57261905Y-119942914D01*
X57261905Y-119942914D02*
X57309524Y-119847676D01*
X57309524Y-119847676D02*
X57404762Y-119752438D01*
X57404762Y-119752438D02*
X57547619Y-119704819D01*
X57547619Y-119704819D02*
X57642857Y-119704819D01*
X57642857Y-119704819D02*
X57785714Y-119752438D01*
X57785714Y-119752438D02*
X57833333Y-119800057D01*
X58785714Y-120704819D02*
X58214286Y-120704819D01*
X58500000Y-120704819D02*
X58500000Y-119704819D01*
X58500000Y-119704819D02*
X58404762Y-119847676D01*
X58404762Y-119847676D02*
X58309524Y-119942914D01*
X58309524Y-119942914D02*
X58214286Y-119990533D01*
X90833333Y-138359580D02*
X90785714Y-138407200D01*
X90785714Y-138407200D02*
X90642857Y-138454819D01*
X90642857Y-138454819D02*
X90547619Y-138454819D01*
X90547619Y-138454819D02*
X90404762Y-138407200D01*
X90404762Y-138407200D02*
X90309524Y-138311961D01*
X90309524Y-138311961D02*
X90261905Y-138216723D01*
X90261905Y-138216723D02*
X90214286Y-138026247D01*
X90214286Y-138026247D02*
X90214286Y-137883390D01*
X90214286Y-137883390D02*
X90261905Y-137692914D01*
X90261905Y-137692914D02*
X90309524Y-137597676D01*
X90309524Y-137597676D02*
X90404762Y-137502438D01*
X90404762Y-137502438D02*
X90547619Y-137454819D01*
X90547619Y-137454819D02*
X90642857Y-137454819D01*
X90642857Y-137454819D02*
X90785714Y-137502438D01*
X90785714Y-137502438D02*
X90833333Y-137550057D01*
X91690476Y-137788152D02*
X91690476Y-138454819D01*
X91452381Y-137407200D02*
X91214286Y-138121485D01*
X91214286Y-138121485D02*
X91833333Y-138121485D01*
X61333333Y-128359580D02*
X61285714Y-128407200D01*
X61285714Y-128407200D02*
X61142857Y-128454819D01*
X61142857Y-128454819D02*
X61047619Y-128454819D01*
X61047619Y-128454819D02*
X60904762Y-128407200D01*
X60904762Y-128407200D02*
X60809524Y-128311961D01*
X60809524Y-128311961D02*
X60761905Y-128216723D01*
X60761905Y-128216723D02*
X60714286Y-128026247D01*
X60714286Y-128026247D02*
X60714286Y-127883390D01*
X60714286Y-127883390D02*
X60761905Y-127692914D01*
X60761905Y-127692914D02*
X60809524Y-127597676D01*
X60809524Y-127597676D02*
X60904762Y-127502438D01*
X60904762Y-127502438D02*
X61047619Y-127454819D01*
X61047619Y-127454819D02*
X61142857Y-127454819D01*
X61142857Y-127454819D02*
X61285714Y-127502438D01*
X61285714Y-127502438D02*
X61333333Y-127550057D01*
X61714286Y-127550057D02*
X61761905Y-127502438D01*
X61761905Y-127502438D02*
X61857143Y-127454819D01*
X61857143Y-127454819D02*
X62095238Y-127454819D01*
X62095238Y-127454819D02*
X62190476Y-127502438D01*
X62190476Y-127502438D02*
X62238095Y-127550057D01*
X62238095Y-127550057D02*
X62285714Y-127645295D01*
X62285714Y-127645295D02*
X62285714Y-127740533D01*
X62285714Y-127740533D02*
X62238095Y-127883390D01*
X62238095Y-127883390D02*
X61666667Y-128454819D01*
X61666667Y-128454819D02*
X62285714Y-128454819D01*
X99584819Y-156771904D02*
X100394342Y-156771904D01*
X100394342Y-156771904D02*
X100489580Y-156724285D01*
X100489580Y-156724285D02*
X100537200Y-156676666D01*
X100537200Y-156676666D02*
X100584819Y-156581428D01*
X100584819Y-156581428D02*
X100584819Y-156390952D01*
X100584819Y-156390952D02*
X100537200Y-156295714D01*
X100537200Y-156295714D02*
X100489580Y-156248095D01*
X100489580Y-156248095D02*
X100394342Y-156200476D01*
X100394342Y-156200476D02*
X99584819Y-156200476D01*
X99680057Y-155771904D02*
X99632438Y-155724285D01*
X99632438Y-155724285D02*
X99584819Y-155629047D01*
X99584819Y-155629047D02*
X99584819Y-155390952D01*
X99584819Y-155390952D02*
X99632438Y-155295714D01*
X99632438Y-155295714D02*
X99680057Y-155248095D01*
X99680057Y-155248095D02*
X99775295Y-155200476D01*
X99775295Y-155200476D02*
X99870533Y-155200476D01*
X99870533Y-155200476D02*
X100013390Y-155248095D01*
X100013390Y-155248095D02*
X100584819Y-155819523D01*
X100584819Y-155819523D02*
X100584819Y-155200476D01*
X86116666Y-114954819D02*
X86116666Y-115669104D01*
X86116666Y-115669104D02*
X86069047Y-115811961D01*
X86069047Y-115811961D02*
X85973809Y-115907200D01*
X85973809Y-115907200D02*
X85830952Y-115954819D01*
X85830952Y-115954819D02*
X85735714Y-115954819D01*
X87116666Y-115954819D02*
X86545238Y-115954819D01*
X86830952Y-115954819D02*
X86830952Y-114954819D01*
X86830952Y-114954819D02*
X86735714Y-115097676D01*
X86735714Y-115097676D02*
X86640476Y-115192914D01*
X86640476Y-115192914D02*
X86545238Y-115240533D01*
X101724819Y-137721904D02*
X102534342Y-137721904D01*
X102534342Y-137721904D02*
X102629580Y-137674285D01*
X102629580Y-137674285D02*
X102677200Y-137626666D01*
X102677200Y-137626666D02*
X102724819Y-137531428D01*
X102724819Y-137531428D02*
X102724819Y-137340952D01*
X102724819Y-137340952D02*
X102677200Y-137245714D01*
X102677200Y-137245714D02*
X102629580Y-137198095D01*
X102629580Y-137198095D02*
X102534342Y-137150476D01*
X102534342Y-137150476D02*
X101724819Y-137150476D01*
X102724819Y-136150476D02*
X102724819Y-136721904D01*
X102724819Y-136436190D02*
X101724819Y-136436190D01*
X101724819Y-136436190D02*
X101867676Y-136531428D01*
X101867676Y-136531428D02*
X101962914Y-136626666D01*
X101962914Y-136626666D02*
X102010533Y-136721904D01*
D13*
X91130000Y-166000000D02*
X92080000Y-166000000D01*
X92080000Y-165080000D02*
X92080000Y-166920000D01*
X92080000Y-166920000D02*
X95920000Y-166920000D01*
X95920000Y-165080000D02*
X92080000Y-165080000D01*
X95920000Y-166920000D02*
X95920000Y-165080000D01*
X96870000Y-166000000D02*
X95920000Y-166000000D01*
X49670000Y-112170000D02*
X51000000Y-112170000D01*
X49670000Y-113500000D02*
X49670000Y-112170000D01*
X49670000Y-114770000D02*
X49670000Y-114830000D01*
X49670000Y-114770000D02*
X52330000Y-114770000D01*
X49670000Y-114830000D02*
X52330000Y-114830000D01*
X52330000Y-114770000D02*
X52330000Y-114830000D01*
X89170000Y-144170000D02*
X90500000Y-144170000D01*
X89170000Y-145500000D02*
X89170000Y-144170000D01*
X89170000Y-146770000D02*
X89170000Y-149370000D01*
X89170000Y-146770000D02*
X91830000Y-146770000D01*
X89170000Y-149370000D02*
X91830000Y-149370000D01*
X91830000Y-146770000D02*
X91830000Y-149370000D01*
X101670000Y-148170000D02*
X103000000Y-148170000D01*
X101670000Y-149500000D02*
X101670000Y-148170000D01*
X101670000Y-150770000D02*
X101670000Y-150830000D01*
X101670000Y-150770000D02*
X104330000Y-150770000D01*
X101670000Y-150830000D02*
X104330000Y-150830000D01*
X104330000Y-150770000D02*
X104330000Y-150830000D01*
X36670000Y-144310000D02*
X36670000Y-136630000D01*
X39330000Y-136630000D02*
X36670000Y-136630000D01*
X39330000Y-144310000D02*
X36670000Y-144310000D01*
X39330000Y-144310000D02*
X39330000Y-136630000D01*
X39330000Y-145580000D02*
X39330000Y-146910000D01*
X39330000Y-146910000D02*
X38000000Y-146910000D01*
D10*
X66120000Y-125970000D02*
X85120000Y-125970000D01*
X85120000Y-177970000D01*
X66120000Y-177970000D01*
X66120000Y-125970000D01*
X73120000Y-174970000D02*
X79120000Y-174970000D01*
X79120000Y-177970000D01*
X73120000Y-177970000D01*
X73120000Y-174970000D01*
D13*
X46260000Y-156210000D02*
X46260000Y-157610000D01*
X46260000Y-158880000D02*
X46260000Y-176790000D01*
X46260000Y-176790000D02*
X61760000Y-176790000D01*
X47660000Y-156210000D02*
X46260000Y-156210000D01*
X48930000Y-156210000D02*
X48930000Y-158880000D01*
X48930000Y-158880000D02*
X46260000Y-158880000D01*
X48930000Y-158880000D02*
X48930000Y-176790000D01*
X59090000Y-156210000D02*
X59090000Y-176790000D01*
X61760000Y-156210000D02*
X48930000Y-156210000D01*
X61760000Y-176790000D02*
X61760000Y-156210000D01*
X62170000Y-111670000D02*
X63500000Y-111670000D01*
X62170000Y-113000000D02*
X62170000Y-111670000D01*
X62170000Y-114270000D02*
X62170000Y-114330000D01*
X62170000Y-114270000D02*
X64830000Y-114270000D01*
X62170000Y-114330000D02*
X64830000Y-114330000D01*
X64830000Y-114270000D02*
X64830000Y-114330000D01*
X90620000Y-120500000D02*
G75*
G02*
X82380000Y-120500000I-4120000J0D01*
G01*
X82380000Y-120500000D02*
G75*
G02*
X90620000Y-120500000I4120000J0D01*
G01*
X92778074Y-144172522D02*
X94108074Y-144172522D01*
X92778074Y-145502522D02*
X92778074Y-144172522D01*
X92778074Y-146772522D02*
X92778074Y-149372522D01*
X92778074Y-146772522D02*
X95438074Y-146772522D01*
X92778074Y-149372522D02*
X95438074Y-149372522D01*
X95438074Y-146772522D02*
X95438074Y-149372522D01*
X46260000Y-131710000D02*
X46260000Y-133110000D01*
X46260000Y-134380000D02*
X46260000Y-152290000D01*
X46260000Y-152290000D02*
X61760000Y-152290000D01*
X47660000Y-131710000D02*
X46260000Y-131710000D01*
X48930000Y-131710000D02*
X48930000Y-134380000D01*
X48930000Y-134380000D02*
X46260000Y-134380000D01*
X48930000Y-134380000D02*
X48930000Y-152290000D01*
X59090000Y-131710000D02*
X59090000Y-152290000D01*
X61760000Y-131710000D02*
X48930000Y-131710000D01*
X61760000Y-152290000D02*
X61760000Y-131710000D01*
X37170000Y-168810000D02*
X37170000Y-161130000D01*
X39830000Y-161130000D02*
X37170000Y-161130000D01*
X39830000Y-168810000D02*
X37170000Y-168810000D01*
X39830000Y-168810000D02*
X39830000Y-161130000D01*
X39830000Y-170080000D02*
X39830000Y-171410000D01*
X39830000Y-171410000D02*
X38500000Y-171410000D01*
X101670000Y-176020000D02*
X101670000Y-178620000D01*
X101670000Y-176020000D02*
X104330000Y-176020000D01*
X101670000Y-178620000D02*
X104330000Y-178620000D01*
X103000000Y-173420000D02*
X104330000Y-173420000D01*
X104330000Y-173420000D02*
X104330000Y-174750000D01*
X104330000Y-176020000D02*
X104330000Y-178620000D01*
X93090000Y-126330000D02*
X93090000Y-125000000D01*
X94420000Y-126330000D02*
X93090000Y-126330000D01*
X95690000Y-123670000D02*
X103370000Y-123670000D01*
X95690000Y-126330000D02*
X95690000Y-123670000D01*
X95690000Y-126330000D02*
X103370000Y-126330000D01*
X103370000Y-126330000D02*
X103370000Y-123670000D01*
X91130000Y-163000000D02*
X92080000Y-163000000D01*
X92080000Y-162080000D02*
X92080000Y-163920000D01*
X92080000Y-163920000D02*
X95920000Y-163920000D01*
X95920000Y-162080000D02*
X92080000Y-162080000D01*
X95920000Y-163920000D02*
X95920000Y-162080000D01*
X96870000Y-163000000D02*
X95920000Y-163000000D01*
X62120000Y-120250000D02*
G75*
G02*
X53880000Y-120250000I-4120000J0D01*
G01*
X53880000Y-120250000D02*
G75*
G02*
X62120000Y-120250000I4120000J0D01*
G01*
X89580000Y-135980000D02*
X90205000Y-135980000D01*
X89580000Y-140020000D02*
X89580000Y-135980000D01*
X89580000Y-140020000D02*
X90205000Y-140020000D01*
X91795000Y-135980000D02*
X92420000Y-135980000D01*
X91795000Y-140020000D02*
X92420000Y-140020000D01*
X92420000Y-140020000D02*
X92420000Y-135980000D01*
X60380000Y-126380000D02*
X60445000Y-126380000D01*
X60380000Y-129620000D02*
X60380000Y-126380000D01*
X60380000Y-129620000D02*
X60445000Y-129620000D01*
X62555000Y-126380000D02*
X62620000Y-126380000D01*
X62555000Y-129620000D02*
X62620000Y-129620000D01*
X62620000Y-129620000D02*
X62620000Y-126380000D01*
X88850000Y-153360000D02*
X88850000Y-158660000D01*
X88850000Y-158660000D02*
X99130000Y-158660000D01*
X99130000Y-153360000D02*
X88850000Y-153360000D01*
X99130000Y-155010000D02*
X99130000Y-153360000D01*
X99130000Y-158660000D02*
X99130000Y-157010000D01*
X99130000Y-157010000D02*
G75*
G02*
X99130000Y-155010000I0J1000000D01*
G01*
X83130000Y-111670000D02*
X83130000Y-114330000D01*
X85730000Y-111670000D02*
X83130000Y-111670000D01*
X85730000Y-111670000D02*
X85730000Y-114330000D01*
X85730000Y-114330000D02*
X83130000Y-114330000D01*
X87000000Y-111670000D02*
X88330000Y-111670000D01*
X88330000Y-111670000D02*
X88330000Y-113000000D01*
X96629000Y-131840000D02*
X96629000Y-142080000D01*
X99760000Y-131840000D02*
X99760000Y-142080000D01*
X101270000Y-131840000D02*
X96629000Y-131840000D01*
X101270000Y-131840000D02*
X101270000Y-142080000D01*
X101270000Y-135110000D02*
X99760000Y-135110000D01*
X101270000Y-138811000D02*
X99760000Y-138811000D01*
X101270000Y-142080000D02*
X96629000Y-142080000D01*
%LPC*%
D14*
X90190000Y-166000000D03*
D15*
X97810000Y-166000000D03*
D16*
X40500000Y-116000000D03*
D17*
X51000000Y-113500000D03*
X90500000Y-145500000D03*
D18*
X90500000Y-148040000D03*
D17*
X103000000Y-149500000D03*
X38000000Y-145580000D03*
D18*
X38000000Y-143040000D03*
X38000000Y-140500000D03*
X38000000Y-137960000D03*
D16*
X39000000Y-180000000D03*
D19*
X68000000Y-127340000D03*
X68000000Y-129880000D03*
X68000000Y-132420000D03*
X68000000Y-134960000D03*
X68000000Y-137500000D03*
X68000000Y-140040000D03*
X68000000Y-142580000D03*
X68000000Y-145120000D03*
X68000000Y-147660000D03*
X68000000Y-150200000D03*
X68000000Y-152740000D03*
X68000000Y-155280000D03*
X68000000Y-157820000D03*
X68000000Y-160360000D03*
X68000000Y-162900000D03*
X68000000Y-165440000D03*
X68000000Y-167980000D03*
X68000000Y-170520000D03*
X68000000Y-173060000D03*
X68000000Y-175600000D03*
X83240000Y-127340000D03*
X83240000Y-129880000D03*
X83240000Y-132420000D03*
X83240000Y-134960000D03*
X83240000Y-137500000D03*
X83240000Y-140040000D03*
X83240000Y-142580000D03*
X83240000Y-145120000D03*
X83240000Y-147660000D03*
X83240000Y-150200000D03*
X83240000Y-152740000D03*
X83240000Y-155280000D03*
X83240000Y-157820000D03*
X83240000Y-160360000D03*
X83240000Y-162900000D03*
X83240000Y-165440000D03*
X83240000Y-167980000D03*
X83240000Y-170520000D03*
X83240000Y-173060000D03*
X83240000Y-175600000D03*
D20*
X47660000Y-157610000D03*
D21*
X47660000Y-160150000D03*
X47660000Y-162690000D03*
X47660000Y-165230000D03*
X47660000Y-167770000D03*
X47660000Y-170310000D03*
X47660000Y-172850000D03*
X47660000Y-175390000D03*
X60360000Y-175390000D03*
X60360000Y-172850000D03*
X60360000Y-170310000D03*
X60360000Y-167770000D03*
X60360000Y-165230000D03*
X60360000Y-162690000D03*
X60360000Y-160150000D03*
X60360000Y-157610000D03*
D17*
X63500000Y-113000000D03*
D16*
X91500000Y-180000000D03*
D22*
X86500000Y-122250000D03*
X86500000Y-118750000D03*
D17*
X94108074Y-145502522D03*
D18*
X94108074Y-148042522D03*
D20*
X47660000Y-133110000D03*
D21*
X47660000Y-135650000D03*
X47660000Y-138190000D03*
X47660000Y-140730000D03*
X47660000Y-143270000D03*
X47660000Y-145810000D03*
X47660000Y-148350000D03*
X47660000Y-150890000D03*
X60360000Y-150890000D03*
X60360000Y-148350000D03*
X60360000Y-145810000D03*
X60360000Y-143270000D03*
X60360000Y-140730000D03*
X60360000Y-138190000D03*
X60360000Y-135650000D03*
X60360000Y-133110000D03*
D17*
X38500000Y-170080000D03*
D18*
X38500000Y-167540000D03*
X38500000Y-165000000D03*
X38500000Y-162460000D03*
D17*
X103000000Y-174750000D03*
D18*
X103000000Y-177290000D03*
D17*
X94420000Y-125000000D03*
D18*
X96960000Y-125000000D03*
X99500000Y-125000000D03*
X102040000Y-125000000D03*
D14*
X90190000Y-163000000D03*
D15*
X97810000Y-163000000D03*
D22*
X58000000Y-122000000D03*
X58000000Y-118500000D03*
X91000000Y-139250000D03*
X91000000Y-136750000D03*
X61500000Y-129250000D03*
X61500000Y-126750000D03*
D20*
X97800000Y-152200000D03*
D21*
X95260000Y-152200000D03*
X92720000Y-152200000D03*
X90180000Y-152200000D03*
X90180000Y-159820000D03*
X92720000Y-159820000D03*
X95260000Y-159820000D03*
X97800000Y-159820000D03*
D17*
X87000000Y-113000000D03*
D18*
X84460000Y-113000000D03*
D23*
X98000000Y-134420000D03*
D24*
X98000000Y-136960000D03*
X98000000Y-139500000D03*
D25*
X78500000Y-173000000D03*
X65500000Y-168000000D03*
X64500000Y-169500000D03*
X63500000Y-170500000D03*
X62500000Y-172500000D03*
%LPD*%
M02*
