G04 #@! TF.GenerationSoftware,KiCad,Pcbnew,8.0.4*
G04 #@! TF.CreationDate,2024-09-27T10:27:01+02:00*
G04 #@! TF.ProjectId,WritingRobotV2,57726974-696e-4675-926f-626f7456322e,rev?*
G04 #@! TF.SameCoordinates,Original*
G04 #@! TF.FileFunction,Legend,Bot*
G04 #@! TF.FilePolarity,Positive*
%FSLAX46Y46*%
G04 Gerber Fmt 4.6, Leading zero omitted, Abs format (unit mm)*
G04 Created by KiCad (PCBNEW 8.0.4) date 2024-09-27 10:27:01*
%MOMM*%
%LPD*%
G01*
G04 APERTURE LIST*
%ADD10C,1.250000*%
%ADD11C,0.000000*%
%ADD12C,1.400000*%
%ADD13O,1.400000X1.400000*%
%ADD14C,4.300000*%
%ADD15R,1.700000X1.700000*%
%ADD16O,1.700000X1.700000*%
%ADD17C,1.700000*%
%ADD18R,1.600000X1.600000*%
%ADD19O,1.600000X1.600000*%
%ADD20C,1.600000*%
%ADD21R,2.000000X1.905000*%
%ADD22O,2.000000X1.905000*%
%ADD23C,0.600000*%
G04 APERTURE END LIST*
D10*
X94463346Y-162823095D02*
X93272870Y-167823095D01*
X93272870Y-167823095D02*
X92320489Y-164251666D01*
X92320489Y-164251666D02*
X91368108Y-167823095D01*
X91368108Y-167823095D02*
X90177632Y-162823095D01*
X88987155Y-162823095D02*
X86130012Y-162823095D01*
X87558584Y-167823095D02*
X87558584Y-162823095D01*
X82796679Y-165204047D02*
X84463345Y-165204047D01*
X84463345Y-167823095D02*
X84463345Y-162823095D01*
X84463345Y-162823095D02*
X82082393Y-162823095D01*
X76368107Y-167823095D02*
X76368107Y-164489761D01*
X76368107Y-162823095D02*
X76606203Y-163061190D01*
X76606203Y-163061190D02*
X76368107Y-163299285D01*
X76368107Y-163299285D02*
X76130012Y-163061190D01*
X76130012Y-163061190D02*
X76368107Y-162823095D01*
X76368107Y-162823095D02*
X76368107Y-163299285D01*
X74701441Y-164489761D02*
X72796679Y-164489761D01*
X73987155Y-162823095D02*
X73987155Y-167108809D01*
X73987155Y-167108809D02*
X73749060Y-167585000D01*
X73749060Y-167585000D02*
X73272870Y-167823095D01*
X73272870Y-167823095D02*
X72796679Y-167823095D01*
X70891917Y-162823095D02*
X71368108Y-163775476D01*
X68987156Y-167585000D02*
X68510965Y-167823095D01*
X68510965Y-167823095D02*
X67558584Y-167823095D01*
X67558584Y-167823095D02*
X67082394Y-167585000D01*
X67082394Y-167585000D02*
X66844298Y-167108809D01*
X66844298Y-167108809D02*
X66844298Y-166870714D01*
X66844298Y-166870714D02*
X67082394Y-166394523D01*
X67082394Y-166394523D02*
X67558584Y-166156428D01*
X67558584Y-166156428D02*
X68272870Y-166156428D01*
X68272870Y-166156428D02*
X68749060Y-165918333D01*
X68749060Y-165918333D02*
X68987156Y-165442142D01*
X68987156Y-165442142D02*
X68987156Y-165204047D01*
X68987156Y-165204047D02*
X68749060Y-164727857D01*
X68749060Y-164727857D02*
X68272870Y-164489761D01*
X68272870Y-164489761D02*
X67558584Y-164489761D01*
X67558584Y-164489761D02*
X67082394Y-164727857D01*
X58749060Y-167823095D02*
X58749060Y-165204047D01*
X58749060Y-165204047D02*
X58987155Y-164727857D01*
X58987155Y-164727857D02*
X59463346Y-164489761D01*
X59463346Y-164489761D02*
X60415727Y-164489761D01*
X60415727Y-164489761D02*
X60891917Y-164727857D01*
X58749060Y-167585000D02*
X59225251Y-167823095D01*
X59225251Y-167823095D02*
X60415727Y-167823095D01*
X60415727Y-167823095D02*
X60891917Y-167585000D01*
X60891917Y-167585000D02*
X61130013Y-167108809D01*
X61130013Y-167108809D02*
X61130013Y-166632619D01*
X61130013Y-166632619D02*
X60891917Y-166156428D01*
X60891917Y-166156428D02*
X60415727Y-165918333D01*
X60415727Y-165918333D02*
X59225251Y-165918333D01*
X59225251Y-165918333D02*
X58749060Y-165680238D01*
X55653822Y-167823095D02*
X56130012Y-167585000D01*
X56130012Y-167585000D02*
X56368107Y-167108809D01*
X56368107Y-167108809D02*
X56368107Y-162823095D01*
X53749059Y-167823095D02*
X53749059Y-164489761D01*
X53749059Y-162823095D02*
X53987155Y-163061190D01*
X53987155Y-163061190D02*
X53749059Y-163299285D01*
X53749059Y-163299285D02*
X53510964Y-163061190D01*
X53510964Y-163061190D02*
X53749059Y-162823095D01*
X53749059Y-162823095D02*
X53749059Y-163299285D01*
X51844298Y-164489761D02*
X50653822Y-167823095D01*
X50653822Y-167823095D02*
X49463345Y-164489761D01*
X45653821Y-167585000D02*
X46130012Y-167823095D01*
X46130012Y-167823095D02*
X47082393Y-167823095D01*
X47082393Y-167823095D02*
X47558583Y-167585000D01*
X47558583Y-167585000D02*
X47796679Y-167108809D01*
X47796679Y-167108809D02*
X47796679Y-165204047D01*
X47796679Y-165204047D02*
X47558583Y-164727857D01*
X47558583Y-164727857D02*
X47082393Y-164489761D01*
X47082393Y-164489761D02*
X46130012Y-164489761D01*
X46130012Y-164489761D02*
X45653821Y-164727857D01*
X45653821Y-164727857D02*
X45415726Y-165204047D01*
X45415726Y-165204047D02*
X45415726Y-165680238D01*
X45415726Y-165680238D02*
X47796679Y-166156428D01*
X42558584Y-167346904D02*
X42320488Y-167585000D01*
X42320488Y-167585000D02*
X42558584Y-167823095D01*
X42558584Y-167823095D02*
X42796679Y-167585000D01*
X42796679Y-167585000D02*
X42558584Y-167346904D01*
X42558584Y-167346904D02*
X42558584Y-167823095D01*
X43510965Y-163061190D02*
X43034774Y-162823095D01*
X43034774Y-162823095D02*
X41844298Y-162823095D01*
X41844298Y-162823095D02*
X41368107Y-163061190D01*
X41368107Y-163061190D02*
X41130012Y-163537380D01*
X41130012Y-163537380D02*
X41130012Y-164013571D01*
X41130012Y-164013571D02*
X41368107Y-164489761D01*
X41368107Y-164489761D02*
X41606203Y-164727857D01*
X41606203Y-164727857D02*
X42082393Y-164965952D01*
X42082393Y-164965952D02*
X42320488Y-165204047D01*
X42320488Y-165204047D02*
X42558584Y-165680238D01*
X42558584Y-165680238D02*
X42558584Y-165918333D01*
D11*
G36*
X46020598Y-127933396D02*
G01*
X46043720Y-128029211D01*
X46057992Y-128231750D01*
X46062870Y-128535308D01*
X46061500Y-128707749D01*
X46051596Y-128958706D01*
X46032586Y-129105633D01*
X46005011Y-129142825D01*
X45989670Y-129113513D01*
X45967683Y-128986881D01*
X45952694Y-128785567D01*
X45947153Y-128535308D01*
X45949159Y-128382463D01*
X45960599Y-128158121D01*
X45980033Y-127997985D01*
X46005011Y-127927791D01*
X46020598Y-127933396D01*
G37*
G36*
X74092796Y-147019578D02*
G01*
X74334699Y-147131112D01*
X74480341Y-147303909D01*
X74528499Y-147537535D01*
X74528223Y-147570285D01*
X74513999Y-147739923D01*
X74461636Y-147856738D01*
X74348010Y-147952608D01*
X74150000Y-148059415D01*
X74104592Y-148081369D01*
X73950962Y-148142894D01*
X73789192Y-148179824D01*
X73583481Y-148198245D01*
X73298028Y-148204243D01*
X73148455Y-148203366D01*
X72807494Y-148181153D01*
X72543713Y-148124033D01*
X72330868Y-148024531D01*
X72142711Y-147875172D01*
X72074819Y-147792824D01*
X72003639Y-147643922D01*
X71976207Y-147496733D01*
X71996972Y-147384236D01*
X72070387Y-147339408D01*
X72110233Y-147333513D01*
X72157175Y-147286934D01*
X72157811Y-147282897D01*
X72220895Y-147235510D01*
X72368589Y-147176934D01*
X72574359Y-147115226D01*
X72811670Y-147058444D01*
X73053986Y-147014642D01*
X73325093Y-146982031D01*
X73755853Y-146969740D01*
X74092796Y-147019578D01*
G37*
G36*
X66685739Y-143922868D02*
G01*
X66698222Y-144211158D01*
X66702900Y-144498010D01*
X66699192Y-144754965D01*
X66686515Y-144953566D01*
X66664287Y-145065352D01*
X66614101Y-145173780D01*
X66537187Y-145339377D01*
X66448901Y-145490609D01*
X66214620Y-145749161D01*
X65901283Y-145978418D01*
X65532346Y-146159239D01*
X65438822Y-146186075D01*
X65252228Y-146215218D01*
X65040941Y-146230268D01*
X64839730Y-146230363D01*
X64683362Y-146214639D01*
X64606606Y-146182233D01*
X64551476Y-146145553D01*
X64428543Y-146124374D01*
X64343980Y-146094529D01*
X64198102Y-145997394D01*
X64024424Y-145854834D01*
X63847172Y-145689617D01*
X63690570Y-145524512D01*
X63578844Y-145382286D01*
X63536219Y-145285708D01*
X63526060Y-145215510D01*
X63478360Y-145082131D01*
X63439782Y-145005499D01*
X63362642Y-144852266D01*
X63349664Y-144812519D01*
X63326638Y-144661147D01*
X63310724Y-144442830D01*
X63304783Y-144190305D01*
X63306496Y-144056508D01*
X63317810Y-143836302D01*
X63337422Y-143677611D01*
X63361448Y-143610836D01*
X64701400Y-143610836D01*
X64740857Y-143787922D01*
X64855004Y-144050513D01*
X65043013Y-144249059D01*
X65287390Y-144354084D01*
X65296152Y-144355826D01*
X65500608Y-144384617D01*
X65653069Y-144369148D01*
X65808633Y-144304141D01*
X65962207Y-144206016D01*
X66152132Y-143997674D01*
X66245889Y-143756342D01*
X66244909Y-143499700D01*
X66150626Y-143245425D01*
X65964474Y-143011196D01*
X65687886Y-142814692D01*
X65582484Y-142763481D01*
X65492934Y-142749258D01*
X65385927Y-142781183D01*
X65219276Y-142863664D01*
X65169585Y-142890505D01*
X64952970Y-143051019D01*
X64801399Y-143262979D01*
X64761721Y-143339754D01*
X64706026Y-143481639D01*
X64701400Y-143610836D01*
X63361448Y-143610836D01*
X63362642Y-143607518D01*
X63393529Y-143571244D01*
X63420501Y-143461216D01*
X63451529Y-143330427D01*
X63537121Y-143144413D01*
X63656237Y-142946964D01*
X63787760Y-142777399D01*
X63880711Y-142691593D01*
X64083064Y-142557542D01*
X64300270Y-142459457D01*
X64485169Y-142421413D01*
X64584844Y-142408070D01*
X64664465Y-142363554D01*
X64699115Y-142339351D01*
X64831248Y-142313376D01*
X65027049Y-142307381D01*
X65254687Y-142320273D01*
X65482332Y-142350959D01*
X65678154Y-142398348D01*
X65726602Y-142415361D01*
X65974267Y-142549423D01*
X66209755Y-142768911D01*
X66250890Y-142814976D01*
X66409228Y-142994783D01*
X66509856Y-143118947D01*
X66569262Y-143212534D01*
X66603939Y-143300609D01*
X66630378Y-143408239D01*
X66639689Y-143455810D01*
X66666034Y-143661599D01*
X66673180Y-143756342D01*
X66685739Y-143922868D01*
G37*
G36*
X81056506Y-143925571D02*
G01*
X81106560Y-144199853D01*
X81127881Y-144437323D01*
X81116244Y-144614233D01*
X81067426Y-144706834D01*
X81056280Y-144718012D01*
X81022972Y-144817073D01*
X81009567Y-144971398D01*
X80958627Y-145269983D01*
X80803103Y-145522711D01*
X80794607Y-145532171D01*
X80709437Y-145630092D01*
X80599342Y-145759589D01*
X80580677Y-145781273D01*
X80464401Y-145899097D01*
X80371865Y-145968100D01*
X80329575Y-145988543D01*
X80199544Y-146057023D01*
X80131179Y-146095378D01*
X79997039Y-146169706D01*
X79969853Y-146180878D01*
X79837191Y-146207120D01*
X79645006Y-146225192D01*
X79422432Y-146234786D01*
X79198603Y-146235595D01*
X79002654Y-146227311D01*
X78863720Y-146209626D01*
X78810934Y-146182233D01*
X78799728Y-146154452D01*
X78720285Y-146124374D01*
X78636889Y-146104555D01*
X78476284Y-146004047D01*
X78298188Y-145840649D01*
X78123423Y-145639267D01*
X77972811Y-145424807D01*
X77867174Y-145222175D01*
X77827335Y-145056278D01*
X77814397Y-144960231D01*
X77769476Y-144880410D01*
X77752524Y-144844874D01*
X77731252Y-144710834D01*
X77716890Y-144501350D01*
X77711617Y-144240549D01*
X77713131Y-144085468D01*
X77723661Y-143846540D01*
X77742946Y-143691602D01*
X77750037Y-143676860D01*
X79044197Y-143676860D01*
X79044647Y-143768009D01*
X79058909Y-143952697D01*
X79100972Y-144078401D01*
X79181909Y-144186062D01*
X79235984Y-144238797D01*
X79341452Y-144303719D01*
X79489668Y-144341787D01*
X79717103Y-144365209D01*
X79994623Y-144364505D01*
X80228010Y-144315806D01*
X80377979Y-144222336D01*
X80430979Y-144089331D01*
X80438181Y-144037241D01*
X80488838Y-143954670D01*
X80499217Y-143944611D01*
X80533050Y-143847220D01*
X80546697Y-143694306D01*
X80545758Y-143653437D01*
X80526057Y-143509921D01*
X80488838Y-143433941D01*
X80459460Y-143401225D01*
X80430979Y-143293769D01*
X80429869Y-143280074D01*
X80379853Y-143164812D01*
X80278443Y-143036820D01*
X80181894Y-142955120D01*
X80043346Y-142898934D01*
X79843717Y-142884283D01*
X79588371Y-142907900D01*
X79376442Y-142997438D01*
X79178332Y-143173577D01*
X79158612Y-143196007D01*
X79088863Y-143308109D01*
X79054281Y-143455052D01*
X79044197Y-143676860D01*
X77750037Y-143676860D01*
X77769476Y-143636447D01*
X77807626Y-143600125D01*
X77827335Y-143491015D01*
X77839321Y-143387354D01*
X77935621Y-143153066D01*
X78111626Y-142917055D01*
X78347148Y-142703562D01*
X78621998Y-142536827D01*
X78825559Y-142472715D01*
X79118431Y-142430780D01*
X79444851Y-142419469D01*
X79763729Y-142440036D01*
X80033975Y-142493736D01*
X80159511Y-142545006D01*
X80403900Y-142704011D01*
X80627698Y-142915752D01*
X80789597Y-143144647D01*
X80887089Y-143361561D01*
X80981941Y-143638224D01*
X80996494Y-143694306D01*
X81056506Y-143925571D01*
G37*
G36*
X61409395Y-147950979D02*
G01*
X61655210Y-147965021D01*
X61835490Y-147987906D01*
X61925318Y-148019715D01*
X61993296Y-148061983D01*
X62130674Y-148091572D01*
X62180089Y-148098691D01*
X62324243Y-148145469D01*
X62503251Y-148221415D01*
X62681187Y-148309422D01*
X62822121Y-148392382D01*
X62890129Y-148453190D01*
X62895383Y-148462122D01*
X62969259Y-148496584D01*
X62972910Y-148496873D01*
X63051608Y-148543389D01*
X63172595Y-148649815D01*
X63308098Y-148787973D01*
X63430341Y-148929683D01*
X63511550Y-149046766D01*
X63544310Y-149107660D01*
X63697115Y-149400935D01*
X63805008Y-149638328D01*
X63877625Y-149854148D01*
X63924602Y-150082708D01*
X63955578Y-150358317D01*
X63980189Y-150715287D01*
X63989899Y-150982996D01*
X63979745Y-151191347D01*
X63947196Y-151290982D01*
X63909429Y-151354721D01*
X63883371Y-151487882D01*
X63870325Y-151571820D01*
X63825512Y-151620957D01*
X63797510Y-151632452D01*
X63767654Y-151712374D01*
X63760733Y-151741013D01*
X63689262Y-151853480D01*
X63558979Y-152005295D01*
X63393111Y-152173662D01*
X63214882Y-152335783D01*
X63047515Y-152468862D01*
X62914237Y-152550099D01*
X62890381Y-152560944D01*
X62773688Y-152626674D01*
X62726196Y-152676539D01*
X62720126Y-152693627D01*
X62650275Y-152720274D01*
X62621651Y-152724372D01*
X62498199Y-152764734D01*
X62338404Y-152834273D01*
X62299845Y-152852179D01*
X62076250Y-152939237D01*
X61860161Y-153002711D01*
X61799698Y-153017105D01*
X61656997Y-153058450D01*
X61583802Y-153091218D01*
X61526246Y-153114153D01*
X61378328Y-153123645D01*
X61186491Y-153109148D01*
X60990433Y-153071952D01*
X60901702Y-153052308D01*
X60688678Y-153017472D01*
X60463247Y-152991808D01*
X60332065Y-152976712D01*
X60142974Y-152941123D01*
X60018646Y-152900172D01*
X59919725Y-152862293D01*
X59753688Y-152835991D01*
X59652428Y-152822475D01*
X59572893Y-152778133D01*
X59532827Y-152745816D01*
X59420104Y-152720274D01*
X59374736Y-152709843D01*
X59238990Y-152640848D01*
X59062499Y-152524275D01*
X58874418Y-152380144D01*
X58703903Y-152228474D01*
X58672704Y-152195786D01*
X58562734Y-152060472D01*
X58441007Y-151890437D01*
X58328316Y-151717124D01*
X58245453Y-151571976D01*
X58213212Y-151486438D01*
X58207453Y-151443816D01*
X58155353Y-151360593D01*
X58119334Y-151308173D01*
X58097494Y-151187016D01*
X58084833Y-151093396D01*
X58039635Y-151013440D01*
X58019301Y-150961687D01*
X57999584Y-150810717D01*
X57986511Y-150582551D01*
X57981777Y-150298151D01*
X57981916Y-150199838D01*
X57985825Y-149927646D01*
X57998684Y-149732147D01*
X58025251Y-149583163D01*
X58070285Y-149450516D01*
X58138545Y-149304027D01*
X58180826Y-149226104D01*
X58313578Y-149026703D01*
X58472148Y-148830341D01*
X58634649Y-148660727D01*
X58779194Y-148541571D01*
X58883898Y-148496584D01*
X58918689Y-148492370D01*
X58965376Y-148452849D01*
X58969982Y-148441978D01*
X59050345Y-148386125D01*
X59214887Y-148308114D01*
X59442920Y-148216425D01*
X59713761Y-148119538D01*
X60006723Y-148025933D01*
X60069325Y-148010588D01*
X60269087Y-147981626D01*
X60527890Y-147961103D01*
X60820819Y-147949101D01*
X61122959Y-147945699D01*
X61409395Y-147950979D01*
G37*
G36*
X75338943Y-153683283D02*
G01*
X75216626Y-153948988D01*
X75190626Y-154010877D01*
X75165831Y-154123196D01*
X75151545Y-154166777D01*
X75078553Y-154283891D01*
X74964436Y-154427740D01*
X74887752Y-154518171D01*
X74797552Y-154633781D01*
X74761930Y-154693553D01*
X74760557Y-154698141D01*
X74701243Y-154756640D01*
X74573840Y-154853450D01*
X74405276Y-154970402D01*
X74222475Y-155089326D01*
X74052364Y-155192054D01*
X73921868Y-155260416D01*
X73772705Y-155328440D01*
X73647824Y-155388528D01*
X73636148Y-155393868D01*
X73501720Y-155426652D01*
X73329600Y-155440522D01*
X73303724Y-155441004D01*
X73138637Y-155459892D01*
X73025057Y-155497495D01*
X72979944Y-155510695D01*
X72832377Y-155527383D01*
X72608316Y-155540068D01*
X72329108Y-155548752D01*
X72016105Y-155553435D01*
X71690654Y-155554115D01*
X71374106Y-155550795D01*
X71087808Y-155543472D01*
X70853112Y-155532148D01*
X70691365Y-155516822D01*
X70623918Y-155497495D01*
X70551616Y-155457471D01*
X70417998Y-155439636D01*
X70298034Y-155422712D01*
X70247836Y-155381777D01*
X70237212Y-155354459D01*
X70158757Y-155323918D01*
X70146288Y-155323313D01*
X70010660Y-155262421D01*
X69854433Y-155117964D01*
X69693809Y-154913055D01*
X69544991Y-154670807D01*
X69424180Y-154414332D01*
X69347578Y-154166743D01*
X69344810Y-154153022D01*
X69314768Y-153912052D01*
X69301452Y-153607206D01*
X69302612Y-153415389D01*
X69830848Y-153415389D01*
X69843356Y-153701254D01*
X69873234Y-153949829D01*
X69917894Y-154135104D01*
X69974746Y-154231071D01*
X69986908Y-154240593D01*
X70021343Y-154303394D01*
X70016401Y-154385953D01*
X70016791Y-154389893D01*
X70073194Y-154455859D01*
X70203965Y-154547209D01*
X70378686Y-154647620D01*
X70566940Y-154740766D01*
X70738308Y-154810324D01*
X70862372Y-154839968D01*
X71015947Y-154860274D01*
X71125754Y-154897343D01*
X71193101Y-154922114D01*
X71350597Y-154956011D01*
X71549658Y-154984429D01*
X71882392Y-155020027D01*
X72171000Y-155046191D01*
X72389064Y-155057842D01*
X72560011Y-155055447D01*
X72707270Y-155039472D01*
X72854269Y-155010382D01*
X72858158Y-155009484D01*
X73068598Y-154946477D01*
X73310882Y-154852370D01*
X73561636Y-154739092D01*
X73797484Y-154618573D01*
X73995050Y-154502743D01*
X74130959Y-154403530D01*
X74181837Y-154332864D01*
X74209771Y-154268484D01*
X74282667Y-154134589D01*
X74384738Y-153960186D01*
X74433835Y-153876227D01*
X74544940Y-153640809D01*
X74576100Y-153450779D01*
X74527847Y-153277220D01*
X74400714Y-153091214D01*
X74367009Y-153050951D01*
X74133250Y-152793656D01*
X73854525Y-152514494D01*
X73560513Y-152241223D01*
X73280891Y-152001606D01*
X73045337Y-151823402D01*
X73035643Y-151816814D01*
X72865397Y-151699035D01*
X72737114Y-151606547D01*
X72677904Y-151558871D01*
X72638409Y-151528309D01*
X72521303Y-151452637D01*
X72359681Y-151355584D01*
X72328753Y-151337716D01*
X72172932Y-151257667D01*
X72030453Y-151213741D01*
X71858410Y-151196871D01*
X71613898Y-151197993D01*
X71563926Y-151199548D01*
X71346820Y-151214823D01*
X71179953Y-151239936D01*
X71096062Y-151270316D01*
X71050791Y-151300987D01*
X70926437Y-151331663D01*
X70864115Y-151340859D01*
X70742298Y-151403987D01*
X70707802Y-151435335D01*
X70589968Y-151536463D01*
X70442673Y-151658387D01*
X70322147Y-151769555D01*
X70095844Y-152084434D01*
X69939153Y-152485354D01*
X69849951Y-152977037D01*
X69838297Y-153118244D01*
X69830848Y-153415389D01*
X69302612Y-153415389D01*
X69303502Y-153268364D01*
X69319564Y-152925405D01*
X69348279Y-152608208D01*
X69388291Y-152346652D01*
X69438242Y-152170615D01*
X69463453Y-152113406D01*
X69532427Y-151956472D01*
X69613629Y-151771391D01*
X69715887Y-151584855D01*
X69924480Y-151316857D01*
X70173205Y-151082479D01*
X70425271Y-150920299D01*
X70511019Y-150880322D01*
X70724132Y-150785607D01*
X70884786Y-150726433D01*
X71031429Y-150690121D01*
X71202506Y-150663993D01*
X71289598Y-150655170D01*
X71505253Y-150640049D01*
X71792704Y-150624711D01*
X72125052Y-150610533D01*
X72475399Y-150598890D01*
X72933379Y-150590805D01*
X73320838Y-150597472D01*
X73635088Y-150622232D01*
X73897502Y-150667734D01*
X74129455Y-150736629D01*
X74352321Y-150831566D01*
X74419283Y-150866696D01*
X74625987Y-151004074D01*
X74827264Y-151173335D01*
X74999844Y-151351327D01*
X75120456Y-151514901D01*
X75165831Y-151640905D01*
X75167971Y-151668165D01*
X75204225Y-151755782D01*
X75261377Y-151840729D01*
X75336321Y-152039562D01*
X75397959Y-152303050D01*
X75439742Y-152601228D01*
X75455125Y-152904131D01*
X75446746Y-153197497D01*
X75411841Y-153449471D01*
X75411433Y-153450779D01*
X75338943Y-153683283D01*
G37*
G36*
X94240432Y-127567289D02*
G01*
X94148207Y-127741306D01*
X94037456Y-127956720D01*
X93984234Y-128060828D01*
X93862225Y-128294149D01*
X93754885Y-128492710D01*
X93680667Y-128622096D01*
X93674204Y-128632723D01*
X93601454Y-128779895D01*
X93569149Y-128896925D01*
X93560419Y-128950165D01*
X93521526Y-128998630D01*
X93475233Y-129037558D01*
X93411434Y-129145532D01*
X93356710Y-129277001D01*
X93333485Y-129385795D01*
X93328893Y-129415095D01*
X93275626Y-129461048D01*
X93261092Y-129462946D01*
X93217768Y-129520057D01*
X93211205Y-129547990D01*
X93159483Y-129659645D01*
X93073121Y-129808201D01*
X93031656Y-129877386D01*
X92957747Y-130024098D01*
X92928474Y-130120453D01*
X92924632Y-130156256D01*
X92885080Y-130222855D01*
X92833971Y-130279476D01*
X92742046Y-130429053D01*
X92607969Y-130675507D01*
X92429237Y-131023235D01*
X92352563Y-131171353D01*
X92277897Y-131306988D01*
X92236895Y-131370388D01*
X92235090Y-131372111D01*
X92175045Y-131457244D01*
X92076049Y-131626831D01*
X91949065Y-131862143D01*
X91942560Y-131874486D01*
X91873520Y-131997913D01*
X91829157Y-132064649D01*
X91817024Y-132080742D01*
X91755677Y-132181943D01*
X91660891Y-132350393D01*
X91546714Y-132560815D01*
X91427196Y-132787928D01*
X91420714Y-132800290D01*
X91347878Y-132920667D01*
X91293963Y-132980790D01*
X91276491Y-132995534D01*
X91250569Y-133082043D01*
X91244840Y-133117501D01*
X91192711Y-133164010D01*
X91166094Y-133173801D01*
X91134852Y-133250798D01*
X91129116Y-133290624D01*
X91083741Y-133337586D01*
X91050109Y-133353677D01*
X90994432Y-133438839D01*
X90989492Y-133451771D01*
X90911427Y-133624370D01*
X90833153Y-133751156D01*
X90773979Y-133800456D01*
X90761169Y-133803200D01*
X90729840Y-133863961D01*
X90707669Y-133914879D01*
X90630226Y-134049587D01*
X90507148Y-134249091D01*
X90348843Y-134496579D01*
X90165717Y-134775236D01*
X90009128Y-135011460D01*
X89842919Y-135264406D01*
X89708494Y-135471458D01*
X89616718Y-135615863D01*
X89578454Y-135680866D01*
X89573974Y-135691151D01*
X89518686Y-135767654D01*
X89469739Y-135824832D01*
X89374336Y-135949772D01*
X89253719Y-136114807D01*
X89134633Y-136278173D01*
X89028845Y-136418302D01*
X88966334Y-136495063D01*
X88947721Y-136516421D01*
X88864969Y-136624572D01*
X88762642Y-136769497D01*
X88720871Y-136828348D01*
X88630571Y-136938436D01*
X88574601Y-136982293D01*
X88555968Y-136990453D01*
X88531207Y-137064655D01*
X88527513Y-137099300D01*
X88487813Y-137165908D01*
X88439644Y-137209481D01*
X88339440Y-137321060D01*
X88212984Y-137473514D01*
X88084785Y-137630316D01*
X87912470Y-137831904D01*
X87716931Y-138049939D01*
X87486178Y-138297221D01*
X87208224Y-138586555D01*
X86871080Y-138930742D01*
X86462756Y-139342586D01*
X86162076Y-139648810D01*
X85888660Y-139937855D01*
X85688100Y-140163454D01*
X85564647Y-140320804D01*
X85522551Y-140405101D01*
X85543096Y-140523552D01*
X85602291Y-140676722D01*
X85673823Y-140823606D01*
X85753688Y-141003873D01*
X85817565Y-141152076D01*
X85876454Y-141277917D01*
X85902009Y-141340068D01*
X85927563Y-141466743D01*
X85934638Y-141524791D01*
X85979536Y-141655569D01*
X86115483Y-141926199D01*
X86230616Y-142172926D01*
X86305716Y-142355891D01*
X86332574Y-142456467D01*
X86339627Y-142511887D01*
X86383682Y-142639168D01*
X86462814Y-142808006D01*
X86630017Y-143260365D01*
X86644908Y-143304680D01*
X86713262Y-143470368D01*
X86778488Y-143583144D01*
X86819380Y-143653636D01*
X86853303Y-143800114D01*
X86865440Y-143876876D01*
X86911162Y-143925741D01*
X86951952Y-143975513D01*
X86969020Y-144095902D01*
X86985194Y-144223607D01*
X87026879Y-144301823D01*
X87061401Y-144347561D01*
X87086578Y-144464349D01*
X87104154Y-144560981D01*
X87173366Y-144703428D01*
X87223447Y-144794837D01*
X87258314Y-144945913D01*
X87270020Y-145031422D01*
X87316173Y-145111846D01*
X87352699Y-145166327D01*
X87374032Y-145288836D01*
X87388019Y-145380661D01*
X87431891Y-145430069D01*
X87472681Y-145479841D01*
X87489749Y-145600230D01*
X87505923Y-145727935D01*
X87547608Y-145806151D01*
X87587632Y-145878452D01*
X87605467Y-146012071D01*
X87621349Y-146132019D01*
X87659780Y-146182233D01*
X87678086Y-146194558D01*
X87719245Y-146288057D01*
X87753245Y-146443309D01*
X87766626Y-146519492D01*
X87804877Y-146664163D01*
X87843578Y-146736017D01*
X87848261Y-146739743D01*
X87881252Y-146823980D01*
X87894761Y-146966741D01*
X87895128Y-146990326D01*
X87912243Y-147115013D01*
X87947035Y-147165832D01*
X87966228Y-147181491D01*
X88002929Y-147280559D01*
X88031581Y-147440661D01*
X88049111Y-147586929D01*
X88089236Y-147890198D01*
X88124243Y-148098745D01*
X88156900Y-148227448D01*
X88189981Y-148291185D01*
X88226532Y-148382817D01*
X88241913Y-148527889D01*
X88245724Y-148593800D01*
X88276503Y-148787255D01*
X88328075Y-148993652D01*
X88370377Y-149189245D01*
X88402389Y-149451445D01*
X88414863Y-149714511D01*
X88415080Y-149747237D01*
X88425101Y-149961869D01*
X88447027Y-150128194D01*
X88476677Y-150212532D01*
X88483376Y-150221817D01*
X88508262Y-150330987D01*
X88520123Y-150529528D01*
X88520323Y-150796284D01*
X88510229Y-151110098D01*
X88491205Y-151449811D01*
X88464616Y-151794267D01*
X88431830Y-152122308D01*
X88394210Y-152412776D01*
X88353122Y-152644514D01*
X88309931Y-152796364D01*
X88262818Y-152964910D01*
X88241913Y-153157981D01*
X88241514Y-153181321D01*
X88222584Y-153305926D01*
X88184055Y-153356720D01*
X88176461Y-153358469D01*
X88140728Y-153425376D01*
X88126196Y-153559226D01*
X88125696Y-153585802D01*
X88106580Y-153710869D01*
X88068337Y-153761732D01*
X88027547Y-153811504D01*
X88010478Y-153931893D01*
X87994305Y-154059598D01*
X87952619Y-154137814D01*
X87922039Y-154173330D01*
X87894761Y-154282814D01*
X87885291Y-154339403D01*
X87832954Y-154488474D01*
X87750114Y-154664098D01*
X87697095Y-154769283D01*
X87631208Y-154921524D01*
X87605467Y-155014313D01*
X87600378Y-155046279D01*
X87547608Y-155092483D01*
X87521981Y-155101199D01*
X87489749Y-155176210D01*
X87489156Y-155184493D01*
X87455742Y-155289621D01*
X87385492Y-155448048D01*
X87298538Y-155619704D01*
X87215011Y-155764519D01*
X87155043Y-155842423D01*
X87152588Y-155844432D01*
X87097867Y-155919239D01*
X87026879Y-156047153D01*
X87021408Y-156058059D01*
X86954589Y-156182397D01*
X86910557Y-156249659D01*
X86892562Y-156269079D01*
X86805277Y-156377436D01*
X86678125Y-156545326D01*
X86529395Y-156747451D01*
X86377375Y-156958515D01*
X86240352Y-157153221D01*
X86136615Y-157306271D01*
X86084451Y-157392369D01*
X86034502Y-157476189D01*
X85976134Y-157522552D01*
X85944574Y-157556647D01*
X85927563Y-157663784D01*
X85914491Y-157761021D01*
X85869704Y-157840775D01*
X85829680Y-157913077D01*
X85811845Y-158046695D01*
X85798671Y-158166607D01*
X85766760Y-158216857D01*
X85755307Y-158227412D01*
X85722490Y-158321223D01*
X85684541Y-158488395D01*
X85646408Y-158699892D01*
X85613042Y-158926680D01*
X85589393Y-159139723D01*
X85580410Y-159309984D01*
X85585140Y-159418264D01*
X85607460Y-159625114D01*
X85642588Y-159853442D01*
X85684373Y-160069099D01*
X85726667Y-160237938D01*
X85763322Y-160325809D01*
X85795397Y-160401982D01*
X85811845Y-160539365D01*
X85826852Y-160654917D01*
X85869704Y-160733713D01*
X85880968Y-160745070D01*
X85914195Y-160844393D01*
X85927563Y-160998939D01*
X85927502Y-161019803D01*
X85915848Y-161160465D01*
X85866152Y-161228726D01*
X85752782Y-161263362D01*
X85620823Y-161302591D01*
X85546862Y-161348704D01*
X85511722Y-161376116D01*
X85403419Y-161399089D01*
X85339405Y-161409790D01*
X85291116Y-161458682D01*
X85277664Y-161468892D01*
X85169625Y-161484676D01*
X84952134Y-161494326D01*
X84623664Y-161497869D01*
X84182687Y-161495330D01*
X83627676Y-161486735D01*
X83559288Y-161485576D01*
X83312318Y-161482380D01*
X82958619Y-161478723D01*
X82504580Y-161474640D01*
X81956592Y-161470166D01*
X81321045Y-161465337D01*
X80604330Y-161460187D01*
X79812836Y-161454753D01*
X78952955Y-161449070D01*
X78031076Y-161443172D01*
X77053590Y-161437096D01*
X76026888Y-161430876D01*
X74957358Y-161424547D01*
X73851392Y-161418146D01*
X72715380Y-161411707D01*
X71555713Y-161405265D01*
X70378780Y-161398856D01*
X69190972Y-161392515D01*
X67998679Y-161386278D01*
X66808292Y-161380179D01*
X65626200Y-161374255D01*
X64458795Y-161368539D01*
X63312466Y-161363068D01*
X62193604Y-161357877D01*
X61108599Y-161353001D01*
X60063842Y-161348476D01*
X59065722Y-161344336D01*
X58120630Y-161340617D01*
X57234957Y-161337355D01*
X56415092Y-161334584D01*
X55667426Y-161332340D01*
X55198136Y-161331706D01*
X54664433Y-161332655D01*
X54169556Y-161335305D01*
X53726319Y-161339497D01*
X53347538Y-161345073D01*
X53046028Y-161351877D01*
X52834602Y-161359751D01*
X52726077Y-161368536D01*
X52523408Y-161384542D01*
X52410747Y-161347786D01*
X52377171Y-161321281D01*
X52266983Y-161283372D01*
X52174728Y-161254011D01*
X52068392Y-161152993D01*
X52022323Y-161027140D01*
X52014672Y-160983309D01*
X51960958Y-160936219D01*
X51945961Y-160918351D01*
X51928841Y-160809597D01*
X51920960Y-160598385D01*
X51922204Y-160280411D01*
X51932461Y-159851367D01*
X51942282Y-159530373D01*
X51961642Y-158921619D01*
X51979011Y-158416158D01*
X51994843Y-158005531D01*
X52009597Y-157681282D01*
X52023728Y-157434953D01*
X52037692Y-157258085D01*
X52051947Y-157142223D01*
X52066949Y-157078907D01*
X52083155Y-157059682D01*
X52090922Y-157055028D01*
X52114935Y-156973616D01*
X52131723Y-156811753D01*
X52138041Y-156596811D01*
X52138234Y-156555404D01*
X52147111Y-156335868D01*
X52167247Y-156188075D01*
X52195900Y-156133941D01*
X52215934Y-156116395D01*
X52243106Y-156014407D01*
X52253758Y-155851713D01*
X52256267Y-155778425D01*
X52286681Y-155552029D01*
X52340547Y-155361772D01*
X52345508Y-155349566D01*
X52403465Y-155147230D01*
X52427335Y-154949695D01*
X52427887Y-154921516D01*
X52447090Y-154796226D01*
X52485194Y-154745331D01*
X52502019Y-154734183D01*
X52531417Y-154642468D01*
X52543052Y-154488381D01*
X52545230Y-154417316D01*
X52565758Y-154270615D01*
X52600911Y-154195672D01*
X52606195Y-154191574D01*
X52643497Y-154104430D01*
X52658770Y-153960038D01*
X52658792Y-153953970D01*
X52673869Y-153786377D01*
X52708474Y-153659694D01*
X52739271Y-153591177D01*
X52811520Y-153393278D01*
X52878889Y-153168463D01*
X52928648Y-152961505D01*
X52948064Y-152817176D01*
X52961910Y-152712857D01*
X53005922Y-152633486D01*
X53016926Y-152622519D01*
X53050332Y-152523769D01*
X53063781Y-152369707D01*
X53065127Y-152320851D01*
X53085187Y-152192965D01*
X53121640Y-152141686D01*
X53138931Y-152129739D01*
X53168007Y-152036597D01*
X53179499Y-151881322D01*
X53182154Y-151803512D01*
X53202852Y-151672671D01*
X53237358Y-151620957D01*
X53245731Y-151618787D01*
X53280933Y-151550001D01*
X53295216Y-151414648D01*
X53295257Y-151407454D01*
X53315970Y-151228028D01*
X53363205Y-151081960D01*
X53373725Y-151061395D01*
X53451297Y-150846802D01*
X53518270Y-150554447D01*
X53566742Y-150217882D01*
X53579303Y-150126781D01*
X53612032Y-149994891D01*
X53647953Y-149943053D01*
X53659143Y-149937758D01*
X53688469Y-149858708D01*
X53700228Y-149715032D01*
X53701285Y-149671013D01*
X53721103Y-149527115D01*
X53758086Y-149451253D01*
X53761623Y-149448709D01*
X53800106Y-149364784D01*
X53815945Y-149223017D01*
X53839232Y-149047275D01*
X53902377Y-148864815D01*
X53906226Y-148857221D01*
X53964791Y-148678384D01*
X53989165Y-148482119D01*
X53990178Y-148442998D01*
X54010098Y-148316261D01*
X54047380Y-148265149D01*
X54060350Y-148259247D01*
X54092407Y-148178639D01*
X54105239Y-148033713D01*
X54106714Y-147981835D01*
X54126867Y-147853608D01*
X54163098Y-147802278D01*
X54183939Y-147782755D01*
X54210549Y-147678010D01*
X54220957Y-147512984D01*
X54224861Y-147408776D01*
X54245810Y-147275727D01*
X54278815Y-147223691D01*
X54280491Y-147223617D01*
X54320229Y-147169939D01*
X54336674Y-147046521D01*
X54339076Y-146998925D01*
X54370811Y-146803945D01*
X54429063Y-146567741D01*
X54500624Y-146339537D01*
X54572285Y-146168553D01*
X54574730Y-146163768D01*
X54611000Y-146033282D01*
X54625968Y-145864795D01*
X54626490Y-145837542D01*
X54645643Y-145712380D01*
X54683827Y-145661504D01*
X54701118Y-145649557D01*
X54730194Y-145556415D01*
X54741686Y-145401139D01*
X54744340Y-145323329D01*
X54765039Y-145192488D01*
X54799544Y-145140775D01*
X54829098Y-145127054D01*
X54857403Y-145043630D01*
X54863877Y-144975451D01*
X54907449Y-144789315D01*
X54979623Y-144571457D01*
X55065697Y-144369457D01*
X55121480Y-144225941D01*
X55146697Y-144094628D01*
X55156904Y-144031847D01*
X55204556Y-143983600D01*
X55205276Y-143983586D01*
X55245655Y-143931897D01*
X55262414Y-143810023D01*
X55262419Y-143807864D01*
X55279649Y-143686724D01*
X55320273Y-143636447D01*
X55352111Y-143618700D01*
X55378132Y-143529619D01*
X55378149Y-143527036D01*
X55409229Y-143391008D01*
X55503450Y-143190411D01*
X55666441Y-142913212D01*
X55673215Y-142902166D01*
X55746433Y-142755201D01*
X55778915Y-142638383D01*
X55789868Y-142585074D01*
X55841002Y-142537130D01*
X55874631Y-142515431D01*
X55898861Y-142421413D01*
X55909710Y-142354155D01*
X55956720Y-142305695D01*
X55971254Y-142303798D01*
X56014578Y-142246687D01*
X56021141Y-142218754D01*
X56072864Y-142107099D01*
X56159225Y-141958543D01*
X56254626Y-141781728D01*
X56302007Y-141574763D01*
X56248079Y-141397360D01*
X56091132Y-141231248D01*
X56028921Y-141181297D01*
X55897241Y-141073028D01*
X55816303Y-141002861D01*
X55745763Y-140945724D01*
X55607910Y-140842726D01*
X55435991Y-140719092D01*
X55275279Y-140600814D01*
X55152500Y-140501344D01*
X55098481Y-140445274D01*
X55094198Y-140436670D01*
X55022025Y-140396356D01*
X54983580Y-140386686D01*
X54890240Y-140324032D01*
X54857624Y-140294435D01*
X54739863Y-140196000D01*
X54591245Y-140078133D01*
X54495690Y-140002264D01*
X54297145Y-139837688D01*
X54106956Y-139673121D01*
X53989482Y-139568622D01*
X53858109Y-139452040D01*
X53780839Y-139383827D01*
X53774679Y-139378308D01*
X53698603Y-139306345D01*
X53563581Y-139176079D01*
X53385381Y-139002952D01*
X53179771Y-138802405D01*
X52962518Y-138589880D01*
X52749389Y-138380818D01*
X52556153Y-138190661D01*
X52398577Y-138034850D01*
X52292427Y-137928828D01*
X52253472Y-137888035D01*
X52251966Y-137885828D01*
X52200608Y-137828838D01*
X52087069Y-137707018D01*
X51926173Y-137536189D01*
X51732743Y-137332177D01*
X51696785Y-137294246D01*
X51507330Y-137090320D01*
X51353428Y-136917937D01*
X51250083Y-136794270D01*
X51212301Y-136736494D01*
X51212228Y-136734795D01*
X51172602Y-136661216D01*
X51082118Y-136555027D01*
X51030933Y-136502226D01*
X50859125Y-136318254D01*
X50713881Y-136153071D01*
X50613393Y-136027915D01*
X50575854Y-135964024D01*
X50551719Y-135918361D01*
X50470489Y-135832300D01*
X50462351Y-135824822D01*
X50358559Y-135703974D01*
X50255508Y-135550684D01*
X50236757Y-135519589D01*
X50156281Y-135407830D01*
X50100509Y-135362643D01*
X50080983Y-135354619D01*
X50055125Y-135280676D01*
X50051308Y-135246007D01*
X50010353Y-135179423D01*
X49986474Y-135160723D01*
X49902262Y-135069001D01*
X49785312Y-134927080D01*
X49657051Y-134762726D01*
X49538907Y-134603705D01*
X49452307Y-134477783D01*
X49418679Y-134412725D01*
X49409061Y-134381584D01*
X49355505Y-134296268D01*
X49246052Y-134151383D01*
X49070654Y-133933080D01*
X49046975Y-133898558D01*
X49013667Y-133802898D01*
X49011601Y-133786953D01*
X48955809Y-133742597D01*
X48941220Y-133740682D01*
X48897950Y-133683498D01*
X48869575Y-133611233D01*
X48798365Y-133479974D01*
X48706681Y-133327209D01*
X48616885Y-133190185D01*
X48551339Y-133106151D01*
X48515042Y-133056406D01*
X48449544Y-132947039D01*
X48394191Y-132847402D01*
X48304897Y-132686675D01*
X48250135Y-132595804D01*
X48198490Y-132527563D01*
X48168731Y-132491432D01*
X48086488Y-132372402D01*
X47970325Y-132194437D01*
X47834076Y-131979828D01*
X47691576Y-131750869D01*
X47556660Y-131529852D01*
X47443163Y-131339072D01*
X47364919Y-131200819D01*
X47335763Y-131137389D01*
X47334530Y-131125107D01*
X47284652Y-131081094D01*
X47252420Y-131065372D01*
X47201580Y-130979841D01*
X47165505Y-130891671D01*
X47088444Y-130741430D01*
X46997078Y-130584158D01*
X46913156Y-130456833D01*
X46858428Y-130396432D01*
X46840956Y-130381687D01*
X46815034Y-130295179D01*
X46809305Y-130259721D01*
X46757175Y-130213212D01*
X46731215Y-130204147D01*
X46699317Y-130128477D01*
X46687670Y-130075276D01*
X46631832Y-129937055D01*
X46545411Y-129766860D01*
X46427554Y-129550985D01*
X46309389Y-129315936D01*
X46231911Y-129125894D01*
X46196445Y-128998178D01*
X50793830Y-128998178D01*
X50829764Y-129562301D01*
X50835359Y-129645589D01*
X50861488Y-129974116D01*
X50893193Y-130309008D01*
X50924832Y-130589294D01*
X50926059Y-130598909D01*
X50959939Y-130873291D01*
X50992352Y-131149949D01*
X51016437Y-131370388D01*
X51033395Y-131499448D01*
X51066772Y-131658771D01*
X51101674Y-131743577D01*
X51134787Y-131810188D01*
X51154442Y-131942663D01*
X51158093Y-131984507D01*
X51188929Y-132141467D01*
X51243346Y-132359611D01*
X51311840Y-132605622D01*
X51384907Y-132846183D01*
X51453043Y-133047978D01*
X51506744Y-133177689D01*
X51536618Y-133258367D01*
X51559453Y-133412017D01*
X51568712Y-133503200D01*
X51605639Y-133600843D01*
X51634500Y-133652583D01*
X51692662Y-133791332D01*
X51758368Y-133974032D01*
X51807088Y-134111051D01*
X51870098Y-134265212D01*
X51914688Y-134347221D01*
X51944390Y-134406486D01*
X51964465Y-134535262D01*
X51977511Y-134619201D01*
X52022323Y-134668338D01*
X52045116Y-134674512D01*
X52080182Y-134744258D01*
X52084669Y-134774445D01*
X52125777Y-134898919D01*
X52195900Y-135059686D01*
X52227380Y-135127965D01*
X52287676Y-135282041D01*
X52311617Y-135381693D01*
X52324807Y-135436224D01*
X52398405Y-135536219D01*
X52444375Y-135586551D01*
X52485194Y-135687951D01*
X52490060Y-135721239D01*
X52538125Y-135767654D01*
X52591187Y-135805640D01*
X52690374Y-135915259D01*
X52811045Y-136071413D01*
X52920456Y-136220622D01*
X53014769Y-136345389D01*
X53062938Y-136404101D01*
X53072310Y-136413885D01*
X53141853Y-136494253D01*
X53258854Y-136633621D01*
X53404044Y-136809112D01*
X53613151Y-137054587D01*
X53982332Y-137457364D01*
X54382910Y-137864207D01*
X54789860Y-138250820D01*
X55178157Y-138592908D01*
X55522779Y-138866175D01*
X55602344Y-138925167D01*
X55723045Y-139017453D01*
X55783143Y-139067526D01*
X55787517Y-139072089D01*
X55876224Y-139147892D01*
X56028434Y-139265866D01*
X56215253Y-139404823D01*
X56407786Y-139543577D01*
X56577140Y-139660940D01*
X56694419Y-139735726D01*
X56724750Y-139753578D01*
X56837031Y-139832754D01*
X56882460Y-139888102D01*
X56884288Y-139899288D01*
X56941559Y-139933486D01*
X56967423Y-139939512D01*
X57076490Y-139991621D01*
X57221739Y-140079790D01*
X57482260Y-140232332D01*
X57810153Y-140358155D01*
X58095730Y-140385108D01*
X58333492Y-140312930D01*
X58517936Y-140141358D01*
X58624225Y-139997938D01*
X58746789Y-139856192D01*
X58825722Y-139792911D01*
X58852694Y-139810084D01*
X58819372Y-139909700D01*
X58717427Y-140093747D01*
X58561739Y-140373193D01*
X58472271Y-140604381D01*
X58444647Y-140804090D01*
X58427660Y-140924729D01*
X58386788Y-140974943D01*
X58359162Y-140985952D01*
X58328929Y-141065062D01*
X58320274Y-141111198D01*
X58268058Y-141247445D01*
X58184282Y-141414267D01*
X58134810Y-141508017D01*
X58066454Y-141661054D01*
X58039635Y-141758090D01*
X58033445Y-141796109D01*
X57981777Y-141842825D01*
X57965790Y-141845228D01*
X57923918Y-141904326D01*
X57906463Y-141971469D01*
X57849726Y-142111087D01*
X57769969Y-142282747D01*
X57684166Y-142451771D01*
X57609286Y-142583482D01*
X57562301Y-142643205D01*
X57538385Y-142672451D01*
X57518906Y-142774172D01*
X57512626Y-142839995D01*
X57467798Y-142986321D01*
X57425708Y-143073409D01*
X57322419Y-143317581D01*
X57196595Y-143652801D01*
X57158549Y-143751493D01*
X57094071Y-143891802D01*
X57047454Y-143959974D01*
X57013279Y-144028957D01*
X56998178Y-144160590D01*
X56981254Y-144280554D01*
X56940319Y-144330752D01*
X56906543Y-144352811D01*
X56882460Y-144447255D01*
X56875718Y-144518411D01*
X56831665Y-144664225D01*
X56794960Y-144738792D01*
X56691022Y-144975260D01*
X56619673Y-145177739D01*
X56593166Y-145312900D01*
X56584202Y-145377253D01*
X56535307Y-145458998D01*
X56495284Y-145531300D01*
X56477449Y-145664919D01*
X56460525Y-145784882D01*
X56419590Y-145835080D01*
X56378800Y-145884852D01*
X56361731Y-146005242D01*
X56345558Y-146132946D01*
X56303872Y-146211162D01*
X56265099Y-146276259D01*
X56246014Y-146405511D01*
X56232274Y-146524196D01*
X56191365Y-146619066D01*
X56186378Y-146624739D01*
X56139739Y-146725068D01*
X56101367Y-146876538D01*
X56098016Y-146894720D01*
X56057678Y-147043220D01*
X56011368Y-147134010D01*
X55975232Y-147210226D01*
X55956720Y-147347565D01*
X55941713Y-147463117D01*
X55898861Y-147541914D01*
X55894554Y-147545116D01*
X55856591Y-147630442D01*
X55841002Y-147773349D01*
X55840847Y-147788610D01*
X55824444Y-147926731D01*
X55789255Y-148001007D01*
X55780636Y-148008880D01*
X55739856Y-148101156D01*
X55708347Y-148250321D01*
X55699682Y-148310184D01*
X55654992Y-148547160D01*
X55599058Y-148770842D01*
X55541148Y-148947487D01*
X55490531Y-149043349D01*
X55483045Y-149052940D01*
X55449585Y-149158470D01*
X55435991Y-149314763D01*
X55435316Y-149348149D01*
X55415931Y-149490700D01*
X55378132Y-149566971D01*
X55367754Y-149577030D01*
X55333920Y-149674420D01*
X55320273Y-149827335D01*
X55319334Y-149868204D01*
X55299633Y-150011720D01*
X55262414Y-150087700D01*
X55253602Y-150095671D01*
X55218699Y-150189762D01*
X55204556Y-150339907D01*
X55204070Y-150370105D01*
X55187008Y-150521150D01*
X55153121Y-150611322D01*
X55123734Y-150670968D01*
X55077023Y-150828916D01*
X55025809Y-151053196D01*
X54976161Y-151316628D01*
X54934149Y-151592028D01*
X54927404Y-151636752D01*
X54891853Y-151789382D01*
X54851477Y-151878429D01*
X54840826Y-151894751D01*
X54811373Y-152007807D01*
X54799544Y-152170615D01*
X54798426Y-152220441D01*
X54780296Y-152373950D01*
X54747019Y-152462802D01*
X54727594Y-152498225D01*
X54691722Y-152628784D01*
X54664441Y-152807062D01*
X54659526Y-152853137D01*
X54616115Y-153188083D01*
X54564729Y-153486024D01*
X54510456Y-153720800D01*
X54458386Y-153866248D01*
X54443552Y-153901118D01*
X54408532Y-154057698D01*
X54394533Y-154246313D01*
X54392197Y-154320973D01*
X54371607Y-154467993D01*
X54336674Y-154542825D01*
X54315174Y-154577944D01*
X54289023Y-154704037D01*
X54278815Y-154881821D01*
X54275204Y-154995808D01*
X54256179Y-155154498D01*
X54226290Y-155240023D01*
X54206791Y-155275471D01*
X54170534Y-155406026D01*
X54142628Y-155584283D01*
X54130736Y-155684142D01*
X54093675Y-155943883D01*
X54051769Y-156191800D01*
X54014937Y-156398738D01*
X53968955Y-156674797D01*
X53926750Y-156943964D01*
X53923231Y-156967062D01*
X53884499Y-157192700D01*
X53845007Y-157381137D01*
X53812790Y-157493622D01*
X53800551Y-157528019D01*
X53763504Y-157682408D01*
X53734320Y-157869704D01*
X53723057Y-157964008D01*
X53705663Y-158094476D01*
X53682131Y-158253262D01*
X53649140Y-158461806D01*
X53603366Y-158741547D01*
X53541487Y-159113925D01*
X53522792Y-159213032D01*
X53480033Y-159384266D01*
X53439327Y-159490007D01*
X53419737Y-159533590D01*
X53379054Y-159679708D01*
X53345089Y-159865832D01*
X53334208Y-159942319D01*
X53297927Y-160184689D01*
X53263805Y-160398109D01*
X53255334Y-160450239D01*
X53244778Y-160579895D01*
X53275587Y-160642219D01*
X53360313Y-160672967D01*
X53414713Y-160676282D01*
X53580372Y-160680461D01*
X53849514Y-160684866D01*
X54215504Y-160689449D01*
X54671708Y-160694163D01*
X55211494Y-160698957D01*
X55828225Y-160703784D01*
X56515269Y-160708594D01*
X57265992Y-160713340D01*
X58073760Y-160717972D01*
X58931938Y-160722442D01*
X59833893Y-160726702D01*
X60772990Y-160730702D01*
X61742597Y-160734395D01*
X62209388Y-160736072D01*
X63385792Y-160740329D01*
X64634681Y-160744887D01*
X65938944Y-160749682D01*
X67281472Y-160754649D01*
X68645157Y-160759725D01*
X70012890Y-160764846D01*
X71367560Y-160769947D01*
X72692059Y-160774963D01*
X73969279Y-160779832D01*
X75182108Y-160784488D01*
X76313440Y-160788868D01*
X77346163Y-160792908D01*
X78417609Y-160796815D01*
X79534442Y-160800092D01*
X80538386Y-160802099D01*
X81430942Y-160802828D01*
X82213615Y-160802273D01*
X82887908Y-160800428D01*
X83455326Y-160797286D01*
X83917371Y-160792842D01*
X84275549Y-160787089D01*
X84531362Y-160780021D01*
X84686313Y-160771632D01*
X84741908Y-160761914D01*
X84756485Y-160707449D01*
X84746625Y-160554399D01*
X84700163Y-160356824D01*
X84624423Y-160152698D01*
X84567592Y-160005431D01*
X84495263Y-159758370D01*
X84431765Y-159480345D01*
X84381953Y-159199725D01*
X84350680Y-158944879D01*
X84342802Y-158744176D01*
X84363172Y-158625986D01*
X84369293Y-158613408D01*
X84407584Y-158470870D01*
X84423235Y-158294211D01*
X84423236Y-158293391D01*
X84443905Y-158127035D01*
X84497604Y-157902599D01*
X84572781Y-157668426D01*
X84606772Y-157578965D01*
X84705154Y-157338814D01*
X84821233Y-157073866D01*
X84944550Y-156806019D01*
X85064648Y-156557170D01*
X85171068Y-156349217D01*
X85253353Y-156204055D01*
X85301044Y-156143584D01*
X85316165Y-156133887D01*
X85348975Y-156053866D01*
X85367836Y-155961192D01*
X85420510Y-155831476D01*
X85484512Y-155719450D01*
X85537016Y-155671522D01*
X85552810Y-155666382D01*
X85580652Y-155598748D01*
X85592154Y-155548162D01*
X85644679Y-155413007D01*
X85725299Y-155241789D01*
X85781175Y-155125622D01*
X85844896Y-154972080D01*
X85869704Y-154880172D01*
X85873338Y-154849532D01*
X85913439Y-154803190D01*
X85919525Y-154801724D01*
X85973389Y-154739880D01*
X86038236Y-154615149D01*
X86071527Y-154539460D01*
X86159755Y-154345163D01*
X86254866Y-154141450D01*
X86306561Y-154026690D01*
X86366914Y-153871673D01*
X86390433Y-153779047D01*
X86398317Y-153724736D01*
X86444697Y-153601835D01*
X86493883Y-153497874D01*
X86571213Y-153304683D01*
X86651746Y-153079959D01*
X86723771Y-152858378D01*
X86775574Y-152674616D01*
X86795444Y-152563350D01*
X86806545Y-152482769D01*
X86853303Y-152402051D01*
X86891584Y-152345658D01*
X86909693Y-152235748D01*
X86896627Y-152130696D01*
X86852518Y-152083827D01*
X86830448Y-152086922D01*
X86718884Y-152129660D01*
X86590931Y-152198664D01*
X86506150Y-152263107D01*
X86503071Y-152266593D01*
X86409727Y-152335200D01*
X86253689Y-152423197D01*
X86075336Y-152510687D01*
X85915048Y-152577773D01*
X85813207Y-152604556D01*
X85748950Y-152613507D01*
X85667198Y-152662415D01*
X85594896Y-152702439D01*
X85461278Y-152720274D01*
X85341314Y-152737197D01*
X85291116Y-152778133D01*
X85279277Y-152791277D01*
X85176991Y-152814992D01*
X84983615Y-152830460D01*
X84715943Y-152835991D01*
X84560428Y-152833943D01*
X84335543Y-152822488D01*
X84175218Y-152803078D01*
X84105011Y-152778133D01*
X84052174Y-152742009D01*
X83930743Y-152720274D01*
X83867252Y-152714473D01*
X83704236Y-152674049D01*
X83542923Y-152611721D01*
X83439635Y-152547321D01*
X83424660Y-152535581D01*
X83329986Y-152478632D01*
X83186052Y-152401497D01*
X83083398Y-152335484D01*
X82891062Y-152170801D01*
X82680214Y-151955286D01*
X82476619Y-151717763D01*
X82306043Y-151487056D01*
X82194252Y-151291988D01*
X82178302Y-151255876D01*
X82099959Y-151081017D01*
X82037516Y-150945167D01*
X82004638Y-150816487D01*
X81983606Y-150604400D01*
X81976761Y-150352364D01*
X81984010Y-150098934D01*
X82005261Y-149882660D01*
X82040419Y-149742096D01*
X82100576Y-149613355D01*
X82181207Y-149440224D01*
X82208833Y-149390683D01*
X82318092Y-149243220D01*
X82475348Y-149063367D01*
X82660089Y-148871199D01*
X82851803Y-148686790D01*
X83029977Y-148530215D01*
X83174100Y-148421549D01*
X83263659Y-148380866D01*
X83298989Y-148372128D01*
X83418302Y-148322150D01*
X83577794Y-148242623D01*
X83766540Y-148155922D01*
X84028770Y-148079057D01*
X84343508Y-148034491D01*
X84741458Y-148016252D01*
X85100893Y-148028272D01*
X85528542Y-148105343D01*
X85937564Y-148260662D01*
X86032268Y-148300748D01*
X86222332Y-148356917D01*
X86369177Y-148370675D01*
X86457887Y-148354747D01*
X86505769Y-148313024D01*
X86520146Y-148216048D01*
X86513953Y-148033713D01*
X86503246Y-147905052D01*
X86476588Y-147745471D01*
X86443957Y-147660524D01*
X86438220Y-147653436D01*
X86404289Y-147550965D01*
X86390433Y-147397267D01*
X86390135Y-147374642D01*
X86373275Y-147224742D01*
X86338500Y-147134010D01*
X86328126Y-147119444D01*
X86287510Y-147008441D01*
X86255629Y-146847609D01*
X86232286Y-146707408D01*
X86185218Y-146477323D01*
X86129468Y-146240092D01*
X86076036Y-146025882D01*
X85988843Y-145653326D01*
X85929012Y-145356448D01*
X85891607Y-145111846D01*
X85886988Y-145077368D01*
X85852777Y-144897854D01*
X85812504Y-144764693D01*
X85771412Y-144643383D01*
X85732894Y-144475399D01*
X85715499Y-144389142D01*
X85667668Y-144194906D01*
X85608281Y-143983600D01*
X85525689Y-143706803D01*
X85459758Y-143478766D01*
X85415637Y-143313671D01*
X85386652Y-143186388D01*
X85366128Y-143071788D01*
X85364557Y-143062263D01*
X85328505Y-142925618D01*
X85284723Y-142851403D01*
X85257719Y-142818600D01*
X85233257Y-142711981D01*
X85210611Y-142592152D01*
X85151821Y-142440566D01*
X85035808Y-142188091D01*
X84884130Y-141813896D01*
X84850428Y-141727980D01*
X84763822Y-141518536D01*
X84672501Y-141308936D01*
X84592315Y-141135063D01*
X84539116Y-141032802D01*
X84531147Y-141019793D01*
X84464678Y-140899272D01*
X84385644Y-140743508D01*
X84334760Y-140649325D01*
X84224861Y-140463924D01*
X84082269Y-140234756D01*
X83925062Y-139991344D01*
X83916210Y-139977889D01*
X83708078Y-139652077D01*
X83566670Y-139407466D01*
X83487571Y-139234462D01*
X83466365Y-139123470D01*
X83498636Y-139064898D01*
X83579882Y-139048885D01*
X83742786Y-139043421D01*
X83949284Y-139050634D01*
X84269028Y-139050200D01*
X84596811Y-138984659D01*
X84671801Y-138960121D01*
X84854089Y-138912271D01*
X84987358Y-138892870D01*
X85068478Y-138879656D01*
X85117540Y-138834169D01*
X85127283Y-138807594D01*
X85204194Y-138776310D01*
X85222005Y-138774701D01*
X85353191Y-138719836D01*
X85533580Y-138600369D01*
X85739998Y-138434628D01*
X85949271Y-138240940D01*
X86138225Y-138037632D01*
X86160183Y-138011800D01*
X86298484Y-137853616D01*
X86406571Y-137737365D01*
X86462641Y-137686637D01*
X86470309Y-137682338D01*
X86506150Y-137609919D01*
X86506656Y-137605676D01*
X86547179Y-137525749D01*
X86639806Y-137386099D01*
X86766515Y-137214123D01*
X86784728Y-137190371D01*
X86907414Y-137025534D01*
X86994052Y-136900786D01*
X87026879Y-136841546D01*
X87027627Y-136836703D01*
X87066472Y-136758237D01*
X87149293Y-136621996D01*
X87255285Y-136459240D01*
X87363640Y-136301225D01*
X87453552Y-136179209D01*
X87504214Y-136124450D01*
X87521686Y-136109706D01*
X87547608Y-136023197D01*
X87553337Y-135987739D01*
X87605467Y-135941231D01*
X87619283Y-135939565D01*
X87663326Y-135883812D01*
X87664585Y-135870921D01*
X87684551Y-135822302D01*
X87736244Y-135746494D01*
X87829207Y-135632108D01*
X87972983Y-135467753D01*
X88177117Y-135242041D01*
X88451151Y-134943581D01*
X88484239Y-134907551D01*
X88684918Y-134683123D01*
X88858988Y-134478912D01*
X88988769Y-134316161D01*
X89056583Y-134216112D01*
X89127955Y-134084220D01*
X89229621Y-133916174D01*
X89264300Y-133861600D01*
X89363989Y-133695570D01*
X89469425Y-133511162D01*
X89573237Y-133324712D01*
X89705916Y-133088352D01*
X89799862Y-132925041D01*
X89865606Y-132817097D01*
X89913681Y-132746839D01*
X89954618Y-132696584D01*
X90000177Y-132633175D01*
X90035535Y-132536687D01*
X90036910Y-132521978D01*
X90074460Y-132410923D01*
X90141640Y-132276994D01*
X90209112Y-132180410D01*
X90246526Y-132119943D01*
X90319532Y-131984472D01*
X90411617Y-131804328D01*
X90501640Y-131628150D01*
X90575334Y-131491238D01*
X90614215Y-131428246D01*
X90657871Y-131366123D01*
X90731089Y-131216270D01*
X90806799Y-131025806D01*
X90872038Y-130831047D01*
X90913838Y-130668310D01*
X90919233Y-130573914D01*
X90915765Y-130535644D01*
X90936186Y-130403018D01*
X90985078Y-130230919D01*
X91008118Y-130156590D01*
X91057367Y-129938254D01*
X91076993Y-129751607D01*
X91077324Y-129727805D01*
X91094494Y-129577724D01*
X91129691Y-129487085D01*
X91153919Y-129415263D01*
X91180058Y-129251485D01*
X91205821Y-129017442D01*
X91230070Y-128733746D01*
X91251669Y-128421005D01*
X91269482Y-128099832D01*
X91282371Y-127790836D01*
X91289201Y-127514628D01*
X91288833Y-127291819D01*
X91280132Y-127143019D01*
X91261961Y-127088839D01*
X91215394Y-127052555D01*
X91168951Y-126944192D01*
X91123865Y-126850713D01*
X91032497Y-126798893D01*
X90991551Y-126807733D01*
X90859275Y-126856691D01*
X90674390Y-126935806D01*
X90468235Y-127030506D01*
X90272148Y-127126222D01*
X90117468Y-127208381D01*
X90035535Y-127262415D01*
X90029368Y-127268291D01*
X89918501Y-127341769D01*
X89776053Y-127407513D01*
X89665060Y-127435991D01*
X89629624Y-127439787D01*
X89563022Y-127479385D01*
X89554416Y-127494129D01*
X89534025Y-127513905D01*
X89492280Y-127542982D01*
X89419046Y-127586926D01*
X89304188Y-127651301D01*
X89137569Y-127741673D01*
X88909055Y-127863608D01*
X88608509Y-128022669D01*
X88225796Y-128224423D01*
X87750780Y-128474434D01*
X87554076Y-128579107D01*
X87322435Y-128705439D01*
X87137596Y-128809689D01*
X87027546Y-128876307D01*
X86996498Y-128896456D01*
X86833082Y-128991838D01*
X86650797Y-129087146D01*
X86606329Y-129109299D01*
X86419673Y-129209337D01*
X86267910Y-129300177D01*
X86259814Y-129305456D01*
X86126456Y-129385571D01*
X85932952Y-129494749D01*
X85718251Y-129610967D01*
X85676413Y-129633264D01*
X85490433Y-129736241D01*
X85352927Y-129818587D01*
X85291116Y-129864169D01*
X85246575Y-129901131D01*
X85122244Y-129985109D01*
X84944518Y-130097742D01*
X84738553Y-130223877D01*
X84529504Y-130348360D01*
X84342526Y-130456038D01*
X84202776Y-130531758D01*
X84135407Y-130560365D01*
X84128479Y-130560831D01*
X84066439Y-130610744D01*
X84066214Y-130611302D01*
X84006953Y-130669598D01*
X83879191Y-130763176D01*
X83715105Y-130871575D01*
X83546875Y-130974334D01*
X83406680Y-131050994D01*
X83326697Y-131081094D01*
X83310647Y-131082912D01*
X83266059Y-131131907D01*
X83265998Y-131132924D01*
X83218422Y-131190103D01*
X83099219Y-131288252D01*
X82933371Y-131406736D01*
X82928841Y-131409789D01*
X82760632Y-131527349D01*
X82635916Y-131622231D01*
X82581397Y-131674146D01*
X82566653Y-131691619D01*
X82480144Y-131717540D01*
X82444687Y-131723270D01*
X82398178Y-131775399D01*
X82389398Y-131801088D01*
X82314264Y-131833258D01*
X82276033Y-131839719D01*
X82184082Y-131907272D01*
X82170579Y-131923209D01*
X82082971Y-132002061D01*
X81938911Y-132120081D01*
X81762767Y-132258572D01*
X81578912Y-132398835D01*
X81411716Y-132522173D01*
X81285549Y-132609887D01*
X81224782Y-132643281D01*
X81183954Y-132671269D01*
X81080934Y-132760298D01*
X80942068Y-132889180D01*
X80845618Y-132980627D01*
X80613547Y-133195785D01*
X80424910Y-133363461D01*
X80292650Y-133472353D01*
X80229711Y-133511162D01*
X80208498Y-133526106D01*
X80117374Y-133609161D01*
X79968490Y-133752646D01*
X79775919Y-133942405D01*
X79553729Y-134164288D01*
X79315991Y-134404139D01*
X79076776Y-134647807D01*
X78850153Y-134881137D01*
X78650192Y-135089977D01*
X78490964Y-135260173D01*
X78357085Y-135397178D01*
X78166872Y-135548264D01*
X77999165Y-135617319D01*
X77852886Y-135646015D01*
X77639828Y-135683381D01*
X77507105Y-135696791D01*
X77433255Y-135687677D01*
X77396813Y-135657469D01*
X77370970Y-135637756D01*
X77253178Y-135606433D01*
X77083328Y-135594078D01*
X76997699Y-135591603D01*
X76840903Y-135572794D01*
X76754055Y-135541553D01*
X76718593Y-135522014D01*
X76588039Y-135485550D01*
X76409795Y-135457309D01*
X76003029Y-135409175D01*
X75681552Y-135363183D01*
X75462991Y-135321599D01*
X75353657Y-135285449D01*
X75326227Y-135271820D01*
X75264336Y-135252899D01*
X75160804Y-135231394D01*
X75000998Y-135204932D01*
X74770282Y-135171142D01*
X74454023Y-135127651D01*
X74037585Y-135072086D01*
X73869661Y-135050252D01*
X73477940Y-135003268D01*
X73105196Y-134965626D01*
X72732194Y-134936381D01*
X72339695Y-134914586D01*
X71908462Y-134899298D01*
X71419256Y-134889570D01*
X70852840Y-134884457D01*
X70189977Y-134883014D01*
X69899310Y-134883396D01*
X69142157Y-134888519D01*
X68484157Y-134900084D01*
X67913143Y-134918686D01*
X67416946Y-134944918D01*
X66983399Y-134979376D01*
X66600333Y-135022656D01*
X66255581Y-135075351D01*
X65997595Y-135112815D01*
X65392476Y-135132827D01*
X64826351Y-135047408D01*
X64288363Y-134854269D01*
X63767654Y-134551123D01*
X63749699Y-134538832D01*
X63583998Y-134435094D01*
X63357494Y-134304256D01*
X63090384Y-134156812D01*
X62802867Y-134003259D01*
X62515142Y-133854091D01*
X62247407Y-133719802D01*
X62019861Y-133610887D01*
X61852703Y-133537843D01*
X61766131Y-133511162D01*
X61731419Y-133506960D01*
X61684738Y-133467427D01*
X61683379Y-133461615D01*
X61621739Y-133408880D01*
X61496697Y-133346228D01*
X61456985Y-133329620D01*
X61254203Y-133239459D01*
X61029613Y-133133074D01*
X60808631Y-133023320D01*
X60616673Y-132923051D01*
X60479153Y-132845124D01*
X60421488Y-132802392D01*
X60411563Y-132788508D01*
X60331103Y-132758998D01*
X60307163Y-132755788D01*
X60188674Y-132717856D01*
X60032166Y-132650896D01*
X60006227Y-132638638D01*
X59786724Y-132537250D01*
X59572893Y-132441480D01*
X59490818Y-132405407D01*
X59144186Y-132250297D01*
X58734817Y-132062968D01*
X58242141Y-131834032D01*
X58178401Y-131804263D01*
X57730550Y-131596121D01*
X57377697Y-131434121D01*
X57122907Y-131319661D01*
X56969248Y-131254137D01*
X56968412Y-131253804D01*
X56857833Y-131206399D01*
X56680840Y-131127173D01*
X56475351Y-131033096D01*
X56265691Y-130940524D01*
X56072017Y-130862853D01*
X55940157Y-130818663D01*
X55832451Y-130777495D01*
X55783143Y-130727669D01*
X55749034Y-130694143D01*
X55641911Y-130676082D01*
X55544674Y-130663011D01*
X55464920Y-130618224D01*
X55427620Y-130586933D01*
X55316859Y-130560365D01*
X55252862Y-130549981D01*
X55204556Y-130502506D01*
X55182497Y-130468731D01*
X55088053Y-130444647D01*
X55016799Y-130437322D01*
X54871083Y-130389591D01*
X54845826Y-130376427D01*
X54708907Y-130312560D01*
X54539180Y-130240080D01*
X54489914Y-130219722D01*
X54323789Y-130147785D01*
X54207277Y-130092631D01*
X54141903Y-130066314D01*
X53990307Y-130039636D01*
X53922298Y-130028681D01*
X53873804Y-129981777D01*
X53861894Y-129953466D01*
X53781295Y-129923918D01*
X53728603Y-129916444D01*
X53571923Y-129867961D01*
X53371674Y-129786828D01*
X53165819Y-129687619D01*
X53103145Y-129662026D01*
X52952263Y-129634625D01*
X52884970Y-129625256D01*
X52803417Y-129576766D01*
X52765659Y-129545299D01*
X52654570Y-129518907D01*
X52638878Y-129518780D01*
X52566408Y-129511506D01*
X52482123Y-129484557D01*
X52356007Y-129426191D01*
X52158043Y-129324663D01*
X52148311Y-129319678D01*
X51989326Y-129255902D01*
X51857699Y-129229613D01*
X51785328Y-129219565D01*
X51704100Y-129171754D01*
X51633935Y-129132082D01*
X51501594Y-129113896D01*
X51377472Y-129098057D01*
X51299089Y-129056037D01*
X51286279Y-129043848D01*
X51184884Y-129011255D01*
X51028580Y-128998178D01*
X50793830Y-128998178D01*
X46196445Y-128998178D01*
X46183092Y-128950095D01*
X46150904Y-128757771D01*
X46141211Y-128654163D01*
X46138134Y-128452193D01*
X46150108Y-128250055D01*
X46173875Y-128076717D01*
X46206176Y-127961146D01*
X46243754Y-127932307D01*
X46259827Y-127939156D01*
X46294305Y-127904366D01*
X46304751Y-127869527D01*
X46387368Y-127760558D01*
X46531685Y-127621420D01*
X46712847Y-127473167D01*
X46905998Y-127336852D01*
X47086280Y-127233532D01*
X47196903Y-127183812D01*
X47379178Y-127125335D01*
X47584854Y-127096534D01*
X47859748Y-127088839D01*
X47877700Y-127088906D01*
X48142070Y-127100874D01*
X48445592Y-127130207D01*
X48757323Y-127172212D01*
X49046322Y-127222196D01*
X49281648Y-127275467D01*
X49432358Y-127327332D01*
X49449343Y-127334698D01*
X49586749Y-127365596D01*
X49761632Y-127378133D01*
X49806863Y-127379127D01*
X49949194Y-127396897D01*
X50022418Y-127429880D01*
X50030261Y-127438451D01*
X50122526Y-127478669D01*
X50271733Y-127509076D01*
X50368737Y-127525106D01*
X50585015Y-127573657D01*
X50807289Y-127635429D01*
X50935955Y-127673511D01*
X51149659Y-127729895D01*
X51313553Y-127765069D01*
X51328210Y-127767621D01*
X51451143Y-127804054D01*
X51501594Y-127847333D01*
X51502993Y-127853435D01*
X51568175Y-127885708D01*
X51700685Y-127898861D01*
X51718389Y-127899086D01*
X51858598Y-127917592D01*
X51935535Y-127956720D01*
X52005701Y-127996392D01*
X52138041Y-128014579D01*
X52260406Y-128026759D01*
X52332001Y-128058611D01*
X52332241Y-128058982D01*
X52399081Y-128097063D01*
X52545569Y-128154039D01*
X52740420Y-128217723D01*
X52748236Y-128220091D01*
X52936639Y-128283189D01*
X53070623Y-128339181D01*
X53121633Y-128376196D01*
X53121644Y-128376694D01*
X53173284Y-128407007D01*
X53295216Y-128419590D01*
X53297376Y-128419595D01*
X53418515Y-128436825D01*
X53468793Y-128477449D01*
X53518565Y-128518239D01*
X53638954Y-128535308D01*
X53766659Y-128551481D01*
X53844875Y-128593167D01*
X53878057Y-128622753D01*
X53985852Y-128651025D01*
X54050754Y-128663630D01*
X54163098Y-128737814D01*
X54231885Y-128789161D01*
X54369273Y-128824602D01*
X54459002Y-128836811D01*
X54539180Y-128882461D01*
X54591600Y-128918479D01*
X54712756Y-128940319D01*
X54806377Y-128952981D01*
X54886332Y-128998178D01*
X54940813Y-129034704D01*
X55063323Y-129056037D01*
X55155148Y-129070024D01*
X55204556Y-129113896D01*
X55214630Y-129140756D01*
X55292129Y-129171754D01*
X55351020Y-129179524D01*
X55480170Y-129226810D01*
X55505598Y-129240082D01*
X55642483Y-129304283D01*
X55812073Y-129377357D01*
X55854723Y-129394954D01*
X56039922Y-129471374D01*
X56188155Y-129532548D01*
X56303591Y-129579898D01*
X56477449Y-129650477D01*
X56604822Y-129703207D01*
X56825434Y-129802979D01*
X56979707Y-129884956D01*
X57046393Y-129938383D01*
X57061497Y-129956081D01*
X57148431Y-129981777D01*
X57203880Y-129988713D01*
X57331651Y-130032392D01*
X57553833Y-130142841D01*
X57780804Y-130249886D01*
X57928374Y-130310084D01*
X58009089Y-130328930D01*
X58059738Y-130342340D01*
X58155353Y-130415718D01*
X58208176Y-130460483D01*
X58336014Y-130502506D01*
X58396513Y-130512376D01*
X58444647Y-130560365D01*
X58480559Y-130598418D01*
X58589294Y-130618224D01*
X58684426Y-130632589D01*
X58733941Y-130676082D01*
X58747316Y-130705411D01*
X58830217Y-130733941D01*
X58906438Y-130745605D01*
X59050199Y-130792184D01*
X59201763Y-130858013D01*
X59321652Y-130925364D01*
X59370387Y-130976511D01*
X59378204Y-130996441D01*
X59451708Y-131023235D01*
X59475776Y-131026080D01*
X59598280Y-131064519D01*
X59755466Y-131133535D01*
X59782579Y-131146935D01*
X59988466Y-131246868D01*
X60180410Y-131337640D01*
X60206456Y-131349761D01*
X60360902Y-131423628D01*
X60469704Y-131478712D01*
X60515500Y-131503518D01*
X60699983Y-131598151D01*
X60819677Y-131646268D01*
X60902859Y-131659682D01*
X60943515Y-131666337D01*
X60990433Y-131717540D01*
X60994202Y-131736581D01*
X61057779Y-131775399D01*
X61123842Y-131787169D01*
X61258239Y-131835002D01*
X61404065Y-131902143D01*
X61521074Y-131969497D01*
X61569020Y-132017969D01*
X61590652Y-132045088D01*
X61684738Y-132064693D01*
X61751996Y-132075542D01*
X61800455Y-132122552D01*
X61836368Y-132160605D01*
X61945102Y-132180410D01*
X62040235Y-132194775D01*
X62089749Y-132238269D01*
X62101587Y-132266528D01*
X62182070Y-132296128D01*
X62197541Y-132297529D01*
X62314250Y-132340981D01*
X62456085Y-132426310D01*
X62635617Y-132546963D01*
X62847120Y-132661253D01*
X62993174Y-132701139D01*
X63026980Y-132706567D01*
X63073348Y-132758998D01*
X63082740Y-132785259D01*
X63159013Y-132816857D01*
X63237179Y-132840993D01*
X63384319Y-132914206D01*
X63561245Y-133019363D01*
X63719981Y-133116156D01*
X63861357Y-133192583D01*
X63938451Y-133221868D01*
X63954690Y-133223989D01*
X63999089Y-133279727D01*
X64018616Y-133312416D01*
X64109985Y-133337586D01*
X64173951Y-133344735D01*
X64240167Y-133380980D01*
X64261408Y-133405799D01*
X64367079Y-133478824D01*
X64526443Y-133567100D01*
X64703278Y-133652543D01*
X64861365Y-133717070D01*
X64964481Y-133742597D01*
X65029831Y-133751469D01*
X65138339Y-133805674D01*
X65179252Y-133827001D01*
X65332210Y-133845869D01*
X65569387Y-133836489D01*
X65673243Y-133827502D01*
X65936847Y-133805214D01*
X66244158Y-133779705D01*
X66547993Y-133754910D01*
X66740233Y-133737575D01*
X66972210Y-133711254D01*
X67143615Y-133685274D01*
X67227005Y-133663334D01*
X67231310Y-133661225D01*
X67327655Y-133645016D01*
X67522470Y-133630505D01*
X67800407Y-133617804D01*
X68146120Y-133607023D01*
X68544263Y-133598272D01*
X68979488Y-133591663D01*
X69436450Y-133587307D01*
X69899800Y-133585313D01*
X70354194Y-133585794D01*
X70784284Y-133588860D01*
X71174723Y-133594622D01*
X71510165Y-133603191D01*
X71775262Y-133614676D01*
X71954670Y-133629191D01*
X72158656Y-133653509D01*
X72811326Y-133724316D01*
X73466716Y-133785939D01*
X74066515Y-133832759D01*
X74086865Y-133834191D01*
X74313559Y-133856514D01*
X74503066Y-133885725D01*
X74616173Y-133915894D01*
X74711706Y-133943445D01*
X74893076Y-133973690D01*
X75107973Y-133995234D01*
X75195570Y-134002485D01*
X75458587Y-134032117D01*
X75764174Y-134074243D01*
X76062642Y-134122253D01*
X76501049Y-134186213D01*
X76946347Y-134214996D01*
X77296477Y-134190879D01*
X77547553Y-134113884D01*
X77575379Y-134098105D01*
X77722451Y-133992905D01*
X77907132Y-133838193D01*
X78096126Y-133661432D01*
X78222594Y-133536858D01*
X78451168Y-133316014D01*
X78660146Y-133119208D01*
X78833910Y-132960824D01*
X78956839Y-132855246D01*
X79013312Y-132816857D01*
X79041277Y-132799141D01*
X79133470Y-132720359D01*
X79262331Y-132599887D01*
X79469882Y-132403788D01*
X79758951Y-132150643D01*
X80054897Y-131918839D01*
X80132122Y-131860712D01*
X80267429Y-131755761D01*
X80348422Y-131688611D01*
X80377529Y-131662995D01*
X80487642Y-131571900D01*
X80631291Y-131457176D01*
X80700774Y-131402207D01*
X80834383Y-131294545D01*
X80916355Y-131225741D01*
X80948796Y-131198456D01*
X81063444Y-131108501D01*
X81212073Y-130996403D01*
X81288241Y-130939187D01*
X81426126Y-130831517D01*
X81510532Y-130759935D01*
X81574621Y-130709079D01*
X81713112Y-130612275D01*
X81886614Y-130498686D01*
X82034221Y-130403058D01*
X82179902Y-130304298D01*
X82261539Y-130243354D01*
X82358537Y-130158584D01*
X82530594Y-130026152D01*
X82630274Y-129981777D01*
X82643269Y-129980500D01*
X82687471Y-129933029D01*
X82691752Y-129920761D01*
X82761628Y-129855460D01*
X82889977Y-129775225D01*
X82931607Y-129751850D01*
X83046390Y-129674602D01*
X83092483Y-129621467D01*
X83102180Y-129600997D01*
X83179271Y-129576766D01*
X83219196Y-129570238D01*
X83266059Y-129518907D01*
X83267736Y-129505081D01*
X83323784Y-129461048D01*
X83378087Y-129440277D01*
X83503700Y-129366796D01*
X83663382Y-129258543D01*
X83793441Y-129169878D01*
X83931517Y-129087735D01*
X84010668Y-129056037D01*
X84031111Y-129053126D01*
X84076082Y-128998178D01*
X84085873Y-128971561D01*
X84162870Y-128940319D01*
X84202795Y-128933792D01*
X84249658Y-128882461D01*
X84252108Y-128866351D01*
X84311377Y-128824602D01*
X84325838Y-128822282D01*
X84424613Y-128775712D01*
X84557277Y-128688156D01*
X84569178Y-128679455D01*
X84750330Y-128563751D01*
X84929499Y-128471526D01*
X84952735Y-128461283D01*
X85069849Y-128396972D01*
X85117540Y-128347608D01*
X85121312Y-128333253D01*
X85185307Y-128303873D01*
X85240105Y-128289127D01*
X85344466Y-128221165D01*
X85379050Y-128193632D01*
X85523691Y-128098606D01*
X85737426Y-127972523D01*
X85995889Y-127829467D01*
X86274715Y-127683519D01*
X86312483Y-127664086D01*
X86440127Y-127594348D01*
X86506150Y-127551617D01*
X86508314Y-127549619D01*
X86581845Y-127503220D01*
X86708656Y-127435906D01*
X86823271Y-127376604D01*
X87014790Y-127274023D01*
X87220478Y-127161170D01*
X87395377Y-127069678D01*
X87550286Y-126999841D01*
X87639955Y-126973121D01*
X87674522Y-126968892D01*
X87721184Y-126928911D01*
X87723701Y-126921444D01*
X87794276Y-126867148D01*
X87942896Y-126789417D01*
X88144018Y-126700640D01*
X88372096Y-126613207D01*
X88482867Y-126559114D01*
X88531207Y-126504591D01*
X88552870Y-126474274D01*
X88646925Y-126452392D01*
X88714183Y-126441543D01*
X88762642Y-126394533D01*
X88772716Y-126367673D01*
X88850215Y-126336675D01*
X88908256Y-126329411D01*
X89038256Y-126283918D01*
X89148735Y-126227159D01*
X89390176Y-126109718D01*
X89633570Y-125998403D01*
X89852588Y-125904687D01*
X90020899Y-125840043D01*
X90112175Y-125815946D01*
X90161600Y-125807806D01*
X90209112Y-125758087D01*
X90245024Y-125720034D01*
X90353758Y-125700228D01*
X90448891Y-125685863D01*
X90498405Y-125642369D01*
X90530670Y-125605242D01*
X90635968Y-125584511D01*
X90733356Y-125566917D01*
X90845558Y-125497723D01*
X90898108Y-125452817D01*
X91022804Y-125410934D01*
X91081671Y-125402743D01*
X91163781Y-125353076D01*
X91236083Y-125313052D01*
X91369702Y-125295217D01*
X91489665Y-125278293D01*
X91539863Y-125237358D01*
X91547385Y-125212961D01*
X91620038Y-125179499D01*
X91725295Y-125154127D01*
X91865937Y-125093068D01*
X92010216Y-125032417D01*
X92129501Y-125006279D01*
X92180419Y-124999087D01*
X92263098Y-124948064D01*
X92317579Y-124911539D01*
X92440089Y-124890205D01*
X92531913Y-124876218D01*
X92581321Y-124832347D01*
X92615463Y-124794729D01*
X92722553Y-124774488D01*
X92819790Y-124761417D01*
X92899544Y-124716629D01*
X92947077Y-124681926D01*
X93064964Y-124658770D01*
X93152497Y-124646288D01*
X93261807Y-124591587D01*
X93322892Y-124566235D01*
X93478025Y-124543956D01*
X93687914Y-124533063D01*
X93918614Y-124533335D01*
X94136178Y-124544552D01*
X94306661Y-124566494D01*
X94396116Y-124598941D01*
X94423560Y-124620771D01*
X94536947Y-124658770D01*
X94609534Y-124679082D01*
X94742027Y-124776538D01*
X94872420Y-124923642D01*
X94971834Y-125085735D01*
X95011389Y-125228158D01*
X95028113Y-125361922D01*
X95069248Y-125439864D01*
X95091999Y-125463245D01*
X95123664Y-125572876D01*
X95116081Y-125702230D01*
X95069248Y-125787016D01*
X95064144Y-125790945D01*
X95026721Y-125877751D01*
X95011389Y-126021866D01*
X95010981Y-126045508D01*
X94992033Y-126170157D01*
X94953531Y-126220957D01*
X94929378Y-126228259D01*
X94895672Y-126300458D01*
X94891243Y-126327818D01*
X94846148Y-126446515D01*
X94768322Y-126606130D01*
X94677620Y-126769962D01*
X94593895Y-126901312D01*
X94537000Y-126963478D01*
X94518076Y-126978612D01*
X94490660Y-127065516D01*
X94490359Y-127073067D01*
X94456954Y-127190047D01*
X94389088Y-127332097D01*
X94316484Y-127435991D01*
X94301129Y-127458931D01*
X94269930Y-127514628D01*
X94240432Y-127567289D01*
G37*
%LPC*%
D12*
X90190000Y-166000000D03*
D13*
X97810000Y-166000000D03*
D14*
X40500000Y-116000000D03*
D15*
X51000000Y-113500000D03*
X90500000Y-145500000D03*
D16*
X90500000Y-148040000D03*
D15*
X103000000Y-149500000D03*
X38000000Y-145580000D03*
D16*
X38000000Y-143040000D03*
X38000000Y-140500000D03*
X38000000Y-137960000D03*
D14*
X39000000Y-180000000D03*
D17*
X68000000Y-127340000D03*
X68000000Y-129880000D03*
X68000000Y-132420000D03*
X68000000Y-134960000D03*
X68000000Y-137500000D03*
X68000000Y-140040000D03*
X68000000Y-142580000D03*
X68000000Y-145120000D03*
X68000000Y-147660000D03*
X68000000Y-150200000D03*
X68000000Y-152740000D03*
X68000000Y-155280000D03*
X68000000Y-157820000D03*
X68000000Y-160360000D03*
X68000000Y-162900000D03*
X68000000Y-165440000D03*
X68000000Y-167980000D03*
X68000000Y-170520000D03*
X68000000Y-173060000D03*
X68000000Y-175600000D03*
X83240000Y-127340000D03*
X83240000Y-129880000D03*
X83240000Y-132420000D03*
X83240000Y-134960000D03*
X83240000Y-137500000D03*
X83240000Y-140040000D03*
X83240000Y-142580000D03*
X83240000Y-145120000D03*
X83240000Y-147660000D03*
X83240000Y-150200000D03*
X83240000Y-152740000D03*
X83240000Y-155280000D03*
X83240000Y-157820000D03*
X83240000Y-160360000D03*
X83240000Y-162900000D03*
X83240000Y-165440000D03*
X83240000Y-167980000D03*
X83240000Y-170520000D03*
X83240000Y-173060000D03*
X83240000Y-175600000D03*
D18*
X47660000Y-157610000D03*
D19*
X47660000Y-160150000D03*
X47660000Y-162690000D03*
X47660000Y-165230000D03*
X47660000Y-167770000D03*
X47660000Y-170310000D03*
X47660000Y-172850000D03*
X47660000Y-175390000D03*
X60360000Y-175390000D03*
X60360000Y-172850000D03*
X60360000Y-170310000D03*
X60360000Y-167770000D03*
X60360000Y-165230000D03*
X60360000Y-162690000D03*
X60360000Y-160150000D03*
X60360000Y-157610000D03*
D15*
X63500000Y-113000000D03*
D14*
X91500000Y-180000000D03*
D20*
X86500000Y-122250000D03*
X86500000Y-118750000D03*
D15*
X94108074Y-145502522D03*
D16*
X94108074Y-148042522D03*
D18*
X47660000Y-133110000D03*
D19*
X47660000Y-135650000D03*
X47660000Y-138190000D03*
X47660000Y-140730000D03*
X47660000Y-143270000D03*
X47660000Y-145810000D03*
X47660000Y-148350000D03*
X47660000Y-150890000D03*
X60360000Y-150890000D03*
X60360000Y-148350000D03*
X60360000Y-145810000D03*
X60360000Y-143270000D03*
X60360000Y-140730000D03*
X60360000Y-138190000D03*
X60360000Y-135650000D03*
X60360000Y-133110000D03*
D15*
X38500000Y-170080000D03*
D16*
X38500000Y-167540000D03*
X38500000Y-165000000D03*
X38500000Y-162460000D03*
D15*
X103000000Y-174750000D03*
D16*
X103000000Y-177290000D03*
D15*
X94420000Y-125000000D03*
D16*
X96960000Y-125000000D03*
X99500000Y-125000000D03*
X102040000Y-125000000D03*
D12*
X90190000Y-163000000D03*
D13*
X97810000Y-163000000D03*
D20*
X58000000Y-122000000D03*
X58000000Y-118500000D03*
X91000000Y-139250000D03*
X91000000Y-136750000D03*
X61500000Y-129250000D03*
X61500000Y-126750000D03*
D18*
X97800000Y-152200000D03*
D19*
X95260000Y-152200000D03*
X92720000Y-152200000D03*
X90180000Y-152200000D03*
X90180000Y-159820000D03*
X92720000Y-159820000D03*
X95260000Y-159820000D03*
X97800000Y-159820000D03*
D15*
X87000000Y-113000000D03*
D16*
X84460000Y-113000000D03*
D21*
X98000000Y-134420000D03*
D22*
X98000000Y-136960000D03*
X98000000Y-139500000D03*
D23*
X78500000Y-173000000D03*
X65500000Y-168000000D03*
X64500000Y-169500000D03*
X63500000Y-170500000D03*
X62500000Y-172500000D03*
%LPD*%
M02*
