%TF.GenerationSoftware,KiCad,Pcbnew,8.0.1*%
%TF.CreationDate,2024-04-25T13:59:24+02:00*%
%TF.ProjectId,WritingRobotV2,57726974-696e-4675-926f-626f7456322e,rev?*%
%TF.SameCoordinates,Original*%
%TF.FileFunction,Drillmap*%
%TF.FilePolarity,Positive*%
%FSLAX45Y45*%
G04 Gerber Fmt 4.5, Leading zero omitted, Abs format (unit mm)*
G04 Created by KiCad (PCBNEW 8.0.1) date 2024-04-25 13:59:24*
%MOMM*%
%LPD*%
G01*
G04 APERTURE LIST*
%ADD10C,0.050000*%
%ADD11C,0.200000*%
%ADD12C,0.100000*%
G04 APERTURE END LIST*
D10*
X7500000Y-4200000D02*
X13650000Y-4200000D01*
X13650000Y-9700000D01*
X7500000Y-9700000D01*
X7500000Y-4200000D01*
D11*
D12*
X8426000Y-4721000D02*
X8506000Y-4801000D01*
X8506000Y-4721000D02*
X8426000Y-4801000D01*
X8426000Y-4975000D02*
X8506000Y-5055000D01*
X8506000Y-4975000D02*
X8426000Y-5055000D01*
X8426000Y-5229000D02*
X8506000Y-5309000D01*
X8506000Y-5229000D02*
X8426000Y-5309000D01*
X8426000Y-5483000D02*
X8506000Y-5563000D01*
X8506000Y-5483000D02*
X8426000Y-5563000D01*
X8426000Y-5737000D02*
X8506000Y-5817000D01*
X8506000Y-5737000D02*
X8426000Y-5817000D01*
X8426000Y-5991000D02*
X8506000Y-6071000D01*
X8506000Y-5991000D02*
X8426000Y-6071000D01*
X8426000Y-6245000D02*
X8506000Y-6325000D01*
X8506000Y-6245000D02*
X8426000Y-6325000D01*
X8426000Y-6499000D02*
X8506000Y-6579000D01*
X8506000Y-6499000D02*
X8426000Y-6579000D01*
X8460000Y-7160000D02*
X8540000Y-7240000D01*
X8540000Y-7160000D02*
X8460000Y-7240000D01*
X8460000Y-7414000D02*
X8540000Y-7494000D01*
X8540000Y-7414000D02*
X8460000Y-7494000D01*
X8460000Y-7668000D02*
X8540000Y-7748000D01*
X8540000Y-7668000D02*
X8460000Y-7748000D01*
X8460000Y-7922000D02*
X8540000Y-8002000D01*
X8540000Y-7922000D02*
X8460000Y-8002000D01*
X8460000Y-8176000D02*
X8540000Y-8256000D01*
X8540000Y-8176000D02*
X8460000Y-8256000D01*
X8460000Y-8430000D02*
X8540000Y-8510000D01*
X8540000Y-8430000D02*
X8460000Y-8510000D01*
X8460000Y-8684000D02*
X8540000Y-8764000D01*
X8540000Y-8684000D02*
X8460000Y-8764000D01*
X8460000Y-8938000D02*
X8540000Y-9018000D01*
X8540000Y-8938000D02*
X8460000Y-9018000D01*
X9696000Y-4721000D02*
X9776000Y-4801000D01*
X9776000Y-4721000D02*
X9696000Y-4801000D01*
X9696000Y-4975000D02*
X9776000Y-5055000D01*
X9776000Y-4975000D02*
X9696000Y-5055000D01*
X9696000Y-5229000D02*
X9776000Y-5309000D01*
X9776000Y-5229000D02*
X9696000Y-5309000D01*
X9696000Y-5483000D02*
X9776000Y-5563000D01*
X9776000Y-5483000D02*
X9696000Y-5563000D01*
X9696000Y-5737000D02*
X9776000Y-5817000D01*
X9776000Y-5737000D02*
X9696000Y-5817000D01*
X9696000Y-5991000D02*
X9776000Y-6071000D01*
X9776000Y-5991000D02*
X9696000Y-6071000D01*
X9696000Y-6245000D02*
X9776000Y-6325000D01*
X9776000Y-6245000D02*
X9696000Y-6325000D01*
X9696000Y-6499000D02*
X9776000Y-6579000D01*
X9776000Y-6499000D02*
X9696000Y-6579000D01*
X9730000Y-7160000D02*
X9810000Y-7240000D01*
X9810000Y-7160000D02*
X9730000Y-7240000D01*
X9730000Y-7414000D02*
X9810000Y-7494000D01*
X9810000Y-7414000D02*
X9730000Y-7494000D01*
X9730000Y-7668000D02*
X9810000Y-7748000D01*
X9810000Y-7668000D02*
X9730000Y-7748000D01*
X9730000Y-7922000D02*
X9810000Y-8002000D01*
X9810000Y-7922000D02*
X9730000Y-8002000D01*
X9730000Y-8176000D02*
X9810000Y-8256000D01*
X9810000Y-8176000D02*
X9730000Y-8256000D01*
X9730000Y-8430000D02*
X9810000Y-8510000D01*
X9810000Y-8430000D02*
X9730000Y-8510000D01*
X9730000Y-8684000D02*
X9810000Y-8764000D01*
X9810000Y-8684000D02*
X9730000Y-8764000D01*
X9730000Y-8938000D02*
X9810000Y-9018000D01*
X9810000Y-8938000D02*
X9730000Y-9018000D01*
X7750000Y-5242000D02*
G75*
G02*
X7650000Y-5242000I-50000J0D01*
G01*
X7650000Y-5242000D02*
G75*
G02*
X7750000Y-5242000I50000J0D01*
G01*
X7750000Y-5496000D02*
G75*
G02*
X7650000Y-5496000I-50000J0D01*
G01*
X7650000Y-5496000D02*
G75*
G02*
X7750000Y-5496000I50000J0D01*
G01*
X7750000Y-5750000D02*
G75*
G02*
X7650000Y-5750000I-50000J0D01*
G01*
X7650000Y-5750000D02*
G75*
G02*
X7750000Y-5750000I50000J0D01*
G01*
X7750000Y-6004000D02*
G75*
G02*
X7650000Y-6004000I-50000J0D01*
G01*
X7650000Y-6004000D02*
G75*
G02*
X7750000Y-6004000I50000J0D01*
G01*
X7750000Y-7738000D02*
G75*
G02*
X7650000Y-7738000I-50000J0D01*
G01*
X7650000Y-7738000D02*
G75*
G02*
X7750000Y-7738000I50000J0D01*
G01*
X7750000Y-7992000D02*
G75*
G02*
X7650000Y-7992000I-50000J0D01*
G01*
X7650000Y-7992000D02*
G75*
G02*
X7750000Y-7992000I50000J0D01*
G01*
X7750000Y-8246000D02*
G75*
G02*
X7650000Y-8246000I-50000J0D01*
G01*
X7650000Y-8246000D02*
G75*
G02*
X7750000Y-8246000I50000J0D01*
G01*
X7750000Y-8500000D02*
G75*
G02*
X7650000Y-8500000I-50000J0D01*
G01*
X7650000Y-8500000D02*
G75*
G02*
X7750000Y-8500000I50000J0D01*
G01*
X10626000Y-5450000D02*
G75*
G02*
X10526000Y-5450000I-50000J0D01*
G01*
X10526000Y-5450000D02*
G75*
G02*
X10626000Y-5450000I50000J0D01*
G01*
X10626000Y-5704000D02*
G75*
G02*
X10526000Y-5704000I-50000J0D01*
G01*
X10526000Y-5704000D02*
G75*
G02*
X10626000Y-5704000I50000J0D01*
G01*
X10626000Y-5958000D02*
G75*
G02*
X10526000Y-5958000I-50000J0D01*
G01*
X10526000Y-5958000D02*
G75*
G02*
X10626000Y-5958000I50000J0D01*
G01*
X10626000Y-6212000D02*
G75*
G02*
X10526000Y-6212000I-50000J0D01*
G01*
X10526000Y-6212000D02*
G75*
G02*
X10626000Y-6212000I50000J0D01*
G01*
X10626000Y-6466000D02*
G75*
G02*
X10526000Y-6466000I-50000J0D01*
G01*
X10526000Y-6466000D02*
G75*
G02*
X10626000Y-6466000I50000J0D01*
G01*
X10626000Y-6720000D02*
G75*
G02*
X10526000Y-6720000I-50000J0D01*
G01*
X10526000Y-6720000D02*
G75*
G02*
X10626000Y-6720000I50000J0D01*
G01*
X10626000Y-6974000D02*
G75*
G02*
X10526000Y-6974000I-50000J0D01*
G01*
X10526000Y-6974000D02*
G75*
G02*
X10626000Y-6974000I50000J0D01*
G01*
X10626000Y-7228000D02*
G75*
G02*
X10526000Y-7228000I-50000J0D01*
G01*
X10526000Y-7228000D02*
G75*
G02*
X10626000Y-7228000I50000J0D01*
G01*
X10626000Y-7482000D02*
G75*
G02*
X10526000Y-7482000I-50000J0D01*
G01*
X10526000Y-7482000D02*
G75*
G02*
X10626000Y-7482000I50000J0D01*
G01*
X10626000Y-7736000D02*
G75*
G02*
X10526000Y-7736000I-50000J0D01*
G01*
X10526000Y-7736000D02*
G75*
G02*
X10626000Y-7736000I50000J0D01*
G01*
X10626000Y-7990000D02*
G75*
G02*
X10526000Y-7990000I-50000J0D01*
G01*
X10526000Y-7990000D02*
G75*
G02*
X10626000Y-7990000I50000J0D01*
G01*
X10626000Y-8244000D02*
G75*
G02*
X10526000Y-8244000I-50000J0D01*
G01*
X10526000Y-8244000D02*
G75*
G02*
X10626000Y-8244000I50000J0D01*
G01*
X10626000Y-8498000D02*
G75*
G02*
X10526000Y-8498000I-50000J0D01*
G01*
X10526000Y-8498000D02*
G75*
G02*
X10626000Y-8498000I50000J0D01*
G01*
X10626000Y-8752000D02*
G75*
G02*
X10526000Y-8752000I-50000J0D01*
G01*
X10526000Y-8752000D02*
G75*
G02*
X10626000Y-8752000I50000J0D01*
G01*
X10626000Y-9006000D02*
G75*
G02*
X10526000Y-9006000I-50000J0D01*
G01*
X10526000Y-9006000D02*
G75*
G02*
X10626000Y-9006000I50000J0D01*
G01*
X11400000Y-4450000D02*
G75*
G02*
X11300000Y-4450000I-50000J0D01*
G01*
X11300000Y-4450000D02*
G75*
G02*
X11400000Y-4450000I50000J0D01*
G01*
X11654000Y-4450000D02*
G75*
G02*
X11554000Y-4450000I-50000J0D01*
G01*
X11554000Y-4450000D02*
G75*
G02*
X11654000Y-4450000I50000J0D01*
G01*
X12150000Y-5450000D02*
G75*
G02*
X12050000Y-5450000I-50000J0D01*
G01*
X12050000Y-5450000D02*
G75*
G02*
X12150000Y-5450000I50000J0D01*
G01*
X12150000Y-5704000D02*
G75*
G02*
X12050000Y-5704000I-50000J0D01*
G01*
X12050000Y-5704000D02*
G75*
G02*
X12150000Y-5704000I50000J0D01*
G01*
X12150000Y-5958000D02*
G75*
G02*
X12050000Y-5958000I-50000J0D01*
G01*
X12050000Y-5958000D02*
G75*
G02*
X12150000Y-5958000I50000J0D01*
G01*
X12150000Y-6212000D02*
G75*
G02*
X12050000Y-6212000I-50000J0D01*
G01*
X12050000Y-6212000D02*
G75*
G02*
X12150000Y-6212000I50000J0D01*
G01*
X12150000Y-6466000D02*
G75*
G02*
X12050000Y-6466000I-50000J0D01*
G01*
X12050000Y-6466000D02*
G75*
G02*
X12150000Y-6466000I50000J0D01*
G01*
X12150000Y-6720000D02*
G75*
G02*
X12050000Y-6720000I-50000J0D01*
G01*
X12050000Y-6720000D02*
G75*
G02*
X12150000Y-6720000I50000J0D01*
G01*
X12150000Y-6974000D02*
G75*
G02*
X12050000Y-6974000I-50000J0D01*
G01*
X12050000Y-6974000D02*
G75*
G02*
X12150000Y-6974000I50000J0D01*
G01*
X12150000Y-7228000D02*
G75*
G02*
X12050000Y-7228000I-50000J0D01*
G01*
X12050000Y-7228000D02*
G75*
G02*
X12150000Y-7228000I50000J0D01*
G01*
X12150000Y-7482000D02*
G75*
G02*
X12050000Y-7482000I-50000J0D01*
G01*
X12050000Y-7482000D02*
G75*
G02*
X12150000Y-7482000I50000J0D01*
G01*
X12150000Y-7736000D02*
G75*
G02*
X12050000Y-7736000I-50000J0D01*
G01*
X12050000Y-7736000D02*
G75*
G02*
X12150000Y-7736000I50000J0D01*
G01*
X12150000Y-7990000D02*
G75*
G02*
X12050000Y-7990000I-50000J0D01*
G01*
X12050000Y-7990000D02*
G75*
G02*
X12150000Y-7990000I50000J0D01*
G01*
X12150000Y-8244000D02*
G75*
G02*
X12050000Y-8244000I-50000J0D01*
G01*
X12050000Y-8244000D02*
G75*
G02*
X12150000Y-8244000I50000J0D01*
G01*
X12150000Y-8498000D02*
G75*
G02*
X12050000Y-8498000I-50000J0D01*
G01*
X12050000Y-8498000D02*
G75*
G02*
X12150000Y-8498000I50000J0D01*
G01*
X12150000Y-8752000D02*
G75*
G02*
X12050000Y-8752000I-50000J0D01*
G01*
X12050000Y-8752000D02*
G75*
G02*
X12150000Y-8752000I50000J0D01*
G01*
X12150000Y-9006000D02*
G75*
G02*
X12050000Y-9006000I-50000J0D01*
G01*
X12050000Y-9006000D02*
G75*
G02*
X12150000Y-9006000I50000J0D01*
G01*
X13150000Y-7750000D02*
G75*
G02*
X13050000Y-7750000I-50000J0D01*
G01*
X13050000Y-7750000D02*
G75*
G02*
X13150000Y-7750000I50000J0D01*
G01*
X13150000Y-8004000D02*
G75*
G02*
X13050000Y-8004000I-50000J0D01*
G01*
X13050000Y-8004000D02*
G75*
G02*
X13150000Y-8004000I50000J0D01*
G01*
X13150000Y-8258000D02*
G75*
G02*
X13050000Y-8258000I-50000J0D01*
G01*
X13050000Y-8258000D02*
G75*
G02*
X13150000Y-8258000I50000J0D01*
G01*
X13150000Y-8512000D02*
G75*
G02*
X13050000Y-8512000I-50000J0D01*
G01*
X13050000Y-8512000D02*
G75*
G02*
X13150000Y-8512000I50000J0D01*
G01*
X13150000Y-8766000D02*
G75*
G02*
X13050000Y-8766000I-50000J0D01*
G01*
X13050000Y-8766000D02*
G75*
G02*
X13150000Y-8766000I50000J0D01*
G01*
X13150000Y-9020000D02*
G75*
G02*
X13050000Y-9020000I-50000J0D01*
G01*
X13050000Y-9020000D02*
G75*
G02*
X13150000Y-9020000I50000J0D01*
G01*
D11*
X7758277Y-10013984D02*
X7758277Y-9813984D01*
X7758277Y-9813984D02*
X7805896Y-9813984D01*
X7805896Y-9813984D02*
X7834467Y-9823508D01*
X7834467Y-9823508D02*
X7853515Y-9842555D01*
X7853515Y-9842555D02*
X7863039Y-9861603D01*
X7863039Y-9861603D02*
X7872562Y-9899698D01*
X7872562Y-9899698D02*
X7872562Y-9928270D01*
X7872562Y-9928270D02*
X7863039Y-9966365D01*
X7863039Y-9966365D02*
X7853515Y-9985412D01*
X7853515Y-9985412D02*
X7834467Y-10004460D01*
X7834467Y-10004460D02*
X7805896Y-10013984D01*
X7805896Y-10013984D02*
X7758277Y-10013984D01*
X7958277Y-10013984D02*
X7958277Y-9880650D01*
X7958277Y-9918746D02*
X7967801Y-9899698D01*
X7967801Y-9899698D02*
X7977324Y-9890174D01*
X7977324Y-9890174D02*
X7996372Y-9880650D01*
X7996372Y-9880650D02*
X8015420Y-9880650D01*
X8082086Y-10013984D02*
X8082086Y-9880650D01*
X8082086Y-9813984D02*
X8072562Y-9823508D01*
X8072562Y-9823508D02*
X8082086Y-9833031D01*
X8082086Y-9833031D02*
X8091610Y-9823508D01*
X8091610Y-9823508D02*
X8082086Y-9813984D01*
X8082086Y-9813984D02*
X8082086Y-9833031D01*
X8205896Y-10013984D02*
X8186848Y-10004460D01*
X8186848Y-10004460D02*
X8177324Y-9985412D01*
X8177324Y-9985412D02*
X8177324Y-9813984D01*
X8310658Y-10013984D02*
X8291610Y-10004460D01*
X8291610Y-10004460D02*
X8282086Y-9985412D01*
X8282086Y-9985412D02*
X8282086Y-9813984D01*
X8539229Y-10013984D02*
X8539229Y-9813984D01*
X8539229Y-9813984D02*
X8605896Y-9956841D01*
X8605896Y-9956841D02*
X8672563Y-9813984D01*
X8672563Y-9813984D02*
X8672563Y-10013984D01*
X8853515Y-10013984D02*
X8853515Y-9909222D01*
X8853515Y-9909222D02*
X8843991Y-9890174D01*
X8843991Y-9890174D02*
X8824944Y-9880650D01*
X8824944Y-9880650D02*
X8786848Y-9880650D01*
X8786848Y-9880650D02*
X8767801Y-9890174D01*
X8853515Y-10004460D02*
X8834467Y-10013984D01*
X8834467Y-10013984D02*
X8786848Y-10013984D01*
X8786848Y-10013984D02*
X8767801Y-10004460D01*
X8767801Y-10004460D02*
X8758277Y-9985412D01*
X8758277Y-9985412D02*
X8758277Y-9966365D01*
X8758277Y-9966365D02*
X8767801Y-9947317D01*
X8767801Y-9947317D02*
X8786848Y-9937793D01*
X8786848Y-9937793D02*
X8834467Y-9937793D01*
X8834467Y-9937793D02*
X8853515Y-9928270D01*
X8948753Y-9880650D02*
X8948753Y-10080650D01*
X8948753Y-9890174D02*
X8967801Y-9880650D01*
X8967801Y-9880650D02*
X9005896Y-9880650D01*
X9005896Y-9880650D02*
X9024944Y-9890174D01*
X9024944Y-9890174D02*
X9034467Y-9899698D01*
X9034467Y-9899698D02*
X9043991Y-9918746D01*
X9043991Y-9918746D02*
X9043991Y-9975889D01*
X9043991Y-9975889D02*
X9034467Y-9994936D01*
X9034467Y-9994936D02*
X9024944Y-10004460D01*
X9024944Y-10004460D02*
X9005896Y-10013984D01*
X9005896Y-10013984D02*
X8967801Y-10013984D01*
X8967801Y-10013984D02*
X8948753Y-10004460D01*
X9129705Y-9994936D02*
X9139229Y-10004460D01*
X9139229Y-10004460D02*
X9129705Y-10013984D01*
X9129705Y-10013984D02*
X9120182Y-10004460D01*
X9120182Y-10004460D02*
X9129705Y-9994936D01*
X9129705Y-9994936D02*
X9129705Y-10013984D01*
X9129705Y-9890174D02*
X9139229Y-9899698D01*
X9139229Y-9899698D02*
X9129705Y-9909222D01*
X9129705Y-9909222D02*
X9120182Y-9899698D01*
X9120182Y-9899698D02*
X9129705Y-9890174D01*
X9129705Y-9890174D02*
X9129705Y-9909222D01*
D12*
X7417500Y-10302500D02*
X7497500Y-10382500D01*
X7497500Y-10302500D02*
X7417500Y-10382500D01*
D11*
X7796372Y-10233984D02*
X7815420Y-10233984D01*
X7815420Y-10233984D02*
X7834467Y-10243508D01*
X7834467Y-10243508D02*
X7843991Y-10253031D01*
X7843991Y-10253031D02*
X7853515Y-10272079D01*
X7853515Y-10272079D02*
X7863039Y-10310174D01*
X7863039Y-10310174D02*
X7863039Y-10357793D01*
X7863039Y-10357793D02*
X7853515Y-10395889D01*
X7853515Y-10395889D02*
X7843991Y-10414936D01*
X7843991Y-10414936D02*
X7834467Y-10424460D01*
X7834467Y-10424460D02*
X7815420Y-10433984D01*
X7815420Y-10433984D02*
X7796372Y-10433984D01*
X7796372Y-10433984D02*
X7777324Y-10424460D01*
X7777324Y-10424460D02*
X7767801Y-10414936D01*
X7767801Y-10414936D02*
X7758277Y-10395889D01*
X7758277Y-10395889D02*
X7748753Y-10357793D01*
X7748753Y-10357793D02*
X7748753Y-10310174D01*
X7748753Y-10310174D02*
X7758277Y-10272079D01*
X7758277Y-10272079D02*
X7767801Y-10253031D01*
X7767801Y-10253031D02*
X7777324Y-10243508D01*
X7777324Y-10243508D02*
X7796372Y-10233984D01*
X7948753Y-10414936D02*
X7958277Y-10424460D01*
X7958277Y-10424460D02*
X7948753Y-10433984D01*
X7948753Y-10433984D02*
X7939229Y-10424460D01*
X7939229Y-10424460D02*
X7948753Y-10414936D01*
X7948753Y-10414936D02*
X7948753Y-10433984D01*
X8072562Y-10319698D02*
X8053515Y-10310174D01*
X8053515Y-10310174D02*
X8043991Y-10300650D01*
X8043991Y-10300650D02*
X8034467Y-10281603D01*
X8034467Y-10281603D02*
X8034467Y-10272079D01*
X8034467Y-10272079D02*
X8043991Y-10253031D01*
X8043991Y-10253031D02*
X8053515Y-10243508D01*
X8053515Y-10243508D02*
X8072562Y-10233984D01*
X8072562Y-10233984D02*
X8110658Y-10233984D01*
X8110658Y-10233984D02*
X8129705Y-10243508D01*
X8129705Y-10243508D02*
X8139229Y-10253031D01*
X8139229Y-10253031D02*
X8148753Y-10272079D01*
X8148753Y-10272079D02*
X8148753Y-10281603D01*
X8148753Y-10281603D02*
X8139229Y-10300650D01*
X8139229Y-10300650D02*
X8129705Y-10310174D01*
X8129705Y-10310174D02*
X8110658Y-10319698D01*
X8110658Y-10319698D02*
X8072562Y-10319698D01*
X8072562Y-10319698D02*
X8053515Y-10329222D01*
X8053515Y-10329222D02*
X8043991Y-10338746D01*
X8043991Y-10338746D02*
X8034467Y-10357793D01*
X8034467Y-10357793D02*
X8034467Y-10395889D01*
X8034467Y-10395889D02*
X8043991Y-10414936D01*
X8043991Y-10414936D02*
X8053515Y-10424460D01*
X8053515Y-10424460D02*
X8072562Y-10433984D01*
X8072562Y-10433984D02*
X8110658Y-10433984D01*
X8110658Y-10433984D02*
X8129705Y-10424460D01*
X8129705Y-10424460D02*
X8139229Y-10414936D01*
X8139229Y-10414936D02*
X8148753Y-10395889D01*
X8148753Y-10395889D02*
X8148753Y-10357793D01*
X8148753Y-10357793D02*
X8139229Y-10338746D01*
X8139229Y-10338746D02*
X8129705Y-10329222D01*
X8129705Y-10329222D02*
X8110658Y-10319698D01*
X8272562Y-10233984D02*
X8291610Y-10233984D01*
X8291610Y-10233984D02*
X8310658Y-10243508D01*
X8310658Y-10243508D02*
X8320182Y-10253031D01*
X8320182Y-10253031D02*
X8329705Y-10272079D01*
X8329705Y-10272079D02*
X8339229Y-10310174D01*
X8339229Y-10310174D02*
X8339229Y-10357793D01*
X8339229Y-10357793D02*
X8329705Y-10395889D01*
X8329705Y-10395889D02*
X8320182Y-10414936D01*
X8320182Y-10414936D02*
X8310658Y-10424460D01*
X8310658Y-10424460D02*
X8291610Y-10433984D01*
X8291610Y-10433984D02*
X8272562Y-10433984D01*
X8272562Y-10433984D02*
X8253515Y-10424460D01*
X8253515Y-10424460D02*
X8243991Y-10414936D01*
X8243991Y-10414936D02*
X8234467Y-10395889D01*
X8234467Y-10395889D02*
X8224943Y-10357793D01*
X8224943Y-10357793D02*
X8224943Y-10310174D01*
X8224943Y-10310174D02*
X8234467Y-10272079D01*
X8234467Y-10272079D02*
X8243991Y-10253031D01*
X8243991Y-10253031D02*
X8253515Y-10243508D01*
X8253515Y-10243508D02*
X8272562Y-10233984D01*
X8463039Y-10233984D02*
X8482086Y-10233984D01*
X8482086Y-10233984D02*
X8501134Y-10243508D01*
X8501134Y-10243508D02*
X8510658Y-10253031D01*
X8510658Y-10253031D02*
X8520182Y-10272079D01*
X8520182Y-10272079D02*
X8529705Y-10310174D01*
X8529705Y-10310174D02*
X8529705Y-10357793D01*
X8529705Y-10357793D02*
X8520182Y-10395889D01*
X8520182Y-10395889D02*
X8510658Y-10414936D01*
X8510658Y-10414936D02*
X8501134Y-10424460D01*
X8501134Y-10424460D02*
X8482086Y-10433984D01*
X8482086Y-10433984D02*
X8463039Y-10433984D01*
X8463039Y-10433984D02*
X8443991Y-10424460D01*
X8443991Y-10424460D02*
X8434467Y-10414936D01*
X8434467Y-10414936D02*
X8424944Y-10395889D01*
X8424944Y-10395889D02*
X8415420Y-10357793D01*
X8415420Y-10357793D02*
X8415420Y-10310174D01*
X8415420Y-10310174D02*
X8424944Y-10272079D01*
X8424944Y-10272079D02*
X8434467Y-10253031D01*
X8434467Y-10253031D02*
X8443991Y-10243508D01*
X8443991Y-10243508D02*
X8463039Y-10233984D01*
X8615420Y-10433984D02*
X8615420Y-10300650D01*
X8615420Y-10319698D02*
X8624944Y-10310174D01*
X8624944Y-10310174D02*
X8643991Y-10300650D01*
X8643991Y-10300650D02*
X8672563Y-10300650D01*
X8672563Y-10300650D02*
X8691610Y-10310174D01*
X8691610Y-10310174D02*
X8701134Y-10329222D01*
X8701134Y-10329222D02*
X8701134Y-10433984D01*
X8701134Y-10329222D02*
X8710658Y-10310174D01*
X8710658Y-10310174D02*
X8729705Y-10300650D01*
X8729705Y-10300650D02*
X8758277Y-10300650D01*
X8758277Y-10300650D02*
X8777325Y-10310174D01*
X8777325Y-10310174D02*
X8786848Y-10329222D01*
X8786848Y-10329222D02*
X8786848Y-10433984D01*
X8882086Y-10433984D02*
X8882086Y-10300650D01*
X8882086Y-10319698D02*
X8891610Y-10310174D01*
X8891610Y-10310174D02*
X8910658Y-10300650D01*
X8910658Y-10300650D02*
X8939229Y-10300650D01*
X8939229Y-10300650D02*
X8958277Y-10310174D01*
X8958277Y-10310174D02*
X8967801Y-10329222D01*
X8967801Y-10329222D02*
X8967801Y-10433984D01*
X8967801Y-10329222D02*
X8977325Y-10310174D01*
X8977325Y-10310174D02*
X8996372Y-10300650D01*
X8996372Y-10300650D02*
X9024944Y-10300650D01*
X9024944Y-10300650D02*
X9043991Y-10310174D01*
X9043991Y-10310174D02*
X9053515Y-10329222D01*
X9053515Y-10329222D02*
X9053515Y-10433984D01*
X9443991Y-10224460D02*
X9272563Y-10481603D01*
X9701134Y-10233984D02*
X9720182Y-10233984D01*
X9720182Y-10233984D02*
X9739229Y-10243508D01*
X9739229Y-10243508D02*
X9748753Y-10253031D01*
X9748753Y-10253031D02*
X9758277Y-10272079D01*
X9758277Y-10272079D02*
X9767801Y-10310174D01*
X9767801Y-10310174D02*
X9767801Y-10357793D01*
X9767801Y-10357793D02*
X9758277Y-10395889D01*
X9758277Y-10395889D02*
X9748753Y-10414936D01*
X9748753Y-10414936D02*
X9739229Y-10424460D01*
X9739229Y-10424460D02*
X9720182Y-10433984D01*
X9720182Y-10433984D02*
X9701134Y-10433984D01*
X9701134Y-10433984D02*
X9682087Y-10424460D01*
X9682087Y-10424460D02*
X9672563Y-10414936D01*
X9672563Y-10414936D02*
X9663039Y-10395889D01*
X9663039Y-10395889D02*
X9653515Y-10357793D01*
X9653515Y-10357793D02*
X9653515Y-10310174D01*
X9653515Y-10310174D02*
X9663039Y-10272079D01*
X9663039Y-10272079D02*
X9672563Y-10253031D01*
X9672563Y-10253031D02*
X9682087Y-10243508D01*
X9682087Y-10243508D02*
X9701134Y-10233984D01*
X9853515Y-10414936D02*
X9863039Y-10424460D01*
X9863039Y-10424460D02*
X9853515Y-10433984D01*
X9853515Y-10433984D02*
X9843991Y-10424460D01*
X9843991Y-10424460D02*
X9853515Y-10414936D01*
X9853515Y-10414936D02*
X9853515Y-10433984D01*
X9986848Y-10233984D02*
X10005896Y-10233984D01*
X10005896Y-10233984D02*
X10024944Y-10243508D01*
X10024944Y-10243508D02*
X10034468Y-10253031D01*
X10034468Y-10253031D02*
X10043991Y-10272079D01*
X10043991Y-10272079D02*
X10053515Y-10310174D01*
X10053515Y-10310174D02*
X10053515Y-10357793D01*
X10053515Y-10357793D02*
X10043991Y-10395889D01*
X10043991Y-10395889D02*
X10034468Y-10414936D01*
X10034468Y-10414936D02*
X10024944Y-10424460D01*
X10024944Y-10424460D02*
X10005896Y-10433984D01*
X10005896Y-10433984D02*
X9986848Y-10433984D01*
X9986848Y-10433984D02*
X9967801Y-10424460D01*
X9967801Y-10424460D02*
X9958277Y-10414936D01*
X9958277Y-10414936D02*
X9948753Y-10395889D01*
X9948753Y-10395889D02*
X9939229Y-10357793D01*
X9939229Y-10357793D02*
X9939229Y-10310174D01*
X9939229Y-10310174D02*
X9948753Y-10272079D01*
X9948753Y-10272079D02*
X9958277Y-10253031D01*
X9958277Y-10253031D02*
X9967801Y-10243508D01*
X9967801Y-10243508D02*
X9986848Y-10233984D01*
X10120182Y-10233984D02*
X10243991Y-10233984D01*
X10243991Y-10233984D02*
X10177325Y-10310174D01*
X10177325Y-10310174D02*
X10205896Y-10310174D01*
X10205896Y-10310174D02*
X10224944Y-10319698D01*
X10224944Y-10319698D02*
X10234468Y-10329222D01*
X10234468Y-10329222D02*
X10243991Y-10348270D01*
X10243991Y-10348270D02*
X10243991Y-10395889D01*
X10243991Y-10395889D02*
X10234468Y-10414936D01*
X10234468Y-10414936D02*
X10224944Y-10424460D01*
X10224944Y-10424460D02*
X10205896Y-10433984D01*
X10205896Y-10433984D02*
X10148753Y-10433984D01*
X10148753Y-10433984D02*
X10129706Y-10424460D01*
X10129706Y-10424460D02*
X10120182Y-10414936D01*
X10434468Y-10433984D02*
X10320182Y-10433984D01*
X10377325Y-10433984D02*
X10377325Y-10233984D01*
X10377325Y-10233984D02*
X10358277Y-10262555D01*
X10358277Y-10262555D02*
X10339229Y-10281603D01*
X10339229Y-10281603D02*
X10320182Y-10291127D01*
X10615420Y-10233984D02*
X10520182Y-10233984D01*
X10520182Y-10233984D02*
X10510658Y-10329222D01*
X10510658Y-10329222D02*
X10520182Y-10319698D01*
X10520182Y-10319698D02*
X10539229Y-10310174D01*
X10539229Y-10310174D02*
X10586849Y-10310174D01*
X10586849Y-10310174D02*
X10605896Y-10319698D01*
X10605896Y-10319698D02*
X10615420Y-10329222D01*
X10615420Y-10329222D02*
X10624944Y-10348270D01*
X10624944Y-10348270D02*
X10624944Y-10395889D01*
X10624944Y-10395889D02*
X10615420Y-10414936D01*
X10615420Y-10414936D02*
X10605896Y-10424460D01*
X10605896Y-10424460D02*
X10586849Y-10433984D01*
X10586849Y-10433984D02*
X10539229Y-10433984D01*
X10539229Y-10433984D02*
X10520182Y-10424460D01*
X10520182Y-10424460D02*
X10510658Y-10414936D01*
X10701134Y-10233984D02*
X10701134Y-10272079D01*
X10777325Y-10233984D02*
X10777325Y-10272079D01*
X11072563Y-10510174D02*
X11063039Y-10500650D01*
X11063039Y-10500650D02*
X11043991Y-10472079D01*
X11043991Y-10472079D02*
X11034468Y-10453031D01*
X11034468Y-10453031D02*
X11024944Y-10424460D01*
X11024944Y-10424460D02*
X11015420Y-10376841D01*
X11015420Y-10376841D02*
X11015420Y-10338746D01*
X11015420Y-10338746D02*
X11024944Y-10291127D01*
X11024944Y-10291127D02*
X11034468Y-10262555D01*
X11034468Y-10262555D02*
X11043991Y-10243508D01*
X11043991Y-10243508D02*
X11063039Y-10214936D01*
X11063039Y-10214936D02*
X11072563Y-10205412D01*
X11129706Y-10233984D02*
X11253515Y-10233984D01*
X11253515Y-10233984D02*
X11186848Y-10310174D01*
X11186848Y-10310174D02*
X11215420Y-10310174D01*
X11215420Y-10310174D02*
X11234468Y-10319698D01*
X11234468Y-10319698D02*
X11243991Y-10329222D01*
X11243991Y-10329222D02*
X11253515Y-10348270D01*
X11253515Y-10348270D02*
X11253515Y-10395889D01*
X11253515Y-10395889D02*
X11243991Y-10414936D01*
X11243991Y-10414936D02*
X11234468Y-10424460D01*
X11234468Y-10424460D02*
X11215420Y-10433984D01*
X11215420Y-10433984D02*
X11158277Y-10433984D01*
X11158277Y-10433984D02*
X11139230Y-10424460D01*
X11139230Y-10424460D02*
X11129706Y-10414936D01*
X11329706Y-10253031D02*
X11339229Y-10243508D01*
X11339229Y-10243508D02*
X11358277Y-10233984D01*
X11358277Y-10233984D02*
X11405896Y-10233984D01*
X11405896Y-10233984D02*
X11424944Y-10243508D01*
X11424944Y-10243508D02*
X11434468Y-10253031D01*
X11434468Y-10253031D02*
X11443991Y-10272079D01*
X11443991Y-10272079D02*
X11443991Y-10291127D01*
X11443991Y-10291127D02*
X11434468Y-10319698D01*
X11434468Y-10319698D02*
X11320182Y-10433984D01*
X11320182Y-10433984D02*
X11443991Y-10433984D01*
X11682087Y-10433984D02*
X11682087Y-10233984D01*
X11767801Y-10433984D02*
X11767801Y-10329222D01*
X11767801Y-10329222D02*
X11758277Y-10310174D01*
X11758277Y-10310174D02*
X11739230Y-10300650D01*
X11739230Y-10300650D02*
X11710658Y-10300650D01*
X11710658Y-10300650D02*
X11691610Y-10310174D01*
X11691610Y-10310174D02*
X11682087Y-10319698D01*
X11891610Y-10433984D02*
X11872563Y-10424460D01*
X11872563Y-10424460D02*
X11863039Y-10414936D01*
X11863039Y-10414936D02*
X11853515Y-10395889D01*
X11853515Y-10395889D02*
X11853515Y-10338746D01*
X11853515Y-10338746D02*
X11863039Y-10319698D01*
X11863039Y-10319698D02*
X11872563Y-10310174D01*
X11872563Y-10310174D02*
X11891610Y-10300650D01*
X11891610Y-10300650D02*
X11920182Y-10300650D01*
X11920182Y-10300650D02*
X11939230Y-10310174D01*
X11939230Y-10310174D02*
X11948753Y-10319698D01*
X11948753Y-10319698D02*
X11958277Y-10338746D01*
X11958277Y-10338746D02*
X11958277Y-10395889D01*
X11958277Y-10395889D02*
X11948753Y-10414936D01*
X11948753Y-10414936D02*
X11939230Y-10424460D01*
X11939230Y-10424460D02*
X11920182Y-10433984D01*
X11920182Y-10433984D02*
X11891610Y-10433984D01*
X12072563Y-10433984D02*
X12053515Y-10424460D01*
X12053515Y-10424460D02*
X12043991Y-10405412D01*
X12043991Y-10405412D02*
X12043991Y-10233984D01*
X12224944Y-10424460D02*
X12205896Y-10433984D01*
X12205896Y-10433984D02*
X12167801Y-10433984D01*
X12167801Y-10433984D02*
X12148753Y-10424460D01*
X12148753Y-10424460D02*
X12139230Y-10405412D01*
X12139230Y-10405412D02*
X12139230Y-10329222D01*
X12139230Y-10329222D02*
X12148753Y-10310174D01*
X12148753Y-10310174D02*
X12167801Y-10300650D01*
X12167801Y-10300650D02*
X12205896Y-10300650D01*
X12205896Y-10300650D02*
X12224944Y-10310174D01*
X12224944Y-10310174D02*
X12234468Y-10329222D01*
X12234468Y-10329222D02*
X12234468Y-10348270D01*
X12234468Y-10348270D02*
X12139230Y-10367317D01*
X12310658Y-10424460D02*
X12329706Y-10433984D01*
X12329706Y-10433984D02*
X12367801Y-10433984D01*
X12367801Y-10433984D02*
X12386849Y-10424460D01*
X12386849Y-10424460D02*
X12396372Y-10405412D01*
X12396372Y-10405412D02*
X12396372Y-10395889D01*
X12396372Y-10395889D02*
X12386849Y-10376841D01*
X12386849Y-10376841D02*
X12367801Y-10367317D01*
X12367801Y-10367317D02*
X12339230Y-10367317D01*
X12339230Y-10367317D02*
X12320182Y-10357793D01*
X12320182Y-10357793D02*
X12310658Y-10338746D01*
X12310658Y-10338746D02*
X12310658Y-10329222D01*
X12310658Y-10329222D02*
X12320182Y-10310174D01*
X12320182Y-10310174D02*
X12339230Y-10300650D01*
X12339230Y-10300650D02*
X12367801Y-10300650D01*
X12367801Y-10300650D02*
X12386849Y-10310174D01*
X12463039Y-10510174D02*
X12472563Y-10500650D01*
X12472563Y-10500650D02*
X12491611Y-10472079D01*
X12491611Y-10472079D02*
X12501134Y-10453031D01*
X12501134Y-10453031D02*
X12510658Y-10424460D01*
X12510658Y-10424460D02*
X12520182Y-10376841D01*
X12520182Y-10376841D02*
X12520182Y-10338746D01*
X12520182Y-10338746D02*
X12510658Y-10291127D01*
X12510658Y-10291127D02*
X12501134Y-10262555D01*
X12501134Y-10262555D02*
X12491611Y-10243508D01*
X12491611Y-10243508D02*
X12472563Y-10214936D01*
X12472563Y-10214936D02*
X12463039Y-10205412D01*
D12*
X7497500Y-10606500D02*
G75*
G02*
X7397500Y-10606500I-50000J0D01*
G01*
X7397500Y-10606500D02*
G75*
G02*
X7497500Y-10606500I50000J0D01*
G01*
D11*
X7863039Y-10697984D02*
X7748753Y-10697984D01*
X7805896Y-10697984D02*
X7805896Y-10497984D01*
X7805896Y-10497984D02*
X7786848Y-10526555D01*
X7786848Y-10526555D02*
X7767801Y-10545603D01*
X7767801Y-10545603D02*
X7748753Y-10555127D01*
X7948753Y-10678936D02*
X7958277Y-10688460D01*
X7958277Y-10688460D02*
X7948753Y-10697984D01*
X7948753Y-10697984D02*
X7939229Y-10688460D01*
X7939229Y-10688460D02*
X7948753Y-10678936D01*
X7948753Y-10678936D02*
X7948753Y-10697984D01*
X8082086Y-10497984D02*
X8101134Y-10497984D01*
X8101134Y-10497984D02*
X8120182Y-10507508D01*
X8120182Y-10507508D02*
X8129705Y-10517031D01*
X8129705Y-10517031D02*
X8139229Y-10536079D01*
X8139229Y-10536079D02*
X8148753Y-10574174D01*
X8148753Y-10574174D02*
X8148753Y-10621793D01*
X8148753Y-10621793D02*
X8139229Y-10659889D01*
X8139229Y-10659889D02*
X8129705Y-10678936D01*
X8129705Y-10678936D02*
X8120182Y-10688460D01*
X8120182Y-10688460D02*
X8101134Y-10697984D01*
X8101134Y-10697984D02*
X8082086Y-10697984D01*
X8082086Y-10697984D02*
X8063039Y-10688460D01*
X8063039Y-10688460D02*
X8053515Y-10678936D01*
X8053515Y-10678936D02*
X8043991Y-10659889D01*
X8043991Y-10659889D02*
X8034467Y-10621793D01*
X8034467Y-10621793D02*
X8034467Y-10574174D01*
X8034467Y-10574174D02*
X8043991Y-10536079D01*
X8043991Y-10536079D02*
X8053515Y-10517031D01*
X8053515Y-10517031D02*
X8063039Y-10507508D01*
X8063039Y-10507508D02*
X8082086Y-10497984D01*
X8272562Y-10497984D02*
X8291610Y-10497984D01*
X8291610Y-10497984D02*
X8310658Y-10507508D01*
X8310658Y-10507508D02*
X8320182Y-10517031D01*
X8320182Y-10517031D02*
X8329705Y-10536079D01*
X8329705Y-10536079D02*
X8339229Y-10574174D01*
X8339229Y-10574174D02*
X8339229Y-10621793D01*
X8339229Y-10621793D02*
X8329705Y-10659889D01*
X8329705Y-10659889D02*
X8320182Y-10678936D01*
X8320182Y-10678936D02*
X8310658Y-10688460D01*
X8310658Y-10688460D02*
X8291610Y-10697984D01*
X8291610Y-10697984D02*
X8272562Y-10697984D01*
X8272562Y-10697984D02*
X8253515Y-10688460D01*
X8253515Y-10688460D02*
X8243991Y-10678936D01*
X8243991Y-10678936D02*
X8234467Y-10659889D01*
X8234467Y-10659889D02*
X8224943Y-10621793D01*
X8224943Y-10621793D02*
X8224943Y-10574174D01*
X8224943Y-10574174D02*
X8234467Y-10536079D01*
X8234467Y-10536079D02*
X8243991Y-10517031D01*
X8243991Y-10517031D02*
X8253515Y-10507508D01*
X8253515Y-10507508D02*
X8272562Y-10497984D01*
X8463039Y-10497984D02*
X8482086Y-10497984D01*
X8482086Y-10497984D02*
X8501134Y-10507508D01*
X8501134Y-10507508D02*
X8510658Y-10517031D01*
X8510658Y-10517031D02*
X8520182Y-10536079D01*
X8520182Y-10536079D02*
X8529705Y-10574174D01*
X8529705Y-10574174D02*
X8529705Y-10621793D01*
X8529705Y-10621793D02*
X8520182Y-10659889D01*
X8520182Y-10659889D02*
X8510658Y-10678936D01*
X8510658Y-10678936D02*
X8501134Y-10688460D01*
X8501134Y-10688460D02*
X8482086Y-10697984D01*
X8482086Y-10697984D02*
X8463039Y-10697984D01*
X8463039Y-10697984D02*
X8443991Y-10688460D01*
X8443991Y-10688460D02*
X8434467Y-10678936D01*
X8434467Y-10678936D02*
X8424944Y-10659889D01*
X8424944Y-10659889D02*
X8415420Y-10621793D01*
X8415420Y-10621793D02*
X8415420Y-10574174D01*
X8415420Y-10574174D02*
X8424944Y-10536079D01*
X8424944Y-10536079D02*
X8434467Y-10517031D01*
X8434467Y-10517031D02*
X8443991Y-10507508D01*
X8443991Y-10507508D02*
X8463039Y-10497984D01*
X8615420Y-10697984D02*
X8615420Y-10564650D01*
X8615420Y-10583698D02*
X8624944Y-10574174D01*
X8624944Y-10574174D02*
X8643991Y-10564650D01*
X8643991Y-10564650D02*
X8672563Y-10564650D01*
X8672563Y-10564650D02*
X8691610Y-10574174D01*
X8691610Y-10574174D02*
X8701134Y-10593222D01*
X8701134Y-10593222D02*
X8701134Y-10697984D01*
X8701134Y-10593222D02*
X8710658Y-10574174D01*
X8710658Y-10574174D02*
X8729705Y-10564650D01*
X8729705Y-10564650D02*
X8758277Y-10564650D01*
X8758277Y-10564650D02*
X8777325Y-10574174D01*
X8777325Y-10574174D02*
X8786848Y-10593222D01*
X8786848Y-10593222D02*
X8786848Y-10697984D01*
X8882086Y-10697984D02*
X8882086Y-10564650D01*
X8882086Y-10583698D02*
X8891610Y-10574174D01*
X8891610Y-10574174D02*
X8910658Y-10564650D01*
X8910658Y-10564650D02*
X8939229Y-10564650D01*
X8939229Y-10564650D02*
X8958277Y-10574174D01*
X8958277Y-10574174D02*
X8967801Y-10593222D01*
X8967801Y-10593222D02*
X8967801Y-10697984D01*
X8967801Y-10593222D02*
X8977325Y-10574174D01*
X8977325Y-10574174D02*
X8996372Y-10564650D01*
X8996372Y-10564650D02*
X9024944Y-10564650D01*
X9024944Y-10564650D02*
X9043991Y-10574174D01*
X9043991Y-10574174D02*
X9053515Y-10593222D01*
X9053515Y-10593222D02*
X9053515Y-10697984D01*
X9443991Y-10488460D02*
X9272563Y-10745603D01*
X9701134Y-10497984D02*
X9720182Y-10497984D01*
X9720182Y-10497984D02*
X9739229Y-10507508D01*
X9739229Y-10507508D02*
X9748753Y-10517031D01*
X9748753Y-10517031D02*
X9758277Y-10536079D01*
X9758277Y-10536079D02*
X9767801Y-10574174D01*
X9767801Y-10574174D02*
X9767801Y-10621793D01*
X9767801Y-10621793D02*
X9758277Y-10659889D01*
X9758277Y-10659889D02*
X9748753Y-10678936D01*
X9748753Y-10678936D02*
X9739229Y-10688460D01*
X9739229Y-10688460D02*
X9720182Y-10697984D01*
X9720182Y-10697984D02*
X9701134Y-10697984D01*
X9701134Y-10697984D02*
X9682087Y-10688460D01*
X9682087Y-10688460D02*
X9672563Y-10678936D01*
X9672563Y-10678936D02*
X9663039Y-10659889D01*
X9663039Y-10659889D02*
X9653515Y-10621793D01*
X9653515Y-10621793D02*
X9653515Y-10574174D01*
X9653515Y-10574174D02*
X9663039Y-10536079D01*
X9663039Y-10536079D02*
X9672563Y-10517031D01*
X9672563Y-10517031D02*
X9682087Y-10507508D01*
X9682087Y-10507508D02*
X9701134Y-10497984D01*
X9853515Y-10678936D02*
X9863039Y-10688460D01*
X9863039Y-10688460D02*
X9853515Y-10697984D01*
X9853515Y-10697984D02*
X9843991Y-10688460D01*
X9843991Y-10688460D02*
X9853515Y-10678936D01*
X9853515Y-10678936D02*
X9853515Y-10697984D01*
X9986848Y-10497984D02*
X10005896Y-10497984D01*
X10005896Y-10497984D02*
X10024944Y-10507508D01*
X10024944Y-10507508D02*
X10034468Y-10517031D01*
X10034468Y-10517031D02*
X10043991Y-10536079D01*
X10043991Y-10536079D02*
X10053515Y-10574174D01*
X10053515Y-10574174D02*
X10053515Y-10621793D01*
X10053515Y-10621793D02*
X10043991Y-10659889D01*
X10043991Y-10659889D02*
X10034468Y-10678936D01*
X10034468Y-10678936D02*
X10024944Y-10688460D01*
X10024944Y-10688460D02*
X10005896Y-10697984D01*
X10005896Y-10697984D02*
X9986848Y-10697984D01*
X9986848Y-10697984D02*
X9967801Y-10688460D01*
X9967801Y-10688460D02*
X9958277Y-10678936D01*
X9958277Y-10678936D02*
X9948753Y-10659889D01*
X9948753Y-10659889D02*
X9939229Y-10621793D01*
X9939229Y-10621793D02*
X9939229Y-10574174D01*
X9939229Y-10574174D02*
X9948753Y-10536079D01*
X9948753Y-10536079D02*
X9958277Y-10517031D01*
X9958277Y-10517031D02*
X9967801Y-10507508D01*
X9967801Y-10507508D02*
X9986848Y-10497984D01*
X10120182Y-10497984D02*
X10243991Y-10497984D01*
X10243991Y-10497984D02*
X10177325Y-10574174D01*
X10177325Y-10574174D02*
X10205896Y-10574174D01*
X10205896Y-10574174D02*
X10224944Y-10583698D01*
X10224944Y-10583698D02*
X10234468Y-10593222D01*
X10234468Y-10593222D02*
X10243991Y-10612270D01*
X10243991Y-10612270D02*
X10243991Y-10659889D01*
X10243991Y-10659889D02*
X10234468Y-10678936D01*
X10234468Y-10678936D02*
X10224944Y-10688460D01*
X10224944Y-10688460D02*
X10205896Y-10697984D01*
X10205896Y-10697984D02*
X10148753Y-10697984D01*
X10148753Y-10697984D02*
X10129706Y-10688460D01*
X10129706Y-10688460D02*
X10120182Y-10678936D01*
X10339229Y-10697984D02*
X10377325Y-10697984D01*
X10377325Y-10697984D02*
X10396372Y-10688460D01*
X10396372Y-10688460D02*
X10405896Y-10678936D01*
X10405896Y-10678936D02*
X10424944Y-10650365D01*
X10424944Y-10650365D02*
X10434468Y-10612270D01*
X10434468Y-10612270D02*
X10434468Y-10536079D01*
X10434468Y-10536079D02*
X10424944Y-10517031D01*
X10424944Y-10517031D02*
X10415420Y-10507508D01*
X10415420Y-10507508D02*
X10396372Y-10497984D01*
X10396372Y-10497984D02*
X10358277Y-10497984D01*
X10358277Y-10497984D02*
X10339229Y-10507508D01*
X10339229Y-10507508D02*
X10329706Y-10517031D01*
X10329706Y-10517031D02*
X10320182Y-10536079D01*
X10320182Y-10536079D02*
X10320182Y-10583698D01*
X10320182Y-10583698D02*
X10329706Y-10602746D01*
X10329706Y-10602746D02*
X10339229Y-10612270D01*
X10339229Y-10612270D02*
X10358277Y-10621793D01*
X10358277Y-10621793D02*
X10396372Y-10621793D01*
X10396372Y-10621793D02*
X10415420Y-10612270D01*
X10415420Y-10612270D02*
X10424944Y-10602746D01*
X10424944Y-10602746D02*
X10434468Y-10583698D01*
X10605896Y-10564650D02*
X10605896Y-10697984D01*
X10558277Y-10488460D02*
X10510658Y-10631317D01*
X10510658Y-10631317D02*
X10634468Y-10631317D01*
X10701134Y-10497984D02*
X10701134Y-10536079D01*
X10777325Y-10497984D02*
X10777325Y-10536079D01*
X11072563Y-10774174D02*
X11063039Y-10764650D01*
X11063039Y-10764650D02*
X11043991Y-10736079D01*
X11043991Y-10736079D02*
X11034468Y-10717031D01*
X11034468Y-10717031D02*
X11024944Y-10688460D01*
X11024944Y-10688460D02*
X11015420Y-10640841D01*
X11015420Y-10640841D02*
X11015420Y-10602746D01*
X11015420Y-10602746D02*
X11024944Y-10555127D01*
X11024944Y-10555127D02*
X11034468Y-10526555D01*
X11034468Y-10526555D02*
X11043991Y-10507508D01*
X11043991Y-10507508D02*
X11063039Y-10478936D01*
X11063039Y-10478936D02*
X11072563Y-10469412D01*
X11234468Y-10564650D02*
X11234468Y-10697984D01*
X11186848Y-10488460D02*
X11139230Y-10631317D01*
X11139230Y-10631317D02*
X11263039Y-10631317D01*
X11424944Y-10497984D02*
X11386848Y-10497984D01*
X11386848Y-10497984D02*
X11367801Y-10507508D01*
X11367801Y-10507508D02*
X11358277Y-10517031D01*
X11358277Y-10517031D02*
X11339229Y-10545603D01*
X11339229Y-10545603D02*
X11329706Y-10583698D01*
X11329706Y-10583698D02*
X11329706Y-10659889D01*
X11329706Y-10659889D02*
X11339229Y-10678936D01*
X11339229Y-10678936D02*
X11348753Y-10688460D01*
X11348753Y-10688460D02*
X11367801Y-10697984D01*
X11367801Y-10697984D02*
X11405896Y-10697984D01*
X11405896Y-10697984D02*
X11424944Y-10688460D01*
X11424944Y-10688460D02*
X11434468Y-10678936D01*
X11434468Y-10678936D02*
X11443991Y-10659889D01*
X11443991Y-10659889D02*
X11443991Y-10612270D01*
X11443991Y-10612270D02*
X11434468Y-10593222D01*
X11434468Y-10593222D02*
X11424944Y-10583698D01*
X11424944Y-10583698D02*
X11405896Y-10574174D01*
X11405896Y-10574174D02*
X11367801Y-10574174D01*
X11367801Y-10574174D02*
X11348753Y-10583698D01*
X11348753Y-10583698D02*
X11339229Y-10593222D01*
X11339229Y-10593222D02*
X11329706Y-10612270D01*
X11682087Y-10697984D02*
X11682087Y-10497984D01*
X11767801Y-10697984D02*
X11767801Y-10593222D01*
X11767801Y-10593222D02*
X11758277Y-10574174D01*
X11758277Y-10574174D02*
X11739230Y-10564650D01*
X11739230Y-10564650D02*
X11710658Y-10564650D01*
X11710658Y-10564650D02*
X11691610Y-10574174D01*
X11691610Y-10574174D02*
X11682087Y-10583698D01*
X11891610Y-10697984D02*
X11872563Y-10688460D01*
X11872563Y-10688460D02*
X11863039Y-10678936D01*
X11863039Y-10678936D02*
X11853515Y-10659889D01*
X11853515Y-10659889D02*
X11853515Y-10602746D01*
X11853515Y-10602746D02*
X11863039Y-10583698D01*
X11863039Y-10583698D02*
X11872563Y-10574174D01*
X11872563Y-10574174D02*
X11891610Y-10564650D01*
X11891610Y-10564650D02*
X11920182Y-10564650D01*
X11920182Y-10564650D02*
X11939230Y-10574174D01*
X11939230Y-10574174D02*
X11948753Y-10583698D01*
X11948753Y-10583698D02*
X11958277Y-10602746D01*
X11958277Y-10602746D02*
X11958277Y-10659889D01*
X11958277Y-10659889D02*
X11948753Y-10678936D01*
X11948753Y-10678936D02*
X11939230Y-10688460D01*
X11939230Y-10688460D02*
X11920182Y-10697984D01*
X11920182Y-10697984D02*
X11891610Y-10697984D01*
X12072563Y-10697984D02*
X12053515Y-10688460D01*
X12053515Y-10688460D02*
X12043991Y-10669412D01*
X12043991Y-10669412D02*
X12043991Y-10497984D01*
X12224944Y-10688460D02*
X12205896Y-10697984D01*
X12205896Y-10697984D02*
X12167801Y-10697984D01*
X12167801Y-10697984D02*
X12148753Y-10688460D01*
X12148753Y-10688460D02*
X12139230Y-10669412D01*
X12139230Y-10669412D02*
X12139230Y-10593222D01*
X12139230Y-10593222D02*
X12148753Y-10574174D01*
X12148753Y-10574174D02*
X12167801Y-10564650D01*
X12167801Y-10564650D02*
X12205896Y-10564650D01*
X12205896Y-10564650D02*
X12224944Y-10574174D01*
X12224944Y-10574174D02*
X12234468Y-10593222D01*
X12234468Y-10593222D02*
X12234468Y-10612270D01*
X12234468Y-10612270D02*
X12139230Y-10631317D01*
X12310658Y-10688460D02*
X12329706Y-10697984D01*
X12329706Y-10697984D02*
X12367801Y-10697984D01*
X12367801Y-10697984D02*
X12386849Y-10688460D01*
X12386849Y-10688460D02*
X12396372Y-10669412D01*
X12396372Y-10669412D02*
X12396372Y-10659889D01*
X12396372Y-10659889D02*
X12386849Y-10640841D01*
X12386849Y-10640841D02*
X12367801Y-10631317D01*
X12367801Y-10631317D02*
X12339230Y-10631317D01*
X12339230Y-10631317D02*
X12320182Y-10621793D01*
X12320182Y-10621793D02*
X12310658Y-10602746D01*
X12310658Y-10602746D02*
X12310658Y-10593222D01*
X12310658Y-10593222D02*
X12320182Y-10574174D01*
X12320182Y-10574174D02*
X12339230Y-10564650D01*
X12339230Y-10564650D02*
X12367801Y-10564650D01*
X12367801Y-10564650D02*
X12386849Y-10574174D01*
X12463039Y-10774174D02*
X12472563Y-10764650D01*
X12472563Y-10764650D02*
X12491611Y-10736079D01*
X12491611Y-10736079D02*
X12501134Y-10717031D01*
X12501134Y-10717031D02*
X12510658Y-10688460D01*
X12510658Y-10688460D02*
X12520182Y-10640841D01*
X12520182Y-10640841D02*
X12520182Y-10602746D01*
X12520182Y-10602746D02*
X12510658Y-10555127D01*
X12510658Y-10555127D02*
X12501134Y-10526555D01*
X12501134Y-10526555D02*
X12491611Y-10507508D01*
X12491611Y-10507508D02*
X12472563Y-10478936D01*
X12472563Y-10478936D02*
X12463039Y-10469412D01*
M02*
