M48
; DRILL file {KiCad 8.0.1} date 2024-04-25T13:59:23+0200
; FORMAT={-:-/ absolute / metric / decimal}
; #@! TF.CreationDate,2024-04-25T13:59:23+02:00
; #@! TF.GenerationSoftware,Kicad,Pcbnew,8.0.1
; #@! TF.FileFunction,Plated,1,2,PTH
FMAT,2
METRIC
; #@! TA.AperFunction,Plated,PTH,ComponentDrill
T1C0.800
; #@! TA.AperFunction,Plated,PTH,ComponentDrill
T2C1.000
%
G90
G05
T1
X84.66Y-47.61
X84.66Y-50.15
X84.66Y-52.69
X84.66Y-55.23
X84.66Y-57.77
X84.66Y-60.31
X84.66Y-62.85
X84.66Y-65.39
X85.0Y-72.0
X85.0Y-74.54
X85.0Y-77.08
X85.0Y-79.62
X85.0Y-82.16
X85.0Y-84.7
X85.0Y-87.24
X85.0Y-89.78
X97.36Y-47.61
X97.36Y-50.15
X97.36Y-52.69
X97.36Y-55.23
X97.36Y-57.77
X97.36Y-60.31
X97.36Y-62.85
X97.36Y-65.39
X97.7Y-72.0
X97.7Y-74.54
X97.7Y-77.08
X97.7Y-79.62
X97.7Y-82.16
X97.7Y-84.7
X97.7Y-87.24
X97.7Y-89.78
T2
X77.0Y-52.42
X77.0Y-54.96
X77.0Y-57.5
X77.0Y-60.04
X77.0Y-77.38
X77.0Y-79.92
X77.0Y-82.46
X77.0Y-85.0
X105.76Y-54.5
X105.76Y-57.04
X105.76Y-59.58
X105.76Y-62.12
X105.76Y-64.66
X105.76Y-67.2
X105.76Y-69.74
X105.76Y-72.28
X105.76Y-74.82
X105.76Y-77.36
X105.76Y-79.9
X105.76Y-82.44
X105.76Y-84.98
X105.76Y-87.52
X105.76Y-90.06
X113.5Y-44.5
X116.04Y-44.5
X121.0Y-54.5
X121.0Y-57.04
X121.0Y-59.58
X121.0Y-62.12
X121.0Y-64.66
X121.0Y-67.2
X121.0Y-69.74
X121.0Y-72.28
X121.0Y-74.82
X121.0Y-77.36
X121.0Y-79.9
X121.0Y-82.44
X121.0Y-84.98
X121.0Y-87.52
X121.0Y-90.06
X131.0Y-77.5
X131.0Y-80.04
X131.0Y-82.58
X131.0Y-85.12
X131.0Y-87.66
X131.0Y-90.2
M30
