%TF.GenerationSoftware,KiCad,Pcbnew,8.0.1*%
%TF.CreationDate,2024-04-25T13:58:34+02:00*%
%TF.ProjectId,WritingRobotV2,57726974-696e-4675-926f-626f7456322e,rev?*%
%TF.SameCoordinates,Original*%
%TF.FileFunction,Drillmap*%
%TF.FilePolarity,Positive*%
%FSLAX45Y45*%
G04 Gerber Fmt 4.5, Leading zero omitted, Abs format (unit mm)*
G04 Created by KiCad (PCBNEW 8.0.1) date 2024-04-25 13:58:34*
%MOMM*%
%LPD*%
G01*
G04 APERTURE LIST*
%ADD10C,0.050000*%
%ADD11C,0.200000*%
G04 APERTURE END LIST*
D10*
X7500000Y-4200000D02*
X13650000Y-4200000D01*
X13650000Y-9700000D01*
X7500000Y-9700000D01*
X7500000Y-4200000D01*
D11*
X7758277Y-10013984D02*
X7758277Y-9813984D01*
X7758277Y-9813984D02*
X7805896Y-9813984D01*
X7805896Y-9813984D02*
X7834467Y-9823508D01*
X7834467Y-9823508D02*
X7853515Y-9842555D01*
X7853515Y-9842555D02*
X7863039Y-9861603D01*
X7863039Y-9861603D02*
X7872562Y-9899698D01*
X7872562Y-9899698D02*
X7872562Y-9928270D01*
X7872562Y-9928270D02*
X7863039Y-9966365D01*
X7863039Y-9966365D02*
X7853515Y-9985412D01*
X7853515Y-9985412D02*
X7834467Y-10004460D01*
X7834467Y-10004460D02*
X7805896Y-10013984D01*
X7805896Y-10013984D02*
X7758277Y-10013984D01*
X7958277Y-10013984D02*
X7958277Y-9880650D01*
X7958277Y-9918746D02*
X7967801Y-9899698D01*
X7967801Y-9899698D02*
X7977324Y-9890174D01*
X7977324Y-9890174D02*
X7996372Y-9880650D01*
X7996372Y-9880650D02*
X8015420Y-9880650D01*
X8082086Y-10013984D02*
X8082086Y-9880650D01*
X8082086Y-9813984D02*
X8072562Y-9823508D01*
X8072562Y-9823508D02*
X8082086Y-9833031D01*
X8082086Y-9833031D02*
X8091610Y-9823508D01*
X8091610Y-9823508D02*
X8082086Y-9813984D01*
X8082086Y-9813984D02*
X8082086Y-9833031D01*
X8205896Y-10013984D02*
X8186848Y-10004460D01*
X8186848Y-10004460D02*
X8177324Y-9985412D01*
X8177324Y-9985412D02*
X8177324Y-9813984D01*
X8310658Y-10013984D02*
X8291610Y-10004460D01*
X8291610Y-10004460D02*
X8282086Y-9985412D01*
X8282086Y-9985412D02*
X8282086Y-9813984D01*
X8539229Y-10013984D02*
X8539229Y-9813984D01*
X8539229Y-9813984D02*
X8605896Y-9956841D01*
X8605896Y-9956841D02*
X8672563Y-9813984D01*
X8672563Y-9813984D02*
X8672563Y-10013984D01*
X8853515Y-10013984D02*
X8853515Y-9909222D01*
X8853515Y-9909222D02*
X8843991Y-9890174D01*
X8843991Y-9890174D02*
X8824944Y-9880650D01*
X8824944Y-9880650D02*
X8786848Y-9880650D01*
X8786848Y-9880650D02*
X8767801Y-9890174D01*
X8853515Y-10004460D02*
X8834467Y-10013984D01*
X8834467Y-10013984D02*
X8786848Y-10013984D01*
X8786848Y-10013984D02*
X8767801Y-10004460D01*
X8767801Y-10004460D02*
X8758277Y-9985412D01*
X8758277Y-9985412D02*
X8758277Y-9966365D01*
X8758277Y-9966365D02*
X8767801Y-9947317D01*
X8767801Y-9947317D02*
X8786848Y-9937793D01*
X8786848Y-9937793D02*
X8834467Y-9937793D01*
X8834467Y-9937793D02*
X8853515Y-9928270D01*
X8948753Y-9880650D02*
X8948753Y-10080650D01*
X8948753Y-9890174D02*
X8967801Y-9880650D01*
X8967801Y-9880650D02*
X9005896Y-9880650D01*
X9005896Y-9880650D02*
X9024944Y-9890174D01*
X9024944Y-9890174D02*
X9034467Y-9899698D01*
X9034467Y-9899698D02*
X9043991Y-9918746D01*
X9043991Y-9918746D02*
X9043991Y-9975889D01*
X9043991Y-9975889D02*
X9034467Y-9994936D01*
X9034467Y-9994936D02*
X9024944Y-10004460D01*
X9024944Y-10004460D02*
X9005896Y-10013984D01*
X9005896Y-10013984D02*
X8967801Y-10013984D01*
X8967801Y-10013984D02*
X8948753Y-10004460D01*
X9129705Y-9994936D02*
X9139229Y-10004460D01*
X9139229Y-10004460D02*
X9129705Y-10013984D01*
X9129705Y-10013984D02*
X9120182Y-10004460D01*
X9120182Y-10004460D02*
X9129705Y-9994936D01*
X9129705Y-9994936D02*
X9129705Y-10013984D01*
X9129705Y-9890174D02*
X9139229Y-9899698D01*
X9139229Y-9899698D02*
X9129705Y-9909222D01*
X9129705Y-9909222D02*
X9120182Y-9899698D01*
X9120182Y-9899698D02*
X9129705Y-9890174D01*
X9129705Y-9890174D02*
X9129705Y-9909222D01*
M02*
