G04 #@! TF.GenerationSoftware,KiCad,Pcbnew,8.0.4*
G04 #@! TF.CreationDate,2024-09-27T10:27:01+02:00*
G04 #@! TF.ProjectId,WritingRobotV2,57726974-696e-4675-926f-626f7456322e,rev?*
G04 #@! TF.SameCoordinates,Original*
G04 #@! TF.FileFunction,Soldermask,Top*
G04 #@! TF.FilePolarity,Negative*
%FSLAX46Y46*%
G04 Gerber Fmt 4.6, Leading zero omitted, Abs format (unit mm)*
G04 Created by KiCad (PCBNEW 8.0.4) date 2024-09-27 10:27:01*
%MOMM*%
%LPD*%
G01*
G04 APERTURE LIST*
%ADD10C,1.400000*%
%ADD11O,1.400000X1.400000*%
%ADD12C,4.300000*%
%ADD13R,1.700000X1.700000*%
%ADD14O,1.700000X1.700000*%
%ADD15C,1.700000*%
%ADD16R,1.600000X1.600000*%
%ADD17O,1.600000X1.600000*%
%ADD18C,1.600000*%
%ADD19R,2.000000X1.905000*%
%ADD20O,2.000000X1.905000*%
%ADD21C,0.600000*%
G04 APERTURE END LIST*
D10*
X90190000Y-166000000D03*
D11*
X97810000Y-166000000D03*
D12*
X40500000Y-116000000D03*
D13*
X51000000Y-113500000D03*
X90500000Y-145500000D03*
D14*
X90500000Y-148040000D03*
D13*
X103000000Y-149500000D03*
X38000000Y-145580000D03*
D14*
X38000000Y-143040000D03*
X38000000Y-140500000D03*
X38000000Y-137960000D03*
D12*
X39000000Y-180000000D03*
D15*
X68000000Y-127340000D03*
X68000000Y-129880000D03*
X68000000Y-132420000D03*
X68000000Y-134960000D03*
X68000000Y-137500000D03*
X68000000Y-140040000D03*
X68000000Y-142580000D03*
X68000000Y-145120000D03*
X68000000Y-147660000D03*
X68000000Y-150200000D03*
X68000000Y-152740000D03*
X68000000Y-155280000D03*
X68000000Y-157820000D03*
X68000000Y-160360000D03*
X68000000Y-162900000D03*
X68000000Y-165440000D03*
X68000000Y-167980000D03*
X68000000Y-170520000D03*
X68000000Y-173060000D03*
X68000000Y-175600000D03*
X83240000Y-127340000D03*
X83240000Y-129880000D03*
X83240000Y-132420000D03*
X83240000Y-134960000D03*
X83240000Y-137500000D03*
X83240000Y-140040000D03*
X83240000Y-142580000D03*
X83240000Y-145120000D03*
X83240000Y-147660000D03*
X83240000Y-150200000D03*
X83240000Y-152740000D03*
X83240000Y-155280000D03*
X83240000Y-157820000D03*
X83240000Y-160360000D03*
X83240000Y-162900000D03*
X83240000Y-165440000D03*
X83240000Y-167980000D03*
X83240000Y-170520000D03*
X83240000Y-173060000D03*
X83240000Y-175600000D03*
D16*
X47660000Y-157610000D03*
D17*
X47660000Y-160150000D03*
X47660000Y-162690000D03*
X47660000Y-165230000D03*
X47660000Y-167770000D03*
X47660000Y-170310000D03*
X47660000Y-172850000D03*
X47660000Y-175390000D03*
X60360000Y-175390000D03*
X60360000Y-172850000D03*
X60360000Y-170310000D03*
X60360000Y-167770000D03*
X60360000Y-165230000D03*
X60360000Y-162690000D03*
X60360000Y-160150000D03*
X60360000Y-157610000D03*
D13*
X63500000Y-113000000D03*
D12*
X91500000Y-180000000D03*
D18*
X86500000Y-122250000D03*
X86500000Y-118750000D03*
D13*
X94108074Y-145502522D03*
D14*
X94108074Y-148042522D03*
D16*
X47660000Y-133110000D03*
D17*
X47660000Y-135650000D03*
X47660000Y-138190000D03*
X47660000Y-140730000D03*
X47660000Y-143270000D03*
X47660000Y-145810000D03*
X47660000Y-148350000D03*
X47660000Y-150890000D03*
X60360000Y-150890000D03*
X60360000Y-148350000D03*
X60360000Y-145810000D03*
X60360000Y-143270000D03*
X60360000Y-140730000D03*
X60360000Y-138190000D03*
X60360000Y-135650000D03*
X60360000Y-133110000D03*
D13*
X38500000Y-170080000D03*
D14*
X38500000Y-167540000D03*
X38500000Y-165000000D03*
X38500000Y-162460000D03*
D13*
X103000000Y-174750000D03*
D14*
X103000000Y-177290000D03*
D13*
X94420000Y-125000000D03*
D14*
X96960000Y-125000000D03*
X99500000Y-125000000D03*
X102040000Y-125000000D03*
D10*
X90190000Y-163000000D03*
D11*
X97810000Y-163000000D03*
D18*
X58000000Y-122000000D03*
X58000000Y-118500000D03*
X91000000Y-139250000D03*
X91000000Y-136750000D03*
X61500000Y-129250000D03*
X61500000Y-126750000D03*
D16*
X97800000Y-152200000D03*
D17*
X95260000Y-152200000D03*
X92720000Y-152200000D03*
X90180000Y-152200000D03*
X90180000Y-159820000D03*
X92720000Y-159820000D03*
X95260000Y-159820000D03*
X97800000Y-159820000D03*
D13*
X87000000Y-113000000D03*
D14*
X84460000Y-113000000D03*
D19*
X98000000Y-134420000D03*
D20*
X98000000Y-136960000D03*
X98000000Y-139500000D03*
D21*
X78500000Y-173000000D03*
X65500000Y-168000000D03*
X64500000Y-169500000D03*
X63500000Y-170500000D03*
X62500000Y-172500000D03*
M02*
