%TF.GenerationSoftware,KiCad,Pcbnew,8.0.4*%
%TF.CreationDate,2024-09-27T10:28:37+02:00*%
%TF.ProjectId,WritingRobotV2,57726974-696e-4675-926f-626f7456322e,rev?*%
%TF.SameCoordinates,Original*%
%TF.FileFunction,Drillmap*%
%TF.FilePolarity,Positive*%
%FSLAX45Y45*%
G04 Gerber Fmt 4.5, Leading zero omitted, Abs format (unit mm)*
G04 Created by KiCad (PCBNEW 8.0.4) date 2024-09-27 10:28:37*
%MOMM*%
%LPD*%
G01*
G04 APERTURE LIST*
%ADD10C,0.050000*%
%ADD11C,0.200000*%
%ADD12C,0.430000*%
G04 APERTURE END LIST*
D10*
X3500000Y-11000000D02*
X10500000Y-11000000D01*
X10500000Y-18500000D01*
X3500000Y-18500000D01*
X3500000Y-11000000D01*
D11*
D12*
X3685000Y-17785000D02*
X4115000Y-18215000D01*
X4115000Y-17785000D02*
X3685000Y-18215000D01*
X3835000Y-11385000D02*
X4265000Y-11815000D01*
X4265000Y-11385000D02*
X3835000Y-11815000D01*
X8935000Y-17785000D02*
X9365000Y-18215000D01*
X9365000Y-17785000D02*
X8935000Y-18215000D01*
D11*
X3758277Y-18813984D02*
X3758277Y-18613984D01*
X3758277Y-18613984D02*
X3805896Y-18613984D01*
X3805896Y-18613984D02*
X3834467Y-18623508D01*
X3834467Y-18623508D02*
X3853515Y-18642555D01*
X3853515Y-18642555D02*
X3863039Y-18661603D01*
X3863039Y-18661603D02*
X3872562Y-18699698D01*
X3872562Y-18699698D02*
X3872562Y-18728270D01*
X3872562Y-18728270D02*
X3863039Y-18766365D01*
X3863039Y-18766365D02*
X3853515Y-18785412D01*
X3853515Y-18785412D02*
X3834467Y-18804460D01*
X3834467Y-18804460D02*
X3805896Y-18813984D01*
X3805896Y-18813984D02*
X3758277Y-18813984D01*
X3958277Y-18813984D02*
X3958277Y-18680650D01*
X3958277Y-18718746D02*
X3967801Y-18699698D01*
X3967801Y-18699698D02*
X3977324Y-18690174D01*
X3977324Y-18690174D02*
X3996372Y-18680650D01*
X3996372Y-18680650D02*
X4015420Y-18680650D01*
X4082086Y-18813984D02*
X4082086Y-18680650D01*
X4082086Y-18613984D02*
X4072562Y-18623508D01*
X4072562Y-18623508D02*
X4082086Y-18633031D01*
X4082086Y-18633031D02*
X4091610Y-18623508D01*
X4091610Y-18623508D02*
X4082086Y-18613984D01*
X4082086Y-18613984D02*
X4082086Y-18633031D01*
X4205896Y-18813984D02*
X4186848Y-18804460D01*
X4186848Y-18804460D02*
X4177324Y-18785412D01*
X4177324Y-18785412D02*
X4177324Y-18613984D01*
X4310658Y-18813984D02*
X4291610Y-18804460D01*
X4291610Y-18804460D02*
X4282086Y-18785412D01*
X4282086Y-18785412D02*
X4282086Y-18613984D01*
X4539229Y-18813984D02*
X4539229Y-18613984D01*
X4539229Y-18613984D02*
X4605896Y-18756841D01*
X4605896Y-18756841D02*
X4672563Y-18613984D01*
X4672563Y-18613984D02*
X4672563Y-18813984D01*
X4853515Y-18813984D02*
X4853515Y-18709222D01*
X4853515Y-18709222D02*
X4843991Y-18690174D01*
X4843991Y-18690174D02*
X4824944Y-18680650D01*
X4824944Y-18680650D02*
X4786848Y-18680650D01*
X4786848Y-18680650D02*
X4767801Y-18690174D01*
X4853515Y-18804460D02*
X4834467Y-18813984D01*
X4834467Y-18813984D02*
X4786848Y-18813984D01*
X4786848Y-18813984D02*
X4767801Y-18804460D01*
X4767801Y-18804460D02*
X4758277Y-18785412D01*
X4758277Y-18785412D02*
X4758277Y-18766365D01*
X4758277Y-18766365D02*
X4767801Y-18747317D01*
X4767801Y-18747317D02*
X4786848Y-18737793D01*
X4786848Y-18737793D02*
X4834467Y-18737793D01*
X4834467Y-18737793D02*
X4853515Y-18728270D01*
X4948753Y-18680650D02*
X4948753Y-18880650D01*
X4948753Y-18690174D02*
X4967801Y-18680650D01*
X4967801Y-18680650D02*
X5005896Y-18680650D01*
X5005896Y-18680650D02*
X5024944Y-18690174D01*
X5024944Y-18690174D02*
X5034467Y-18699698D01*
X5034467Y-18699698D02*
X5043991Y-18718746D01*
X5043991Y-18718746D02*
X5043991Y-18775889D01*
X5043991Y-18775889D02*
X5034467Y-18794936D01*
X5034467Y-18794936D02*
X5024944Y-18804460D01*
X5024944Y-18804460D02*
X5005896Y-18813984D01*
X5005896Y-18813984D02*
X4967801Y-18813984D01*
X4967801Y-18813984D02*
X4948753Y-18804460D01*
X5129705Y-18794936D02*
X5139229Y-18804460D01*
X5139229Y-18804460D02*
X5129705Y-18813984D01*
X5129705Y-18813984D02*
X5120182Y-18804460D01*
X5120182Y-18804460D02*
X5129705Y-18794936D01*
X5129705Y-18794936D02*
X5129705Y-18813984D01*
X5129705Y-18690174D02*
X5139229Y-18699698D01*
X5139229Y-18699698D02*
X5129705Y-18709222D01*
X5129705Y-18709222D02*
X5120182Y-18699698D01*
X5120182Y-18699698D02*
X5129705Y-18690174D01*
X5129705Y-18690174D02*
X5129705Y-18709222D01*
X3297500Y-19042500D02*
X3497500Y-19242500D01*
X3497500Y-19042500D02*
X3297500Y-19242500D01*
X3843991Y-19100650D02*
X3843991Y-19233984D01*
X3796372Y-19024460D02*
X3748753Y-19167317D01*
X3748753Y-19167317D02*
X3872562Y-19167317D01*
X3948753Y-19214936D02*
X3958277Y-19224460D01*
X3958277Y-19224460D02*
X3948753Y-19233984D01*
X3948753Y-19233984D02*
X3939229Y-19224460D01*
X3939229Y-19224460D02*
X3948753Y-19214936D01*
X3948753Y-19214936D02*
X3948753Y-19233984D01*
X4024943Y-19033984D02*
X4148753Y-19033984D01*
X4148753Y-19033984D02*
X4082086Y-19110174D01*
X4082086Y-19110174D02*
X4110658Y-19110174D01*
X4110658Y-19110174D02*
X4129705Y-19119698D01*
X4129705Y-19119698D02*
X4139229Y-19129222D01*
X4139229Y-19129222D02*
X4148753Y-19148270D01*
X4148753Y-19148270D02*
X4148753Y-19195889D01*
X4148753Y-19195889D02*
X4139229Y-19214936D01*
X4139229Y-19214936D02*
X4129705Y-19224460D01*
X4129705Y-19224460D02*
X4110658Y-19233984D01*
X4110658Y-19233984D02*
X4053515Y-19233984D01*
X4053515Y-19233984D02*
X4034467Y-19224460D01*
X4034467Y-19224460D02*
X4024943Y-19214936D01*
X4272563Y-19033984D02*
X4291610Y-19033984D01*
X4291610Y-19033984D02*
X4310658Y-19043508D01*
X4310658Y-19043508D02*
X4320182Y-19053031D01*
X4320182Y-19053031D02*
X4329705Y-19072079D01*
X4329705Y-19072079D02*
X4339229Y-19110174D01*
X4339229Y-19110174D02*
X4339229Y-19157793D01*
X4339229Y-19157793D02*
X4329705Y-19195889D01*
X4329705Y-19195889D02*
X4320182Y-19214936D01*
X4320182Y-19214936D02*
X4310658Y-19224460D01*
X4310658Y-19224460D02*
X4291610Y-19233984D01*
X4291610Y-19233984D02*
X4272563Y-19233984D01*
X4272563Y-19233984D02*
X4253515Y-19224460D01*
X4253515Y-19224460D02*
X4243991Y-19214936D01*
X4243991Y-19214936D02*
X4234467Y-19195889D01*
X4234467Y-19195889D02*
X4224944Y-19157793D01*
X4224944Y-19157793D02*
X4224944Y-19110174D01*
X4224944Y-19110174D02*
X4234467Y-19072079D01*
X4234467Y-19072079D02*
X4243991Y-19053031D01*
X4243991Y-19053031D02*
X4253515Y-19043508D01*
X4253515Y-19043508D02*
X4272563Y-19033984D01*
X4463039Y-19033984D02*
X4482086Y-19033984D01*
X4482086Y-19033984D02*
X4501134Y-19043508D01*
X4501134Y-19043508D02*
X4510658Y-19053031D01*
X4510658Y-19053031D02*
X4520182Y-19072079D01*
X4520182Y-19072079D02*
X4529705Y-19110174D01*
X4529705Y-19110174D02*
X4529705Y-19157793D01*
X4529705Y-19157793D02*
X4520182Y-19195889D01*
X4520182Y-19195889D02*
X4510658Y-19214936D01*
X4510658Y-19214936D02*
X4501134Y-19224460D01*
X4501134Y-19224460D02*
X4482086Y-19233984D01*
X4482086Y-19233984D02*
X4463039Y-19233984D01*
X4463039Y-19233984D02*
X4443991Y-19224460D01*
X4443991Y-19224460D02*
X4434467Y-19214936D01*
X4434467Y-19214936D02*
X4424944Y-19195889D01*
X4424944Y-19195889D02*
X4415420Y-19157793D01*
X4415420Y-19157793D02*
X4415420Y-19110174D01*
X4415420Y-19110174D02*
X4424944Y-19072079D01*
X4424944Y-19072079D02*
X4434467Y-19053031D01*
X4434467Y-19053031D02*
X4443991Y-19043508D01*
X4443991Y-19043508D02*
X4463039Y-19033984D01*
X4615420Y-19233984D02*
X4615420Y-19100650D01*
X4615420Y-19119698D02*
X4624944Y-19110174D01*
X4624944Y-19110174D02*
X4643991Y-19100650D01*
X4643991Y-19100650D02*
X4672563Y-19100650D01*
X4672563Y-19100650D02*
X4691610Y-19110174D01*
X4691610Y-19110174D02*
X4701134Y-19129222D01*
X4701134Y-19129222D02*
X4701134Y-19233984D01*
X4701134Y-19129222D02*
X4710658Y-19110174D01*
X4710658Y-19110174D02*
X4729705Y-19100650D01*
X4729705Y-19100650D02*
X4758277Y-19100650D01*
X4758277Y-19100650D02*
X4777325Y-19110174D01*
X4777325Y-19110174D02*
X4786848Y-19129222D01*
X4786848Y-19129222D02*
X4786848Y-19233984D01*
X4882086Y-19233984D02*
X4882086Y-19100650D01*
X4882086Y-19119698D02*
X4891610Y-19110174D01*
X4891610Y-19110174D02*
X4910658Y-19100650D01*
X4910658Y-19100650D02*
X4939229Y-19100650D01*
X4939229Y-19100650D02*
X4958277Y-19110174D01*
X4958277Y-19110174D02*
X4967801Y-19129222D01*
X4967801Y-19129222D02*
X4967801Y-19233984D01*
X4967801Y-19129222D02*
X4977325Y-19110174D01*
X4977325Y-19110174D02*
X4996372Y-19100650D01*
X4996372Y-19100650D02*
X5024944Y-19100650D01*
X5024944Y-19100650D02*
X5043991Y-19110174D01*
X5043991Y-19110174D02*
X5053515Y-19129222D01*
X5053515Y-19129222D02*
X5053515Y-19233984D01*
X5443991Y-19024460D02*
X5272563Y-19281603D01*
X5701134Y-19033984D02*
X5720182Y-19033984D01*
X5720182Y-19033984D02*
X5739229Y-19043508D01*
X5739229Y-19043508D02*
X5748753Y-19053031D01*
X5748753Y-19053031D02*
X5758277Y-19072079D01*
X5758277Y-19072079D02*
X5767801Y-19110174D01*
X5767801Y-19110174D02*
X5767801Y-19157793D01*
X5767801Y-19157793D02*
X5758277Y-19195889D01*
X5758277Y-19195889D02*
X5748753Y-19214936D01*
X5748753Y-19214936D02*
X5739229Y-19224460D01*
X5739229Y-19224460D02*
X5720182Y-19233984D01*
X5720182Y-19233984D02*
X5701134Y-19233984D01*
X5701134Y-19233984D02*
X5682086Y-19224460D01*
X5682086Y-19224460D02*
X5672563Y-19214936D01*
X5672563Y-19214936D02*
X5663039Y-19195889D01*
X5663039Y-19195889D02*
X5653515Y-19157793D01*
X5653515Y-19157793D02*
X5653515Y-19110174D01*
X5653515Y-19110174D02*
X5663039Y-19072079D01*
X5663039Y-19072079D02*
X5672563Y-19053031D01*
X5672563Y-19053031D02*
X5682086Y-19043508D01*
X5682086Y-19043508D02*
X5701134Y-19033984D01*
X5853515Y-19214936D02*
X5863039Y-19224460D01*
X5863039Y-19224460D02*
X5853515Y-19233984D01*
X5853515Y-19233984D02*
X5843991Y-19224460D01*
X5843991Y-19224460D02*
X5853515Y-19214936D01*
X5853515Y-19214936D02*
X5853515Y-19233984D01*
X6053515Y-19233984D02*
X5939229Y-19233984D01*
X5996372Y-19233984D02*
X5996372Y-19033984D01*
X5996372Y-19033984D02*
X5977325Y-19062555D01*
X5977325Y-19062555D02*
X5958277Y-19081603D01*
X5958277Y-19081603D02*
X5939229Y-19091127D01*
X6224944Y-19033984D02*
X6186848Y-19033984D01*
X6186848Y-19033984D02*
X6167801Y-19043508D01*
X6167801Y-19043508D02*
X6158277Y-19053031D01*
X6158277Y-19053031D02*
X6139229Y-19081603D01*
X6139229Y-19081603D02*
X6129706Y-19119698D01*
X6129706Y-19119698D02*
X6129706Y-19195889D01*
X6129706Y-19195889D02*
X6139229Y-19214936D01*
X6139229Y-19214936D02*
X6148753Y-19224460D01*
X6148753Y-19224460D02*
X6167801Y-19233984D01*
X6167801Y-19233984D02*
X6205896Y-19233984D01*
X6205896Y-19233984D02*
X6224944Y-19224460D01*
X6224944Y-19224460D02*
X6234467Y-19214936D01*
X6234467Y-19214936D02*
X6243991Y-19195889D01*
X6243991Y-19195889D02*
X6243991Y-19148270D01*
X6243991Y-19148270D02*
X6234467Y-19129222D01*
X6234467Y-19129222D02*
X6224944Y-19119698D01*
X6224944Y-19119698D02*
X6205896Y-19110174D01*
X6205896Y-19110174D02*
X6167801Y-19110174D01*
X6167801Y-19110174D02*
X6148753Y-19119698D01*
X6148753Y-19119698D02*
X6139229Y-19129222D01*
X6139229Y-19129222D02*
X6129706Y-19148270D01*
X6339229Y-19233984D02*
X6377325Y-19233984D01*
X6377325Y-19233984D02*
X6396372Y-19224460D01*
X6396372Y-19224460D02*
X6405896Y-19214936D01*
X6405896Y-19214936D02*
X6424944Y-19186365D01*
X6424944Y-19186365D02*
X6434467Y-19148270D01*
X6434467Y-19148270D02*
X6434467Y-19072079D01*
X6434467Y-19072079D02*
X6424944Y-19053031D01*
X6424944Y-19053031D02*
X6415420Y-19043508D01*
X6415420Y-19043508D02*
X6396372Y-19033984D01*
X6396372Y-19033984D02*
X6358277Y-19033984D01*
X6358277Y-19033984D02*
X6339229Y-19043508D01*
X6339229Y-19043508D02*
X6329706Y-19053031D01*
X6329706Y-19053031D02*
X6320182Y-19072079D01*
X6320182Y-19072079D02*
X6320182Y-19119698D01*
X6320182Y-19119698D02*
X6329706Y-19138746D01*
X6329706Y-19138746D02*
X6339229Y-19148270D01*
X6339229Y-19148270D02*
X6358277Y-19157793D01*
X6358277Y-19157793D02*
X6396372Y-19157793D01*
X6396372Y-19157793D02*
X6415420Y-19148270D01*
X6415420Y-19148270D02*
X6424944Y-19138746D01*
X6424944Y-19138746D02*
X6434467Y-19119698D01*
X6501134Y-19033984D02*
X6624944Y-19033984D01*
X6624944Y-19033984D02*
X6558277Y-19110174D01*
X6558277Y-19110174D02*
X6586848Y-19110174D01*
X6586848Y-19110174D02*
X6605896Y-19119698D01*
X6605896Y-19119698D02*
X6615420Y-19129222D01*
X6615420Y-19129222D02*
X6624944Y-19148270D01*
X6624944Y-19148270D02*
X6624944Y-19195889D01*
X6624944Y-19195889D02*
X6615420Y-19214936D01*
X6615420Y-19214936D02*
X6605896Y-19224460D01*
X6605896Y-19224460D02*
X6586848Y-19233984D01*
X6586848Y-19233984D02*
X6529706Y-19233984D01*
X6529706Y-19233984D02*
X6510658Y-19224460D01*
X6510658Y-19224460D02*
X6501134Y-19214936D01*
X6701134Y-19033984D02*
X6701134Y-19072079D01*
X6777325Y-19033984D02*
X6777325Y-19072079D01*
X7072563Y-19310174D02*
X7063039Y-19300650D01*
X7063039Y-19300650D02*
X7043991Y-19272079D01*
X7043991Y-19272079D02*
X7034468Y-19253031D01*
X7034468Y-19253031D02*
X7024944Y-19224460D01*
X7024944Y-19224460D02*
X7015420Y-19176841D01*
X7015420Y-19176841D02*
X7015420Y-19138746D01*
X7015420Y-19138746D02*
X7024944Y-19091127D01*
X7024944Y-19091127D02*
X7034468Y-19062555D01*
X7034468Y-19062555D02*
X7043991Y-19043508D01*
X7043991Y-19043508D02*
X7063039Y-19014936D01*
X7063039Y-19014936D02*
X7072563Y-19005412D01*
X7129706Y-19033984D02*
X7253515Y-19033984D01*
X7253515Y-19033984D02*
X7186848Y-19110174D01*
X7186848Y-19110174D02*
X7215420Y-19110174D01*
X7215420Y-19110174D02*
X7234468Y-19119698D01*
X7234468Y-19119698D02*
X7243991Y-19129222D01*
X7243991Y-19129222D02*
X7253515Y-19148270D01*
X7253515Y-19148270D02*
X7253515Y-19195889D01*
X7253515Y-19195889D02*
X7243991Y-19214936D01*
X7243991Y-19214936D02*
X7234468Y-19224460D01*
X7234468Y-19224460D02*
X7215420Y-19233984D01*
X7215420Y-19233984D02*
X7158277Y-19233984D01*
X7158277Y-19233984D02*
X7139229Y-19224460D01*
X7139229Y-19224460D02*
X7129706Y-19214936D01*
X7491610Y-19233984D02*
X7491610Y-19033984D01*
X7577325Y-19233984D02*
X7577325Y-19129222D01*
X7577325Y-19129222D02*
X7567801Y-19110174D01*
X7567801Y-19110174D02*
X7548753Y-19100650D01*
X7548753Y-19100650D02*
X7520182Y-19100650D01*
X7520182Y-19100650D02*
X7501134Y-19110174D01*
X7501134Y-19110174D02*
X7491610Y-19119698D01*
X7701134Y-19233984D02*
X7682087Y-19224460D01*
X7682087Y-19224460D02*
X7672563Y-19214936D01*
X7672563Y-19214936D02*
X7663039Y-19195889D01*
X7663039Y-19195889D02*
X7663039Y-19138746D01*
X7663039Y-19138746D02*
X7672563Y-19119698D01*
X7672563Y-19119698D02*
X7682087Y-19110174D01*
X7682087Y-19110174D02*
X7701134Y-19100650D01*
X7701134Y-19100650D02*
X7729706Y-19100650D01*
X7729706Y-19100650D02*
X7748753Y-19110174D01*
X7748753Y-19110174D02*
X7758277Y-19119698D01*
X7758277Y-19119698D02*
X7767801Y-19138746D01*
X7767801Y-19138746D02*
X7767801Y-19195889D01*
X7767801Y-19195889D02*
X7758277Y-19214936D01*
X7758277Y-19214936D02*
X7748753Y-19224460D01*
X7748753Y-19224460D02*
X7729706Y-19233984D01*
X7729706Y-19233984D02*
X7701134Y-19233984D01*
X7882087Y-19233984D02*
X7863039Y-19224460D01*
X7863039Y-19224460D02*
X7853515Y-19205412D01*
X7853515Y-19205412D02*
X7853515Y-19033984D01*
X8034468Y-19224460D02*
X8015420Y-19233984D01*
X8015420Y-19233984D02*
X7977325Y-19233984D01*
X7977325Y-19233984D02*
X7958277Y-19224460D01*
X7958277Y-19224460D02*
X7948753Y-19205412D01*
X7948753Y-19205412D02*
X7948753Y-19129222D01*
X7948753Y-19129222D02*
X7958277Y-19110174D01*
X7958277Y-19110174D02*
X7977325Y-19100650D01*
X7977325Y-19100650D02*
X8015420Y-19100650D01*
X8015420Y-19100650D02*
X8034468Y-19110174D01*
X8034468Y-19110174D02*
X8043991Y-19129222D01*
X8043991Y-19129222D02*
X8043991Y-19148270D01*
X8043991Y-19148270D02*
X7948753Y-19167317D01*
X8120182Y-19224460D02*
X8139230Y-19233984D01*
X8139230Y-19233984D02*
X8177325Y-19233984D01*
X8177325Y-19233984D02*
X8196372Y-19224460D01*
X8196372Y-19224460D02*
X8205896Y-19205412D01*
X8205896Y-19205412D02*
X8205896Y-19195889D01*
X8205896Y-19195889D02*
X8196372Y-19176841D01*
X8196372Y-19176841D02*
X8177325Y-19167317D01*
X8177325Y-19167317D02*
X8148753Y-19167317D01*
X8148753Y-19167317D02*
X8129706Y-19157793D01*
X8129706Y-19157793D02*
X8120182Y-19138746D01*
X8120182Y-19138746D02*
X8120182Y-19129222D01*
X8120182Y-19129222D02*
X8129706Y-19110174D01*
X8129706Y-19110174D02*
X8148753Y-19100650D01*
X8148753Y-19100650D02*
X8177325Y-19100650D01*
X8177325Y-19100650D02*
X8196372Y-19110174D01*
X8272563Y-19310174D02*
X8282087Y-19300650D01*
X8282087Y-19300650D02*
X8301134Y-19272079D01*
X8301134Y-19272079D02*
X8310658Y-19253031D01*
X8310658Y-19253031D02*
X8320182Y-19224460D01*
X8320182Y-19224460D02*
X8329706Y-19176841D01*
X8329706Y-19176841D02*
X8329706Y-19138746D01*
X8329706Y-19138746D02*
X8320182Y-19091127D01*
X8320182Y-19091127D02*
X8310658Y-19062555D01*
X8310658Y-19062555D02*
X8301134Y-19043508D01*
X8301134Y-19043508D02*
X8282087Y-19014936D01*
X8282087Y-19014936D02*
X8272563Y-19005412D01*
X8634468Y-19310174D02*
X8624944Y-19300650D01*
X8624944Y-19300650D02*
X8605896Y-19272079D01*
X8605896Y-19272079D02*
X8596373Y-19253031D01*
X8596373Y-19253031D02*
X8586849Y-19224460D01*
X8586849Y-19224460D02*
X8577325Y-19176841D01*
X8577325Y-19176841D02*
X8577325Y-19138746D01*
X8577325Y-19138746D02*
X8586849Y-19091127D01*
X8586849Y-19091127D02*
X8596373Y-19062555D01*
X8596373Y-19062555D02*
X8605896Y-19043508D01*
X8605896Y-19043508D02*
X8624944Y-19014936D01*
X8624944Y-19014936D02*
X8634468Y-19005412D01*
X8710658Y-19100650D02*
X8710658Y-19233984D01*
X8710658Y-19119698D02*
X8720182Y-19110174D01*
X8720182Y-19110174D02*
X8739230Y-19100650D01*
X8739230Y-19100650D02*
X8767801Y-19100650D01*
X8767801Y-19100650D02*
X8786849Y-19110174D01*
X8786849Y-19110174D02*
X8796373Y-19129222D01*
X8796373Y-19129222D02*
X8796373Y-19233984D01*
X8920182Y-19233984D02*
X8901134Y-19224460D01*
X8901134Y-19224460D02*
X8891611Y-19214936D01*
X8891611Y-19214936D02*
X8882087Y-19195889D01*
X8882087Y-19195889D02*
X8882087Y-19138746D01*
X8882087Y-19138746D02*
X8891611Y-19119698D01*
X8891611Y-19119698D02*
X8901134Y-19110174D01*
X8901134Y-19110174D02*
X8920182Y-19100650D01*
X8920182Y-19100650D02*
X8948754Y-19100650D01*
X8948754Y-19100650D02*
X8967801Y-19110174D01*
X8967801Y-19110174D02*
X8977325Y-19119698D01*
X8977325Y-19119698D02*
X8986849Y-19138746D01*
X8986849Y-19138746D02*
X8986849Y-19195889D01*
X8986849Y-19195889D02*
X8977325Y-19214936D01*
X8977325Y-19214936D02*
X8967801Y-19224460D01*
X8967801Y-19224460D02*
X8948754Y-19233984D01*
X8948754Y-19233984D02*
X8920182Y-19233984D01*
X9043992Y-19100650D02*
X9120182Y-19100650D01*
X9072563Y-19033984D02*
X9072563Y-19205412D01*
X9072563Y-19205412D02*
X9082087Y-19224460D01*
X9082087Y-19224460D02*
X9101134Y-19233984D01*
X9101134Y-19233984D02*
X9120182Y-19233984D01*
X9339230Y-19100650D02*
X9339230Y-19300650D01*
X9339230Y-19110174D02*
X9358277Y-19100650D01*
X9358277Y-19100650D02*
X9396373Y-19100650D01*
X9396373Y-19100650D02*
X9415420Y-19110174D01*
X9415420Y-19110174D02*
X9424944Y-19119698D01*
X9424944Y-19119698D02*
X9434468Y-19138746D01*
X9434468Y-19138746D02*
X9434468Y-19195889D01*
X9434468Y-19195889D02*
X9424944Y-19214936D01*
X9424944Y-19214936D02*
X9415420Y-19224460D01*
X9415420Y-19224460D02*
X9396373Y-19233984D01*
X9396373Y-19233984D02*
X9358277Y-19233984D01*
X9358277Y-19233984D02*
X9339230Y-19224460D01*
X9548754Y-19233984D02*
X9529706Y-19224460D01*
X9529706Y-19224460D02*
X9520182Y-19205412D01*
X9520182Y-19205412D02*
X9520182Y-19033984D01*
X9710658Y-19233984D02*
X9710658Y-19129222D01*
X9710658Y-19129222D02*
X9701135Y-19110174D01*
X9701135Y-19110174D02*
X9682087Y-19100650D01*
X9682087Y-19100650D02*
X9643992Y-19100650D01*
X9643992Y-19100650D02*
X9624944Y-19110174D01*
X9710658Y-19224460D02*
X9691611Y-19233984D01*
X9691611Y-19233984D02*
X9643992Y-19233984D01*
X9643992Y-19233984D02*
X9624944Y-19224460D01*
X9624944Y-19224460D02*
X9615420Y-19205412D01*
X9615420Y-19205412D02*
X9615420Y-19186365D01*
X9615420Y-19186365D02*
X9624944Y-19167317D01*
X9624944Y-19167317D02*
X9643992Y-19157793D01*
X9643992Y-19157793D02*
X9691611Y-19157793D01*
X9691611Y-19157793D02*
X9710658Y-19148270D01*
X9777325Y-19100650D02*
X9853515Y-19100650D01*
X9805896Y-19033984D02*
X9805896Y-19205412D01*
X9805896Y-19205412D02*
X9815420Y-19224460D01*
X9815420Y-19224460D02*
X9834468Y-19233984D01*
X9834468Y-19233984D02*
X9853515Y-19233984D01*
X9996373Y-19224460D02*
X9977325Y-19233984D01*
X9977325Y-19233984D02*
X9939230Y-19233984D01*
X9939230Y-19233984D02*
X9920182Y-19224460D01*
X9920182Y-19224460D02*
X9910658Y-19205412D01*
X9910658Y-19205412D02*
X9910658Y-19129222D01*
X9910658Y-19129222D02*
X9920182Y-19110174D01*
X9920182Y-19110174D02*
X9939230Y-19100650D01*
X9939230Y-19100650D02*
X9977325Y-19100650D01*
X9977325Y-19100650D02*
X9996373Y-19110174D01*
X9996373Y-19110174D02*
X10005896Y-19129222D01*
X10005896Y-19129222D02*
X10005896Y-19148270D01*
X10005896Y-19148270D02*
X9910658Y-19167317D01*
X10177325Y-19233984D02*
X10177325Y-19033984D01*
X10177325Y-19224460D02*
X10158277Y-19233984D01*
X10158277Y-19233984D02*
X10120182Y-19233984D01*
X10120182Y-19233984D02*
X10101135Y-19224460D01*
X10101135Y-19224460D02*
X10091611Y-19214936D01*
X10091611Y-19214936D02*
X10082087Y-19195889D01*
X10082087Y-19195889D02*
X10082087Y-19138746D01*
X10082087Y-19138746D02*
X10091611Y-19119698D01*
X10091611Y-19119698D02*
X10101135Y-19110174D01*
X10101135Y-19110174D02*
X10120182Y-19100650D01*
X10120182Y-19100650D02*
X10158277Y-19100650D01*
X10158277Y-19100650D02*
X10177325Y-19110174D01*
X10253516Y-19310174D02*
X10263039Y-19300650D01*
X10263039Y-19300650D02*
X10282087Y-19272079D01*
X10282087Y-19272079D02*
X10291611Y-19253031D01*
X10291611Y-19253031D02*
X10301135Y-19224460D01*
X10301135Y-19224460D02*
X10310658Y-19176841D01*
X10310658Y-19176841D02*
X10310658Y-19138746D01*
X10310658Y-19138746D02*
X10301135Y-19091127D01*
X10301135Y-19091127D02*
X10291611Y-19062555D01*
X10291611Y-19062555D02*
X10282087Y-19043508D01*
X10282087Y-19043508D02*
X10263039Y-19014936D01*
X10263039Y-19014936D02*
X10253516Y-19005412D01*
M02*
