M48
; DRILL file {KiCad 8.0.4} date 2024-09-27T10:28:15+0200
; FORMAT={-:-/ absolute / metric / decimal}
; #@! TF.CreationDate,2024-09-27T10:28:15+02:00
; #@! TF.GenerationSoftware,Kicad,Pcbnew,8.0.4
; #@! TF.FileFunction,Plated,1,2,PTH
FMAT,2
METRIC
; #@! TA.AperFunction,Plated,PTH,ViaDrill
T1C0.300
; #@! TA.AperFunction,Plated,PTH,ComponentDrill
T2C0.700
; #@! TA.AperFunction,Plated,PTH,ComponentDrill
T3C0.800
; #@! TA.AperFunction,Plated,PTH,ComponentDrill
T4C1.000
; #@! TA.AperFunction,Plated,PTH,ComponentDrill
T5C1.100
%
G90
G05
T1
X62.5Y-172.5
X63.5Y-170.5
X64.5Y-169.5
X65.5Y-168.0
X78.5Y-173.0
T2
X90.19Y-163.0
X90.19Y-166.0
X97.81Y-163.0
X97.81Y-166.0
T3
X47.66Y-133.11
X47.66Y-135.65
X47.66Y-138.19
X47.66Y-140.73
X47.66Y-143.27
X47.66Y-145.81
X47.66Y-148.35
X47.66Y-150.89
X47.66Y-157.61
X47.66Y-160.15
X47.66Y-162.69
X47.66Y-165.23
X47.66Y-167.77
X47.66Y-170.31
X47.66Y-172.85
X47.66Y-175.39
X58.0Y-118.5
X58.0Y-122.0
X60.36Y-133.11
X60.36Y-135.65
X60.36Y-138.19
X60.36Y-140.73
X60.36Y-143.27
X60.36Y-145.81
X60.36Y-148.35
X60.36Y-150.89
X60.36Y-157.61
X60.36Y-160.15
X60.36Y-162.69
X60.36Y-165.23
X60.36Y-167.77
X60.36Y-170.31
X60.36Y-172.85
X60.36Y-175.39
X61.5Y-126.75
X61.5Y-129.25
X68.0Y-127.34
X68.0Y-129.88
X68.0Y-132.42
X68.0Y-134.96
X68.0Y-137.5
X68.0Y-140.04
X68.0Y-142.58
X68.0Y-145.12
X68.0Y-147.66
X68.0Y-150.2
X68.0Y-152.74
X68.0Y-155.28
X68.0Y-157.82
X68.0Y-160.36
X68.0Y-162.9
X68.0Y-165.44
X68.0Y-167.98
X68.0Y-170.52
X68.0Y-173.06
X68.0Y-175.6
X83.24Y-127.34
X83.24Y-129.88
X83.24Y-132.42
X83.24Y-134.96
X83.24Y-137.5
X83.24Y-140.04
X83.24Y-142.58
X83.24Y-145.12
X83.24Y-147.66
X83.24Y-150.2
X83.24Y-152.74
X83.24Y-155.28
X83.24Y-157.82
X83.24Y-160.36
X83.24Y-162.9
X83.24Y-165.44
X83.24Y-167.98
X83.24Y-170.52
X83.24Y-173.06
X83.24Y-175.6
X86.5Y-118.75
X86.5Y-122.25
X90.18Y-152.2
X90.18Y-159.82
X91.0Y-136.75
X91.0Y-139.25
X92.72Y-152.2
X92.72Y-159.82
X95.26Y-152.2
X95.26Y-159.82
X97.8Y-152.2
X97.8Y-159.82
T4
X38.0Y-137.96
X38.0Y-140.5
X38.0Y-143.04
X38.0Y-145.58
X38.5Y-162.46
X38.5Y-165.0
X38.5Y-167.54
X38.5Y-170.08
X51.0Y-113.5
X63.5Y-113.0
X84.46Y-113.0
X87.0Y-113.0
X90.5Y-145.5
X90.5Y-148.04
X94.108Y-145.503
X94.108Y-148.043
X94.42Y-125.0
X96.96Y-125.0
X99.5Y-125.0
X102.04Y-125.0
X103.0Y-149.5
X103.0Y-174.75
X103.0Y-177.29
T5
X98.0Y-134.42
X98.0Y-136.96
X98.0Y-139.5
M30
