G04 #@! TF.GenerationSoftware,KiCad,Pcbnew,8.0.1*
G04 #@! TF.CreationDate,2024-04-25T13:58:40+02:00*
G04 #@! TF.ProjectId,WritingRobotV2,57726974-696e-4675-926f-626f7456322e,rev?*
G04 #@! TF.SameCoordinates,Original*
G04 #@! TF.FileFunction,Soldermask,Top*
G04 #@! TF.FilePolarity,Negative*
%FSLAX46Y46*%
G04 Gerber Fmt 4.6, Leading zero omitted, Abs format (unit mm)*
G04 Created by KiCad (PCBNEW 8.0.1) date 2024-04-25 13:58:40*
%MOMM*%
%LPD*%
G01*
G04 APERTURE LIST*
%ADD10R,1.700000X1.700000*%
%ADD11O,1.700000X1.700000*%
%ADD12R,1.600000X1.600000*%
%ADD13O,1.600000X1.600000*%
G04 APERTURE END LIST*
D10*
X131000000Y-77500000D03*
D11*
X131000000Y-80040000D03*
X131000000Y-82580000D03*
X131000000Y-85120000D03*
X131000000Y-87660000D03*
X131000000Y-90200000D03*
D10*
X77000000Y-60040000D03*
D11*
X77000000Y-57500000D03*
X77000000Y-54960000D03*
X77000000Y-52420000D03*
D12*
X84660000Y-47610000D03*
D13*
X84660000Y-50150000D03*
X84660000Y-52690000D03*
X84660000Y-55230000D03*
X84660000Y-57770000D03*
X84660000Y-60310000D03*
X84660000Y-62850000D03*
X84660000Y-65390000D03*
X97360000Y-65390000D03*
X97360000Y-62850000D03*
X97360000Y-60310000D03*
X97360000Y-57770000D03*
X97360000Y-55230000D03*
X97360000Y-52690000D03*
X97360000Y-50150000D03*
X97360000Y-47610000D03*
D10*
X77000000Y-85000000D03*
D11*
X77000000Y-82460000D03*
X77000000Y-79920000D03*
X77000000Y-77380000D03*
D13*
X97700000Y-72000000D03*
X97700000Y-74540000D03*
X97700000Y-77080000D03*
X97700000Y-79620000D03*
X97700000Y-82160000D03*
X97700000Y-84700000D03*
X97700000Y-87240000D03*
X97700000Y-89780000D03*
X85000000Y-89780000D03*
X85000000Y-87240000D03*
X85000000Y-84700000D03*
X85000000Y-82160000D03*
X85000000Y-79620000D03*
X85000000Y-77080000D03*
X85000000Y-74540000D03*
D12*
X85000000Y-72000000D03*
D10*
X113500000Y-44500000D03*
D11*
X116040000Y-44500000D03*
D12*
X105760000Y-54500000D03*
D13*
X105760000Y-57040000D03*
X105760000Y-59580000D03*
X105760000Y-62120000D03*
X105760000Y-64660000D03*
X105760000Y-67200000D03*
X105760000Y-69740000D03*
X105760000Y-72280000D03*
X105760000Y-74820000D03*
X105760000Y-77360000D03*
X105760000Y-79900000D03*
X105760000Y-82440000D03*
X105760000Y-84980000D03*
X105760000Y-87520000D03*
X105760000Y-90060000D03*
X121000000Y-90060000D03*
X121000000Y-87520000D03*
X121000000Y-84980000D03*
X121000000Y-82440000D03*
X121000000Y-79900000D03*
X121000000Y-77360000D03*
X121000000Y-74820000D03*
X121000000Y-72280000D03*
X121000000Y-69740000D03*
X121000000Y-67200000D03*
X121000000Y-64660000D03*
X121000000Y-62120000D03*
X121000000Y-59580000D03*
X121000000Y-57040000D03*
X121000000Y-54500000D03*
M02*
